<?xml version="1.0" standalone="no"?>
<!DOCTYPE svg PUBLIC "-//W3C//DTD SVG 1.1//EN" "http://www.w3.org/Graphics/SVG/1.1/DTD/svg11.dtd" >
<svg>
<metadata>
Created by FontForge 20090622 at Tue Jul  4 04:27:33 2017
 By deploy user
Copyright (c) 2007 by Kris Sowersby. All rights reserved.
</metadata>
<defs>
<font id="Feijoa-Display" horiz-adv-x="360" >
  <font-face 
    font-family="Feijoa Display"
    font-weight="900"
    font-stretch="normal"
    units-per-em="1000"
    panose-1="2 0 5 0 0 0 0 2 0 3"
    ascent="800"
    descent="-200"
    x-height="598"
    cap-height="765"
    bbox="-100.115 -318 2318 1040"
    underline-thickness="20"
    underline-position="-53"
    unicode-range="U+0020-U+FB06"
  />
<missing-glyph horiz-adv-x="846" 
d="M273 463v225h-24v-165l-152 165h-35l30 -34v-189h24v166l155 -169zM352 577q0 38 25.5 65.5t62.5 27.5t63.5 -27.5t26.5 -65.5t-26.5 -66t-63.5 -28t-62.5 28t-25.5 66zM327 577q0 -48 32.5 -81.5t80.5 -33.5q47 0 80 33.5t33 81.5q0 47 -33 81t-80 34q-48 0 -80.5 -33.5
t-32.5 -81.5zM424 575q0 -17 18 -17q7 0 12 5t5 12t-5 12t-12 5q-18 0 -18 -17zM647 666v-201h24v201h77l-2 22h-173l-2 -22h76zM98 109h56q56 0 91.5 29t35.5 83q0 59 -37.5 85t-92.5 26q-34 0 -53 -4v-219zM148 130h-27v179l10 1q56 5 90 -17.5t34 -71.5
q0 -44 -28.5 -67.5t-78.5 -23.5zM523 125l1 25q-25 -22 -73 -22q-35 0 -61 24.5t-30 59.5h145l3 22h-148q5 34 29.5 57.5t57.5 23.5q41 0 77 -26v27q-31 21 -75 21q-48 0 -80.5 -33.5t-32.5 -81.5t32.5 -81.5t80.5 -33.5q50 0 74 18zM629 109v106h91v22h-91v72h109l-2 22
h-131v-222h24zM732 129q0 -9 6 -15t15 -6t15 6t6 15t-6 15t-15 6t-15 -6t-6 -15zM-3 0v779h846v-779h-846z" />
    <glyph glyph-name="f_adieresis" unicode="f&#xe4;" horiz-adv-x="916" 
d="M228 629v-35q23 0 75.5 4.5t67.5 4.5q10 0 16.5 -7.5t6.5 -16.5q0 -23 -29 -23h-137q0 -417 4 -445q6 -47 29 -65.5t86 -18.5q18 0 18 -15q0 -12 -15 -12h-313q-15 0 -15 12q0 14 18 14q42 0 57.5 16t19.5 61q6 84 6 171v43q0 184 -9 238h-65q-29 0 -29 18q0 8 6 14t15 6
h76q0 57 15.5 100t40 68t58 40.5t64.5 20.5t65 5q169 0 169 -83q0 -36 -26.5 -54.5t-67.5 -18.5q0 20 -3 38t-11.5 40t-28.5 35.5t-49 13.5q-47 0 -81 -40t-34 -129zM662 739q0 28 20.5 48t48.5 20t48 -20t20 -48t-20 -48.5t-48 -20.5t-48.5 20.5t-20.5 48.5zM701 307v66
q0 101 -24.5 154t-83.5 53q-44 0 -62.5 -32.5t-18.5 -76.5q0 -25 5 -45q-17 -4 -34 -4q-35 0 -54 19t-19 51q0 53 57 85.5t151 32.5q195 0 195 -166q0 -4 -3 -97t-3 -182q0 -35 0.5 -50.5t4.5 -32.5t12 -22.5t23 -5.5q16 0 26 12t15.5 24t10.5 12q9 0 9 -16
q0 -39 -26.5 -67.5t-77.5 -28.5q-76 0 -104 69q-64 -69 -157 -69q-68 0 -111.5 36.5t-43.5 99.5q0 54 24 91.5t65 56.5t84.5 27t93.5 8q16 0 46 -2zM505 146q0 -44 26 -67t71 -23q52 0 94 30q5 33 5 192h-22q-80 0 -127 -33t-47 -99z" />
    <glyph glyph-name="f_dotlessi" unicode="f&#x131;" horiz-adv-x="680" 
d="M41 593h76q0 71 18 119.5t49.5 72t65 33t74.5 9.5q61 0 99 -20.5t38 -62.5q0 -35 -23.5 -52.5t-62.5 -17.5q0 22 -1.5 37t-7.5 39t-22 37t-42 13q-30 0 -52 -25.5t-22 -83.5v-97h308q45 0 45 -49q0 -6 -2 -80t-2 -148v-43q0 -122 6 -164q4 -29 6 -39.5t9.5 -24
t20.5 -17.5t36 -4q19 0 19 -13q0 -12 -15 -12h-275q-15 0 -15 12q0 13 18 13q43 0 58 19t19 66q6 84 6 164v79q0 110 -10.5 156.5t-50.5 46.5h-181v-282q0 -122 6 -164q4 -29 6 -39.5t9.5 -24t20.5 -17.5t36 -4q19 0 19 -13q0 -12 -15 -12h-275q-15 0 -15 12q0 13 18 13
q43 0 58 19t19 66q6 84 6 164v43q0 184 -9 238h-63q-29 0 -29 18q0 8 6 14t15 6z" />
    <glyph glyph-name="f_f_adieresis" unicode="ff&#xe4;" horiz-adv-x="1262" 
d="M574 629v-35q23 0 75.5 4.5t67.5 4.5q10 0 16.5 -7.5t6.5 -16.5q0 -23 -29 -23h-137q0 -417 4 -445q6 -47 29 -65.5t86 -18.5q18 0 18 -15q0 -12 -15 -12h-313q-15 0 -15 12q0 14 18 14q42 0 57.5 16t19.5 61q6 84 6 171v43q0 184 -9 238h-232q0 -416 4 -444
q6 -45 25.5 -64.5t59.5 -19.5q18 0 18 -15q0 -12 -15 -12h-283q-15 0 -15 12q0 14 18 14q42 0 57.5 16t19.5 61q6 84 6 171v43q0 184 -9 238h-65q-29 0 -29 18q0 8 6 14t15 6h76q0 56 12.5 97.5t32 65.5t48 38.5t55 19t59.5 4.5q127 0 127 -83q0 -35 -23.5 -52.5
t-62.5 -17.5q0 126 -63 126q-30 0 -52 -25.5t-22 -83.5v-89h235q0 57 15.5 100t40 68t58 40.5t64.5 20.5t65 5q169 0 169 -83q0 -36 -26.5 -54.5t-67.5 -18.5q0 20 -3 38t-11.5 40t-28.5 35.5t-49 13.5q-47 0 -81 -40t-34 -129zM1008 739q0 28 20.5 48t48.5 20t48 -20
t20 -48t-20 -48.5t-48 -20.5t-48.5 20.5t-20.5 48.5zM1047 307v66q0 101 -24.5 154t-83.5 53q-44 0 -62.5 -32.5t-18.5 -76.5q0 -25 5 -45q-17 -4 -34 -4q-35 0 -54 19t-19 51q0 53 57 85.5t151 32.5q195 0 195 -166q0 -4 -3 -97t-3 -182q0 -35 0.5 -50.5t4.5 -32.5
t12 -22.5t23 -5.5q16 0 26 12t15.5 24t10.5 12q9 0 9 -16q0 -39 -26.5 -67.5t-77.5 -28.5q-76 0 -104 69q-64 -69 -157 -69q-68 0 -111.5 36.5t-43.5 99.5q0 54 24 91.5t65 56.5t84.5 27t93.5 8q16 0 46 -2zM851 146q0 -44 26 -67t71 -23q52 0 94 30q5 33 5 192h-22
q-80 0 -127 -33t-47 -99z" />
    <glyph glyph-name="f_f_dotlessi" unicode="ff&#x131;" horiz-adv-x="1026" 
d="M228 593h235q0 71 18 119.5t49.5 72t65 33t74.5 9.5q61 0 99 -20.5t38 -62.5q0 -35 -23.5 -52.5t-62.5 -17.5q0 22 -1.5 37t-7.5 39t-22 37t-42 13q-30 0 -52 -25.5t-22 -83.5v-97h308q45 0 45 -49q0 -6 -2 -80t-2 -148v-43q0 -122 6 -164q4 -29 6 -39.5t9.5 -24
t20.5 -17.5t36 -4q19 0 19 -13q0 -12 -15 -12h-275q-15 0 -15 12q0 13 18 13q43 0 58 19t19 66q6 84 6 164v79q0 110 -10.5 156.5t-50.5 46.5h-181v-282q0 -122 6 -164q4 -29 6 -39.5t9.5 -24t20.5 -17.5t36 -4q19 0 19 -13q0 -12 -15 -12h-275q-15 0 -15 12q0 13 18 13
q43 0 58 19t19 66q6 84 6 164v43q0 184 -9 238h-230q0 -416 4 -444q6 -45 25.5 -64.5t59.5 -19.5q18 0 18 -15q0 -12 -15 -12h-283q-15 0 -15 12q0 14 18 14q42 0 57.5 16t19.5 61q6 84 6 171v43q0 184 -9 238h-65q-29 0 -29 18q0 8 6 14t15 6h76q0 56 12.5 97.5t32 65.5
t48 38.5t55 19t59.5 4.5q127 0 127 -83q0 -35 -23.5 -52.5t-62.5 -17.5q0 126 -63 126q-30 0 -52 -25.5t-22 -83.5v-89z" />
    <glyph glyph-name="f_f_idieresis" unicode="ff&#xef;" horiz-adv-x="1026" 
d="M228 593h235q0 71 18 119.5t49.5 72t65 33t74.5 9.5q61 0 99 -20.5t38 -62.5q0 -35 -23.5 -52.5t-62.5 -17.5q0 22 -1.5 37t-7.5 39t-22 37t-42 13q-30 0 -52 -25.5t-22 -83.5v-97h308q45 0 45 -49q0 -6 -2 -80t-2 -148v-43q0 -122 6 -164q4 -29 6 -39.5t9.5 -24
t20.5 -17.5t36 -4q19 0 19 -13q0 -12 -15 -12h-275q-15 0 -15 12q0 13 18 13q43 0 58 19t19 66q6 84 6 164v79q0 110 -10.5 156.5t-50.5 46.5h-181v-282q0 -122 6 -164q4 -29 6 -39.5t9.5 -24t20.5 -17.5t36 -4q19 0 19 -13q0 -12 -15 -12h-275q-15 0 -15 12q0 13 18 13
q43 0 58 19t19 66q6 84 6 164v43q0 184 -9 238h-230q0 -416 4 -444q6 -45 25.5 -64.5t59.5 -19.5q18 0 18 -15q0 -12 -15 -12h-283q-15 0 -15 12q0 14 18 14q42 0 57.5 16t19.5 61q6 84 6 171v43q0 184 -9 238h-65q-29 0 -29 18q0 8 6 14t15 6h76q0 56 12.5 97.5t32 65.5
t48 38.5t55 19t59.5 4.5q127 0 127 -83q0 -35 -23.5 -52.5t-62.5 -17.5q0 126 -63 126q-30 0 -52 -25.5t-22 -83.5v-89zM874 739q0 28 20.5 48t48.5 20t48 -20t20 -48t-20 -48.5t-48 -20.5t-48.5 20.5t-20.5 48.5z" />
    <glyph glyph-name="f_idieresis" unicode="f&#xef;" horiz-adv-x="680" 
d="M41 593h76q0 71 18 119.5t49.5 72t65 33t74.5 9.5q61 0 99 -20.5t38 -62.5q0 -35 -23.5 -52.5t-62.5 -17.5q0 22 -1.5 37t-7.5 39t-22 37t-42 13q-30 0 -52 -25.5t-22 -83.5v-97h308q45 0 45 -49q0 -6 -2 -80t-2 -148v-43q0 -122 6 -164q4 -29 6 -39.5t9.5 -24
t20.5 -17.5t36 -4q19 0 19 -13q0 -12 -15 -12h-275q-15 0 -15 12q0 13 18 13q43 0 58 19t19 66q6 84 6 164v79q0 110 -10.5 156.5t-50.5 46.5h-181v-282q0 -122 6 -164q4 -29 6 -39.5t9.5 -24t20.5 -17.5t36 -4q19 0 19 -13q0 -12 -15 -12h-275q-15 0 -15 12q0 13 18 13
q43 0 58 19t19 66q6 84 6 164v43q0 184 -9 238h-63q-29 0 -29 18q0 8 6 14t15 6zM528 739q0 28 20.5 48t48.5 20t48 -20t20 -48t-20 -48.5t-48 -20.5t-48.5 20.5t-20.5 48.5z" />
    <glyph glyph-name="f_t_t" unicode="ftt" horiz-adv-x="1077" 
d="M562 554v-420q0 -84 56 -84q29 0 49.5 20.5t25.5 53.5q3 17 13 17q12 0 12 -19q0 -64 -38 -98.5t-94 -34.5q-142 0 -142 139q0 52 3.5 216.5t3.5 211.5h-223q0 -417 4 -445q6 -47 29 -65.5t86 -18.5q18 0 18 -15q0 -12 -15 -12h-313q-15 0 -15 12q0 14 18 14
q42 0 57.5 16t19.5 61q6 84 6 171v43q0 184 -9 238h-65q-29 0 -29 18q0 8 6 14t15 6h76q0 71 18 119.5t49.5 72t65 33t74.5 9.5q61 0 99 -20.5t38 -62.5q0 -35 -23.5 -52.5t-62.5 -17.5q0 22 -1.5 37t-7.5 39t-22 37t-42 13q-30 0 -52 -25.5t-22 -83.5v-97h182q40 0 54 21
l64 90q10 15 21 15q13 0 13 -20v-108h192q40 0 54 21l64 90q10 15 21 15q13 0 13 -20v-108q22 0 70.5 4t63.5 4q12 0 19.5 -6.5t7.5 -15.5q0 -22 -33 -22h-128v-419q0 -84 56 -84q29 0 49.5 20.5t25.5 53.5q3 17 13 17q12 0 12 -19q0 -64 -38 -98.5t-94 -34.5
q-142 0 -142 139q0 52 3.5 215t3.5 210h-233z" />
    <glyph glyph-name="t_t" unicode="tt" horiz-adv-x="707" 
d="M192 554v-420q0 -84 56 -84q29 0 49.5 20.5t25.5 53.5q3 17 13 17q12 0 12 -19q0 -64 -38 -98.5t-94 -34.5q-142 0 -142 139q0 52 3.5 216t3.5 211h-49q-12 0 -12 9q0 7 11 18l127 125q15 13 21 13q13 0 13 -20v-108h192q40 0 54 21l64 90q10 15 21 15q13 0 13 -20v-108
q22 0 70.5 4t63.5 4q12 0 19.5 -6.5t7.5 -15.5q0 -22 -33 -22h-128v-422q0 -84 56 -84q29 0 49.5 20.5t25.5 53.5q3 17 13 17q12 0 12 -19q0 -64 -38 -98.5t-94 -34.5q-142 0 -142 139q0 52 3.5 216.5t3.5 211.5h-233z" />
    <glyph glyph-name="f_b" unicode="fb" horiz-adv-x="993" 
d="M463 375v252q0 77 -32.5 118.5t-87.5 41.5q-115 0 -115 -166v-27q23 0 75.5 4.5t67.5 4.5q10 0 16.5 -7.5t6.5 -16.5q0 -23 -29 -23h-137q0 -417 4 -445q6 -45 25.5 -64.5t59.5 -19.5q18 0 18 -15q0 -12 -15 -12h-283q-15 0 -15 12q0 14 18 14q42 0 57.5 16t19.5 61
q6 84 6 171v43q0 184 -9 238h-65q-29 0 -29 18q0 8 6 14t15 6h76q0 226 218 226q77 0 124 -42q18 7 37 17.5l31 17.5t18 7q27 0 27 -37v-286q50 57 91.5 85.5t98.5 28.5q73 0 121 -42.5t66.5 -103.5t18.5 -138q0 -149 -84.5 -242.5t-222.5 -93.5q-58 0 -108 11t-73 30
q-24 20 -24 62q0 8 2 45t3.5 101t1.5 136zM572 456l1 -318q0 -46 29 -77t81 -31q81 0 124.5 75.5t43.5 192.5q0 239 -131 239q-65 0 -148 -81z" />
    <glyph glyph-name="f_f_b" unicode="ffb" horiz-adv-x="1337" 
d="M891 819q25 0 25 -37v-286q50 57 91.5 85.5t98.5 28.5q73 0 121 -42.5t66.5 -103.5t18.5 -138q0 -149 -84.5 -242.5t-222.5 -93.5q-58 0 -108 11t-73 30q-24 20 -24 62q0 8 2 45t3.5 101t1.5 136v252q0 77 -31.5 118.5t-86.5 41.5q-115 0 -115 -166v-27q23 0 75.5 4.5
t67.5 4.5q10 0 16.5 -7.5t6.5 -16.5q0 -23 -29 -23h-137q0 -417 4 -445q6 -45 25.5 -64.5t59.5 -19.5q18 0 18 -15q0 -12 -15 -12h-283q-15 0 -15 12q0 14 18 14q42 0 57.5 16t19.5 61q6 84 6 171v43q0 184 -9 238h-232q0 -416 4 -444q6 -45 25.5 -64.5t59.5 -19.5
q18 0 18 -15q0 -12 -15 -12h-283q-15 0 -15 12q0 14 18 14q42 0 57.5 16t19.5 61q6 84 6 171v43q0 184 -9 238h-65q-29 0 -29 18q0 8 6 14t15 6h76q0 56 12.5 97.5t32 65.5t48 38.5t55 19t59.5 4.5q127 0 127 -83q0 -35 -23.5 -52.5t-62.5 -17.5q0 126 -63 126
q-30 0 -52 -25.5t-22 -83.5v-89h235q0 226 218 226q77 0 124 -42q18 7 37 17.5l31 17.5t18 7zM916 456l1 -318q0 -46 29 -77t81 -31q81 0 124.5 75.5t43.5 192.5q0 239 -131 239q-65 0 -148 -81z" />
    <glyph glyph-name="f_f_h" unicode="ffh" horiz-adv-x="1367" 
d="M918 782v-295l32 27q40 33 63 50t57 31.5t68 14.5q61 0 96.5 -42t35.5 -108v-357q0 -44 16 -60.5t57 -16.5q18 0 18 -14q0 -12 -15 -12h-271q-15 0 -15 12q0 14 18 14q32 0 47 19t22.5 76.5t7.5 175.5q0 101 -10.5 156t-26.5 71t-44 16q-9 0 -18.5 -1.5t-20.5 -7.5
t-18.5 -9.5t-22 -14.5l-21.5 -16.5l-27 -21.5l-28 -22v-173q0 -136 5 -171q6 -48 18.5 -62.5t54.5 -14.5q18 0 18 -14q0 -12 -15 -12h-277q-15 0 -15 12q0 14 18 14q42 0 57.5 16t19.5 61q6 84 6 171v353q0 77 -32 118.5t-87 41.5q-115 0 -115 -166v-27q23 0 75.5 4.5
t67.5 4.5q10 0 16.5 -7.5t6.5 -16.5q0 -23 -29 -23h-137q0 -417 4 -445q6 -45 25.5 -64.5t59.5 -19.5q18 0 18 -15q0 -12 -15 -12h-283q-15 0 -15 12q0 14 18 14q42 0 57.5 16t19.5 61q6 84 6 171v43q0 184 -9 238h-232q0 -416 4 -444q6 -45 25.5 -64.5t59.5 -19.5
q18 0 18 -15q0 -12 -15 -12h-283q-15 0 -15 12q0 14 18 14q42 0 57.5 16t19.5 61q6 84 6 171v43q0 184 -9 238h-65q-29 0 -29 18q0 8 6 14t15 6h76q0 56 12.5 97.5t32 65.5t48 38.5t55 19t59.5 4.5q127 0 127 -83q0 -35 -23.5 -52.5t-62.5 -17.5q0 126 -63 126
q-30 0 -52 -25.5t-22 -83.5v-89h235q0 226 218 226q77 0 124 -42q18 7 37 17.5l31 17.5t18 7q27 0 27 -37z" />
    <glyph glyph-name="f_f_j" unicode="ffj" horiz-adv-x="968" 
d="M574 650v-56h278q45 0 45 -49q0 -6 -2 -80t-2 -148v-111q0 -34 5 -113.5t5 -112.5q0 -92 -60 -141.5t-158 -49.5q-20 0 -20 16q0 14 19 14q60 0 81 25.5t21 84.5v424q0 110 -10.5 156.5t-50.5 46.5h-151v-282q0 -121 6 -163q6 -48 27.5 -66t83.5 -18q18 0 18 -15
q0 -12 -15 -12h-313q-15 0 -15 12q0 14 18 14q42 0 57.5 16t19.5 61q6 84 6 171v43q0 184 -9 238h-230q0 -416 4 -444q6 -45 25.5 -64.5t59.5 -19.5q18 0 18 -15q0 -12 -15 -12h-283q-15 0 -15 12q0 14 18 14q42 0 57.5 16t19.5 61q6 84 6 171v43q0 184 -9 238h-65
q-29 0 -29 18q0 8 6 14t15 6h76q0 56 12.5 97.5t32 65.5t48 38.5t55 19t59.5 4.5q127 0 127 -83q0 -35 -23.5 -52.5t-62.5 -17.5q0 126 -63 126q-30 0 -52 -25.5t-22 -83.5v-89h235q0 70 21 119.5t57 72.5t71.5 32.5t77.5 9.5q74 0 119 -22.5t45 -65.5q0 -35 -25 -52.5
t-64 -17.5q0 26 -6 52.5t-28.5 52.5t-59.5 26q-97 0 -97 -150z" />
    <glyph glyph-name="f_f_k" unicode="ffk" horiz-adv-x="1318" 
d="M228 593h235q0 226 218 226q77 0 124 -42q18 7 37 17.5l31 17.5t18 7q27 0 27 -37v-508q0 -136 5 -171q6 -48 18.5 -62.5t54.5 -14.5q18 0 18 -14q0 -12 -15 -12h-277q-15 0 -15 12q0 14 18 14q42 0 57.5 16t19.5 61q6 84 6 171v353q0 77 -32 118.5t-87 41.5
q-115 0 -115 -166v-27q23 0 75.5 4.5t67.5 4.5q10 0 16.5 -7.5t6.5 -16.5q0 -23 -29 -23h-137q0 -417 4 -445q6 -45 25.5 -64.5t59.5 -19.5q18 0 18 -15q0 -12 -15 -12h-283q-15 0 -15 12q0 14 18 14q42 0 57.5 16t19.5 61q6 84 6 171v43q0 184 -9 238h-232q0 -416 4 -444
q6 -45 25.5 -64.5t59.5 -19.5q18 0 18 -15q0 -12 -15 -12h-283q-15 0 -15 12q0 14 18 14q42 0 57.5 16t19.5 61q6 84 6 171v43q0 184 -9 238h-65q-29 0 -29 18q0 8 6 14t15 6h76q0 56 12.5 97.5t32 65.5t48 38.5t55 19t59.5 4.5q127 0 127 -83q0 -35 -23.5 -52.5
t-62.5 -17.5q0 126 -63 126q-30 0 -52 -25.5t-22 -83.5v-89zM1063 598h241q16 0 16 -11q0 -13 -17 -13q-41 0 -63 -11t-54 -42l-162 -158q180 -284 253 -327q17 -10 34.5 -12.5t24.5 -3t7 -6.5q0 -11 -44.5 -20.5t-94.5 -9.5q-34 0 -61 20.5t-71 83.5t-128 203q-6 11 -6 18
q0 10 13 23l174 187q8 8 8 18q0 15 -19.5 26t-54.5 11q-6 0 -10 4t-4 9q0 11 18 11z" />
    <glyph glyph-name="f_h" unicode="fh" horiz-adv-x="1021" 
d="M572 782v-295l32 27q40 33 63 50t57 31.5t68 14.5q61 0 96.5 -42t35.5 -108v-357q0 -44 16 -60.5t57 -16.5q18 0 18 -14q0 -12 -15 -12h-271q-15 0 -15 12q0 14 18 14q32 0 47 19t22.5 76.5t7.5 175.5q0 101 -10.5 156t-26.5 71t-44 16q-9 0 -18.5 -1.5t-20.5 -7.5
t-18.5 -9.5t-22 -14.5l-21.5 -16.5l-27 -21.5l-28 -22v-173q0 -136 5 -171q6 -48 18.5 -62.5t54.5 -14.5q18 0 18 -14q0 -12 -15 -12h-277q-15 0 -15 12q0 14 18 14q42 0 57.5 16t19.5 61q6 84 6 171v353q0 77 -32 118.5t-87 41.5q-115 0 -115 -166v-27q23 0 75.5 4.5
t67.5 4.5q10 0 16.5 -7.5t6.5 -16.5q0 -23 -29 -23h-137q0 -417 4 -445q6 -45 25.5 -64.5t59.5 -19.5q18 0 18 -15q0 -12 -15 -12h-283q-15 0 -15 12q0 14 18 14q42 0 57.5 16t19.5 61q6 84 6 171v43q0 184 -9 238h-65q-29 0 -29 18q0 8 6 14t15 6h76q0 226 218 226
q77 0 124 -42q18 7 37 17.5l31 17.5t18 7q27 0 27 -37z" />
    <glyph glyph-name="f_j" unicode="fj" horiz-adv-x="622" 
d="M232 111q6 -48 28.5 -66t84.5 -18q18 0 18 -15q0 -12 -15 -12h-313q-15 0 -15 12q0 14 18 14q42 0 57.5 16t19.5 61q6 84 6 171v43q0 184 -9 238h-63q-29 0 -29 18q0 8 6 14t15 6h76q0 70 21 119.5t57 72.5t71.5 32.5t77.5 9.5q74 0 119 -22.5t45 -65.5q0 -35 -25 -52.5
t-64 -17.5q0 26 -6 52.5t-28.5 52.5t-59.5 26q-97 0 -97 -150v-56h278q45 0 45 -49q0 -6 -2 -80t-2 -148v-111q0 -34 5 -113.5t5 -112.5q0 -92 -60 -141.5t-158 -49.5q-20 0 -20 16q0 14 19 14q60 0 81 25.5t21 84.5v424q0 110 -10.5 156.5t-50.5 46.5h-151v-282
q0 -135 4 -163z" />
    <glyph glyph-name="f_k" unicode="fk" horiz-adv-x="973" 
d="M41 593h76q0 226 218 226q77 0 124 -42q18 7 37 17.5l31 17.5t18 7q27 0 27 -37v-508q0 -136 5 -171q6 -48 18.5 -62.5t54.5 -14.5q18 0 18 -14q0 -12 -15 -12h-277q-15 0 -15 12q0 14 18 14q42 0 57.5 16t19.5 61q6 84 6 171v353q0 77 -32 118.5t-87 41.5
q-115 0 -115 -166v-27q23 0 75.5 4.5t67.5 4.5q10 0 16.5 -7.5t6.5 -16.5q0 -23 -29 -23h-137q0 -417 4 -445q6 -45 25.5 -64.5t59.5 -19.5q18 0 18 -15q0 -12 -15 -12h-283q-15 0 -15 12q0 14 18 14q42 0 57.5 16t19.5 61q6 84 6 171v43q0 184 -9 238h-65q-29 0 -29 18
q0 8 6 14t15 6zM718 598h241q16 0 16 -11q0 -13 -17 -13q-41 0 -63 -11t-54 -42l-162 -158q180 -284 253 -327q17 -10 34.5 -12.5t24.5 -3t7 -6.5q0 -11 -44.5 -20.5t-94.5 -9.5q-34 0 -61 20.5t-71 83.5t-128 203q-6 11 -6 18q0 10 13 23l174 187q8 8 8 18q0 15 -19.5 26
t-54.5 11q-6 0 -10 4t-4 9q0 11 18 11z" />
    <glyph glyph-name="f_t" unicode="ft" horiz-adv-x="733" 
d="M228 594h182q40 0 54 21l64 90q10 15 21 15q13 0 13 -20v-108q22 0 70.5 4t63.5 4q12 0 19.5 -6.5t7.5 -15.5q0 -22 -33 -22h-128v-422q0 -84 56 -84q29 0 49.5 20.5t25.5 53.5q3 17 13 17q12 0 12 -19q0 -64 -38 -98.5t-94 -34.5q-142 0 -142 139q0 52 3.5 216.5
t3.5 211.5h-223q0 -417 4 -445q6 -47 29 -65.5t86 -18.5q18 0 18 -15q0 -12 -15 -12h-313q-15 0 -15 12q0 14 18 14q42 0 57.5 16t19.5 61q6 84 6 171v43q0 184 -9 238h-65q-29 0 -29 18q0 8 6 14t15 6h76q0 71 18 119.5t49.5 72t65 33t74.5 9.5q61 0 99 -20.5t38 -62.5
q0 -35 -23.5 -52.5t-62.5 -17.5q0 22 -1.5 37t-7.5 39t-22 37t-42 13q-30 0 -52 -25.5t-22 -83.5v-97z" />
    <glyph glyph-name="f_f_t" unicode="fft" horiz-adv-x="1079" 
d="M797 556h-223q0 -417 4 -445q6 -47 29 -65.5t86 -18.5q18 0 18 -15q0 -12 -15 -12h-313q-15 0 -15 12q0 14 18 14q42 0 57.5 16t19.5 61q6 84 6 171v43q0 184 -9 238h-232q0 -416 4 -444q6 -45 25.5 -64.5t59.5 -19.5q18 0 18 -15q0 -12 -15 -12h-283q-15 0 -15 12
q0 14 18 14q42 0 57.5 16t19.5 61q6 84 6 171v43q0 184 -9 238h-65q-29 0 -29 18q0 8 6 14t15 6h76q0 56 12.5 97.5t32 65.5t48 38.5t55 19t59.5 4.5q127 0 127 -83q0 -35 -23.5 -52.5t-62.5 -17.5q0 126 -63 126q-30 0 -52 -25.5t-22 -83.5v-89h235q0 71 18 119.5t49.5 72
t65 33t74.5 9.5q61 0 99 -20.5t38 -62.5q0 -35 -23.5 -52.5t-62.5 -17.5q0 22 -1.5 37t-7.5 39t-22 37t-42 13q-30 0 -52 -25.5t-22 -83.5v-97h182q40 0 54 21l64 90q10 15 21 15q13 0 13 -20v-108q22 0 70.5 4t63.5 4q12 0 19.5 -6.5t7.5 -15.5q0 -22 -33 -22h-128v-422
q0 -84 56 -84q29 0 49.5 20.5t25.5 53.5q3 17 13 17q12 0 12 -19q0 -64 -38 -98.5t-94 -34.5q-142 0 -142 139q0 52 3.5 216.5t3.5 211.5z" />
    <glyph glyph-name="T_h" unicode="Th" horiz-adv-x="1235" 
d="M36 765h572q41 0 70.5 8.5t42 18.5t24.5 18.5t21 8.5q20 0 20 -25v-307l32 27q40 33 63 50t57 31.5t68 14.5q61 0 96.5 -42t35.5 -108v-357q0 -44 16 -60.5t57 -16.5q18 0 18 -14q0 -12 -15 -12h-271q-15 0 -15 12q0 14 18 14q32 0 47 19t22.5 76.5t7.5 175.5
q0 101 -10.5 156t-26.5 71t-44 16q-9 0 -18.5 -1.5t-20.5 -7.5t-18.5 -9.5t-22 -14.5l-21.5 -16.5l-27 -21.5l-28 -22v-173q0 -136 5 -171q6 -48 18.5 -62.5t54.5 -14.5q18 0 18 -14q0 -12 -15 -12h-277q-15 0 -15 12q0 14 18 14q42 0 57.5 16t19.5 61q6 84 6 171v321
q0 81 -11.5 105.5t-53.5 24.5h-210v-379q0 -180 6 -236q5 -45 30.5 -64t80.5 -19q19 0 19 -15q0 -12 -15 -12h-358q-15 0 -15 12q0 15 18 15q58 0 82 19t28 64q6 84 6 237v378h-92q-63 0 -103 -46t-40 -98q0 -13 -15 -13q-12 0 -12 12v169q0 10 3.5 13t11.5 3z" />
    <glyph glyph-name="ff" unicode="ff" horiz-adv-x="717" 
d="M228 593h235q0 71 18 119.5t49.5 72t65 33t74.5 9.5q61 0 99 -20.5t38 -62.5q0 -35 -23.5 -52.5t-62.5 -17.5q0 22 -1.5 37t-7.5 39t-22 37t-42 13q-30 0 -52 -25.5t-22 -83.5v-97q23 0 75.5 4.5t67.5 4.5q10 0 16.5 -7.5t6.5 -16.5q0 -23 -29 -23h-137q0 -417 4 -445
q6 -47 29 -65.5t86 -18.5q18 0 18 -15q0 -12 -15 -12h-313q-15 0 -15 12q0 14 18 14q42 0 57.5 16t19.5 61q6 84 6 171v43q0 184 -9 238h-232q0 -416 4 -444q6 -45 25.5 -64.5t59.5 -19.5q18 0 18 -15q0 -12 -15 -12h-283q-15 0 -15 12q0 14 18 14q42 0 57.5 16t19.5 61
q6 84 6 171v43q0 184 -9 238h-65q-29 0 -29 18q0 8 6 14t15 6h76q0 56 12.5 97.5t32 65.5t48 38.5t55 19t59.5 4.5q127 0 127 -83q0 -35 -23.5 -52.5t-62.5 -17.5q0 126 -63 126q-30 0 -52 -25.5t-22 -83.5v-89z" />
    <glyph glyph-name="fi" unicode="fi" horiz-adv-x="680" 
d="M228 556v-282q0 -122 6 -164q4 -29 6 -39.5t9.5 -24t20.5 -17.5t36 -4q19 0 19 -13q0 -12 -15 -12h-275q-15 0 -15 12q0 13 18 13q43 0 58 19t19 66q6 84 6 164v43q0 184 -9 238h-63q-29 0 -29 18q0 8 6 14t15 6h76q0 70 21 119.5t57 72.5t71.5 32.5t77.5 9.5
q74 0 119 -22.5t45 -65.5q0 -35 -25 -52.5t-64 -17.5q0 26 -6 52.5t-28.5 52.5t-59.5 26q-97 0 -97 -150v-56h308q45 0 45 -49q0 -6 -2 -80t-2 -148v-43q0 -122 6 -164q4 -29 6 -39.5t9.5 -24t20.5 -17.5t36 -4q19 0 19 -13q0 -12 -15 -12h-275q-15 0 -15 12q0 13 18 13
q43 0 58 19t19 66q6 84 6 164v79q0 110 -10.5 156.5t-50.5 46.5h-181z" />
    <glyph glyph-name="fl" unicode="fl" horiz-adv-x="679" 
d="M41 593h76q0 226 218 226q77 0 124 -42q18 7 37 17.5l31 17.5t18 7q27 0 27 -37v-508q0 -136 5 -171q6 -48 18.5 -62.5t54.5 -14.5q18 0 18 -14q0 -12 -15 -12h-277q-15 0 -15 12q0 14 18 14q42 0 57.5 16t19.5 61q6 84 6 171v353q0 77 -32 118.5t-87 41.5
q-115 0 -115 -166v-27q23 0 75.5 4.5t67.5 4.5q10 0 16.5 -7.5t6.5 -16.5q0 -23 -29 -23h-137q0 -417 4 -445q6 -45 25.5 -64.5t59.5 -19.5q18 0 18 -15q0 -12 -15 -12h-283q-15 0 -15 12q0 14 18 14q42 0 57.5 16t19.5 61q6 84 6 171v43q0 184 -9 238h-65q-29 0 -29 18
q0 8 6 14t15 6z" />
    <glyph glyph-name="ffi" unicode="ffi" horiz-adv-x="1026" 
d="M458 555h-230q0 -416 4 -444q6 -45 25.5 -64.5t59.5 -19.5q18 0 18 -15q0 -12 -15 -12h-283q-15 0 -15 12q0 14 18 14q42 0 57.5 16t19.5 61q6 84 6 171v43q0 184 -9 238h-65q-29 0 -29 18q0 8 6 14t15 6h76q0 56 12.5 97.5t32 65.5t48 38.5t55 19t59.5 4.5
q127 0 127 -83q0 -35 -23.5 -52.5t-62.5 -17.5q0 126 -63 126q-30 0 -52 -25.5t-22 -83.5v-89h235q0 70 21 119.5t57 72.5t71.5 32.5t77.5 9.5q74 0 119 -22.5t45 -65.5q0 -35 -25 -52.5t-64 -17.5q0 26 -6 52.5t-28.5 52.5t-59.5 26q-97 0 -97 -150v-56h308q45 0 45 -49
q0 -6 -2 -80t-2 -148v-43q0 -122 6 -164q4 -29 6 -39.5t9.5 -24t20.5 -17.5t36 -4q19 0 19 -13q0 -12 -15 -12h-275q-15 0 -15 12q0 13 18 13q43 0 58 19t19 66q6 84 6 164v79q0 110 -10.5 156.5t-50.5 46.5h-181v-282q0 -122 6 -164q4 -29 6 -39.5t9.5 -24t20.5 -17.5
t36 -4q19 0 19 -13q0 -12 -15 -12h-275q-15 0 -15 12q0 13 18 13q43 0 58 19t19 66q6 84 6 164v43q0 184 -9 238z" />
    <glyph glyph-name="ffl" unicode="ffl" horiz-adv-x="1025" 
d="M228 593h235q0 226 218 226q77 0 124 -42q18 7 37 17.5l31 17.5t18 7q27 0 27 -37v-508q0 -136 5 -171q6 -48 18.5 -62.5t54.5 -14.5q18 0 18 -14q0 -12 -15 -12h-277q-15 0 -15 12q0 14 18 14q42 0 57.5 16t19.5 61q6 84 6 171v353q0 77 -32 118.5t-87 41.5
q-115 0 -115 -166v-27q23 0 75.5 4.5t67.5 4.5q10 0 16.5 -7.5t6.5 -16.5q0 -23 -29 -23h-137q0 -417 4 -445q6 -45 25.5 -64.5t59.5 -19.5q18 0 18 -15q0 -12 -15 -12h-283q-15 0 -15 12q0 14 18 14q42 0 57.5 16t19.5 61q6 84 6 171v43q0 184 -9 238h-232q0 -416 4 -444
q6 -45 25.5 -64.5t59.5 -19.5q18 0 18 -15q0 -12 -15 -12h-283q-15 0 -15 12q0 14 18 14q42 0 57.5 16t19.5 61q6 84 6 171v43q0 184 -9 238h-65q-29 0 -29 18q0 8 6 14t15 6h76q0 56 12.5 97.5t32 65.5t48 38.5t55 19t59.5 4.5q127 0 127 -83q0 -35 -23.5 -52.5
t-62.5 -17.5q0 126 -63 126q-30 0 -52 -25.5t-22 -83.5v-89z" />
    <glyph glyph-name=".notdef" horiz-adv-x="846" 
d="M273 463v225h-24v-165l-152 165h-35l30 -34v-189h24v166l155 -169zM352 577q0 38 25.5 65.5t62.5 27.5t63.5 -27.5t26.5 -65.5t-26.5 -66t-63.5 -28t-62.5 28t-25.5 66zM327 577q0 -48 32.5 -81.5t80.5 -33.5q47 0 80 33.5t33 81.5q0 47 -33 81t-80 34q-48 0 -80.5 -33.5
t-32.5 -81.5zM424 575q0 -17 18 -17q7 0 12 5t5 12t-5 12t-12 5q-18 0 -18 -17zM647 666v-201h24v201h77l-2 22h-173l-2 -22h76zM98 109h56q56 0 91.5 29t35.5 83q0 59 -37.5 85t-92.5 26q-34 0 -53 -4v-219zM148 130h-27v179l10 1q56 5 90 -17.5t34 -71.5
q0 -44 -28.5 -67.5t-78.5 -23.5zM523 125l1 25q-25 -22 -73 -22q-35 0 -61 24.5t-30 59.5h145l3 22h-148q5 34 29.5 57.5t57.5 23.5q41 0 77 -26v27q-31 21 -75 21q-48 0 -80.5 -33.5t-32.5 -81.5t32.5 -81.5t80.5 -33.5q50 0 74 18zM629 109v106h91v22h-91v72h109l-2 22
h-131v-222h24zM732 129q0 -9 6 -15t15 -6t15 6t6 15t-6 15t-15 6t-15 -6t-6 -15zM-3 0v779h846v-779h-846z" />
    <glyph glyph-name=".null" horiz-adv-x="0" 
 />
    <glyph glyph-name="nonmarkingreturn" horiz-adv-x="333" 
 />
    <glyph glyph-name="space" unicode=" " horiz-adv-x="206" 
 />
    <glyph glyph-name="exclam" unicode="!" horiz-adv-x="270" 
d="M68 62q0 29 20 49.5t49 20.5t50 -20.5t21 -49.5t-21 -49t-50 -20t-49 20t-20 49zM79 765h116q15 0 15 -17q0 -10 -8 -58.5t-21.5 -167t-24.5 -279.5q-2 -24 -20 -24q-15 0 -17 24q-10 161 -25 279.5t-24.5 168t-9.5 58.5q0 16 19 16z" />
    <glyph glyph-name="quotedbl" unicode="&#x22;" horiz-adv-x="312" 
d="M164 768q0 -55 -29.5 -148.5t-58.5 -93.5q-9 0 -16 8q21 62 21 125q0 38 -3.5 74.5t-3.5 39.5q0 15 13 15h60q17 0 17 -20zM282 768q0 -55 -29.5 -148.5t-58.5 -93.5q-9 0 -16 8q21 62 21 125q0 38 -3.5 74.5t-3.5 39.5q0 15 13 15h60q17 0 17 -20z" />
    <glyph glyph-name="numbersign" unicode="#" horiz-adv-x="760" 
d="M667 206h-201l-55 -195q-7 -23 -27 -23q-22 0 -22 25q0 3 2 13l52 180h-135l-55 -195q-7 -23 -27 -23q-22 0 -22 25q0 3 2 13l52 180h-167q-11 0 -17.5 6.5t-6.5 15.5q0 22 23 22h180l33 114h-182q-11 0 -17.5 6.5t-6.5 15.5q0 22 23 22h196l52 181q6 21 25 21
q22 0 22 -25q0 -3 -2 -13l-47 -164h135l52 181q6 21 25 21q22 0 22 -25q0 -3 -2 -13l-47 -164h171q12 0 18.5 -7t6.5 -16q0 -21 -23 -21h-186l-32 -114h186q12 0 18.5 -7t6.5 -16q0 -21 -23 -21zM326 364l-32 -114h134l33 114h-135z" />
    <glyph glyph-name="dollar" unicode="$" horiz-adv-x="476" 
d="M47 171q30 -77 67 -111t97 -34h20v215l-57 27.5t-50.5 30t-49 40.5t-29 49t-13.5 65q0 75 56 113t143 43v76q0 20 16 20q17 0 17 -20v-75q84 -2 148 -25q11 -5 11 -16v-126q0 -6 -5.5 -10t-11.5 -4q-15 0 -15 16q-1 51 -37 86.5t-90 41.5v-215l53 -26t46.5 -28
t44.5 -36.5t26 -43.5t12 -58q0 -78 -50.5 -120.5t-131.5 -52.5v-63q0 -22 -16 -22q-17 0 -17 22v61q-7 -1 -20 -1q-85 0 -168 27q-11 5 -12 24q-1 8 -4 40.5t-5 58.5t-2 29q0 12 13 12q10 0 14 -10zM133 483q0 -35 25 -60t73 -49v200q-98 -5 -98 -91zM354 127q0 30 -23 53
t-67 45v-194q90 20 90 96z" />
    <glyph glyph-name="percent" unicode="%" horiz-adv-x="872" 
d="M26 576q0 99 41.5 147.5t112.5 48.5q72 0 113 -49.5t41 -146.5q0 -193 -154 -193q-72 0 -113 47t-41 146zM180 748q-41 0 -56 -43t-15 -124q0 -85 15.5 -129t55.5 -44t56 41.5t16 122.5q0 86 -16 131t-56 45zM184 19l466 746q8 13 20 13q15 0 15 -16q0 -8 -6 -19
l-465 -748q-8 -12 -20 -12q-16 0 -16 16q0 10 6 20zM538 186q0 99 41.5 147.5t112.5 48.5q72 0 113 -49.5t41 -146.5q0 -193 -154 -193q-72 0 -113 47t-41 146zM692 358q-41 0 -56 -43t-15 -124q0 -85 15.5 -129t55.5 -44t56 41.5t16 122.5q0 86 -16 131t-56 45z" />
    <glyph glyph-name="ampersand" unicode="&#x26;" horiz-adv-x="639" 
d="M437 312q-26 0 -40 -15t-14 -38q0 -35 27 -66q-28 -16 -57 -16q-27 0 -44 15.5t-17 46.5q0 41 31 62.5t70 28.5l144 25q46 8 46 50q0 17 -10 32.5t-26 22.5q22 29 56 29q28 0 49 -18.5t21 -48.5q0 -72 -110 -90l-65 -11q76 -25 76 -123q0 -36 -16 -71.5t-47.5 -67.5
t-87.5 -52t-128 -20q-127 0 -196 59t-69 159q0 85 50 141.5t142 66.5q-29 2 -55.5 11.5t-51 28t-39 50t-14.5 73.5q0 94 67 146.5t174 52.5q79 0 128.5 -36t49.5 -105q0 -44 -27.5 -71t-65.5 -27q-59 0 -68 61q85 7 85 66q0 38 -25 60t-62 22q-67 0 -103 -43t-36 -106
q0 -80 34.5 -127t102.5 -47h28q16 0 16 -14q0 -13 -15 -13h-32q-154 0 -154 -184q0 -84 45 -136t122 -52q50 0 88.5 18.5t58 47.5t28.5 56.5t9 52.5q0 50 -19.5 82t-53.5 32z" />
    <glyph glyph-name="quotesingle" unicode="'" horiz-adv-x="194" 
d="M164 768q0 -55 -29.5 -148.5t-58.5 -93.5q-9 0 -16 8q21 62 21 125q0 38 -3.5 74.5t-3.5 39.5q0 15 13 15h60q17 0 17 -20z" />
    <glyph glyph-name="parenleft" unicode="(" horiz-adv-x="316" 
d="M40 314q0 135 46.5 266.5t127.5 241.5q9 10 19 10q18 0 18 -18q0 -6 -6 -16q-69 -125 -102.5 -234t-33.5 -252t33.5 -252t102.5 -234q6 -10 6 -16q0 -18 -18 -18q-10 0 -19 10q-174 238 -174 512z" />
    <glyph glyph-name="parenright" unicode=")" horiz-adv-x="316" 
d="M276 314q0 -274 -174 -512q-9 -10 -19 -10q-18 0 -18 18q0 6 6 16q69 125 102.5 234t33.5 252t-33.5 252t-102.5 234q-6 10 -6 16q0 18 18 18q10 0 19 -10q81 -110 127.5 -241.5t46.5 -266.5z" />
    <glyph glyph-name="asterisk" unicode="*" horiz-adv-x="458" 
d="M188 546l-156 9q-21 1 -21 16t22 16l152 13l-40 150q-2 8 -2 11q0 16 13 16t20 -18l60 -140l131 85q9 6 17 6q12 0 12 -12q0 -10 -11 -20l-115 -101l121 -98q11 -9 11 -18q0 -13 -14 -13q-6 0 -17 6l-131 78l-56 -145q-6 -18 -18 -18q-13 0 -13 18q0 6 1 10z" />
    <glyph glyph-name="plus" unicode="+" horiz-adv-x="592" 
d="M530 280h-212v-215q0 -26 -20 -26q-10 0 -16.5 7t-6.5 19v215h-209q-26 0 -26 20q0 9 7 16t19 7h209v205q0 23 21 23q9 0 15.5 -6t6.5 -16v-206h211q23 0 23 -21q0 -9 -6 -15.5t-16 -6.5z" />
    <glyph glyph-name="comma" unicode="," horiz-adv-x="260" 
d="M37 -136q-17 0 -17 10q0 6 8 9q50 13 74.5 37t24.5 49q0 23 -18 36l-66 45q0 31 21.5 55.5t51.5 24.5q32 0 56.5 -26.5t24.5 -75.5q0 -74 -50 -119t-110 -45z" />
    <glyph glyph-name="hyphen" unicode="-" horiz-adv-x="336" 
d="M278 333l-234 -87q-13 13 -13 34q0 29 20 36l238 90q9 -13 9 -35q0 -31 -20 -38z" />
    <glyph glyph-name="period" unicode="." horiz-adv-x="260" 
d="M60 62q0 29 20 49.5t49 20.5t50 -20.5t21 -49.5t-21 -49t-50 -20t-49 20t-20 49z" />
    <glyph glyph-name="slash" unicode="/" horiz-adv-x="339" 
d="M12 -150l270 932q6 21 25 21q22 0 22 -25q0 -3 -2 -13l-268 -930q-7 -23 -27 -23q-22 0 -22 25q0 3 2 13z" />
    <glyph glyph-name="zero" unicode="0" horiz-adv-x="715" 
d="M50 301q0 138 91.5 223.5t225.5 85.5q133 0 215.5 -85t82.5 -224t-83 -225t-215 -86q-142 0 -229.5 85.5t-87.5 225.5zM191 306q0 -109 56 -187t151 -78q98 0 161.5 71.5t63.5 180.5q0 111 -65 187t-157 76q-100 0 -155 -68.5t-55 -181.5z" />
    <glyph glyph-name="one" unicode="1" horiz-adv-x="441" 
d="M295 594v-393q0 -78 10 -113.5t33 -47t75 -11.5q18 0 18 -15q0 -14 -14 -14h-363q-15 0 -15 14q0 15 19 15q52 0 75.5 11.5t33.5 47t10 113.5v276q0 34 -37 34h-114q-16 0 -16 10q0 9 12 13q225 75 258 75q15 0 15 -15z" />
    <glyph glyph-name="two" unicode="2" horiz-adv-x="556" 
d="M108 103h303q27 0 41.5 26.5t27.5 83.5q3 14 14 14q12 0 12 -13q0 -14 -15 -194q-2 -20 -24 -20h-397q-16 0 -23 6t-7 20q0 44 23.5 80.5t58.5 60l76 52.5t76 57t58.5 73.5t23.5 101.5t-32 92t-90 36q-49 0 -80.5 -26t-31.5 -72q0 -45 33 -68t69 -23q-21 -68 -86 -68
q-42 0 -69.5 30.5t-27.5 79.5q0 86 62.5 132t157.5 46q107 0 167 -47.5t60 -129.5q0 -63 -32 -109t-82 -71.5t-101 -45.5t-98.5 -46t-66.5 -58z" />
    <glyph glyph-name="three" unicode="3" horiz-adv-x="510" 
d="M208 579q-42 0 -73 -26.5t-31 -72.5q0 -77 94 -85q-19 -64 -79 -64q-39 0 -65 29.5t-26 73.5q0 84 59 130t151 46q102 0 159.5 -49t57.5 -130q0 -46 -19.5 -85t-50 -62t-59 -36.5t-53.5 -18.5q94 -4 150.5 -59t56.5 -134q0 -87 -70.5 -149t-193.5 -62q-216 0 -216 123
q0 41 27.5 65.5t70.5 25.5q3 -182 118 -182q133 0 133 185q0 169 -147 169h-32q-15 0 -15 13q0 14 17 14h28q129 0 129 186q0 75 -31 115t-90 40z" />
    <glyph glyph-name="four" unicode="4" horiz-adv-x="576" 
d="M416 -167h-82q-19 0 -19 21v166h-302q-13 0 -13 10q0 8 10 18q142 136 257 277.5t173 259.5q9 16 23 16q21 0 21 -19q0 -3 -0.5 -6.5t-2.5 -7.5t-3.5 -7.5t-4.5 -9t-5.5 -8.5t-7.5 -10l-7.5 -10.5l-9 -12l-9.5 -12.5v-443h106q21 0 21 -18q0 -7 -6.5 -12t-14.5 -5h-107
v-166q0 -21 -17 -21zM64 55h251v286q-176 -220 -251 -286z" />
    <glyph glyph-name="five" unicode="5" horiz-adv-x="504" 
d="M121 610q4 0 55.5 -8.5t145.5 -8.5q59 0 77.5 9t26.5 43q3 14 11 14q11 0 11 -17q0 -55 -6.5 -88t-24 -50t-38 -22t-57.5 -5q-95 0 -186 22q0 -48 -9.5 -127.5t-18.5 -113.5q70 46 153 46q91 0 152 -60.5t61 -155.5q0 -114 -75 -188t-206 -74q-32 0 -63 5t-61.5 17
t-49.5 35t-19 55q0 50 32.5 72.5t76.5 22.5q-5 -32 -5 -53q0 -122 112 -122q65 0 99 57t34 144q0 88 -45.5 141.5t-110.5 53.5q-33 0 -68 -14.5t-41 -14.5q-17 0 -17 16q0 6 8.5 44t16.5 117t8 184q0 24 21 24z" />
    <glyph glyph-name="six" unicode="6" horiz-adv-x="613" 
d="M346 738q-51 0 -88 -36.5t-54.5 -95.5t-25.5 -117t-8 -119q0 -169 33.5 -257.5t115.5 -88.5q63 0 100 46.5t37 124.5q0 77 -43.5 127t-98.5 50q-29 0 -48 -8t-27.5 -15.5t-12.5 -7.5q-9 0 -9 8q0 21 38.5 40.5t95.5 19.5q87 0 149.5 -51t62.5 -147q0 -108 -69.5 -164.5
t-184.5 -56.5q-259 0 -259 348q0 194 87 314t222 120q81 0 130.5 -30.5t49.5 -84.5q0 -85 -110 -85q7 16 7 43q0 48 -21 85.5t-69 37.5z" />
    <glyph glyph-name="seven" unicode="7" horiz-adv-x="501" 
d="M25 598h451q15 0 15 -11q0 -8 -8 -23l-258 -492q-17 -34 -17 -65q0 -39 25 -63.5t72 -24.5q0 -39 -28.5 -66t-70.5 -27q-33 0 -57 25.5t-24 68.5q0 48 36 113l253 458h-330q-23 0 -30 -17t-14 -72q-3 -25 -5 -40q-2 -10 -10 -10q-10 0 -10 13q-10 210 -10 211q0 22 20 22
z" />
    <glyph glyph-name="eight" unicode="8" horiz-adv-x="634" 
d="M383 520q15 19 22.5 31.5t14 33.5t6.5 46q0 48 -27.5 81t-81.5 33q-51 0 -81.5 -32.5t-30.5 -78.5q0 -72 66 -112l191 -117q122 -75 122 -201q0 -88 -69.5 -151t-193.5 -63q-119 0 -195 48t-76 138q0 85 41.5 122.5t102.5 37.5q17 0 29 -6q-58 -56 -58 -141
q0 -71 42 -118.5t121 -47.5q70 0 110.5 41t40.5 103q0 84 -92 141l-172 106q-105 64 -105 177q0 77 56 132.5t151 55.5q87 0 142.5 -41t55.5 -120q0 -47 -27.5 -76t-74.5 -29q-16 0 -30 7z" />
    <glyph glyph-name="nine" unicode="9" horiz-adv-x="613" 
d="M257 -138q52 0 89.5 27t58 78t29.5 115t9 148q0 346 -149 346q-63 0 -100 -46.5t-37 -124.5q0 -77 43.5 -127t98.5 -50q29 0 48 8t27.5 15.5t12.5 7.5q9 0 9 -8q0 -21 -38.5 -40.5t-95.5 -19.5q-87 0 -149.5 51t-62.5 147q0 107 68 164t177 57q131 0 199.5 -89t68.5 -259
q0 -434 -319 -434q-81 0 -130.5 30.5t-49.5 84.5q0 85 110 85q-7 -16 -7 -43q0 -48 21 -85.5t69 -37.5z" />
    <glyph glyph-name="colon" unicode=":" horiz-adv-x="260" 
d="M60 62q0 29 20 49.5t49 20.5t50 -20.5t21 -49.5t-21 -49t-50 -20t-49 20t-20 49zM60 479q0 29 20.5 49.5t48.5 20.5q29 0 50 -20.5t21 -49.5t-21 -49.5t-50 -20.5t-49 20.5t-20 49.5z" />
    <glyph glyph-name="semicolon" unicode=";" horiz-adv-x="260" 
d="M50 479q0 29 20.5 49.5t48.5 20.5q29 0 50 -20.5t21 -49.5t-21 -49.5t-50 -20.5t-49 20.5t-20 49.5zM37 -136q-17 0 -17 10q0 6 8 9q50 13 74.5 37t24.5 49q0 23 -18 36l-66 45q0 31 21.5 55.5t51.5 24.5q32 0 56.5 -26.5t24.5 -75.5q0 -74 -50 -119t-110 -45z" />
    <glyph glyph-name="less" unicode="&#x3c;" horiz-adv-x="357" 
d="M277 113l-225 158q-12 7 -12 18q0 12 14 24l216 184q9 8 20 8q9 0 15 -6t6 -14q0 -13 -12 -23l-199 -168l205 -141q12 -9 12 -21q0 -9 -7 -16.5t-17 -7.5t-16 5z" />
    <glyph glyph-name="equal" unicode="=" horiz-adv-x="572" 
d="M510 221h-444q-26 0 -26 20q0 9 7 16t19 7h443q23 0 23 -21q0 -9 -6 -15.5t-16 -6.5zM510 339h-444q-26 0 -26 20q0 9 7 16t19 7h443q23 0 23 -21q0 -9 -6 -15.5t-16 -6.5z" />
    <glyph glyph-name="greater" unicode="&#x3e;" horiz-adv-x="357" 
d="M305 271l-225 -158q-8 -5 -16 -5q-10 0 -17 7.5t-7 16.5q0 12 12 21l205 141l-199 168q-12 9 -12 23q0 8 6 14t15 6q11 0 20 -8l216 -184q14 -12 14 -24q0 -11 -12 -18z" />
    <glyph glyph-name="question" unicode="?" horiz-adv-x="459" 
d="M206 749q-49 0 -79 -23.5t-30 -69.5q0 -85 94 -85q-19 -64 -79 -64q-42 0 -67.5 29t-25.5 74q0 82 55.5 125.5t137.5 43.5q92 0 151 -40.5t59 -128.5q0 -47 -22 -86t-53 -65t-62 -49.5t-53 -53t-22 -62.5q0 -68 61 -68q14 0 25.5 1.5t13.5 1.5q8 0 8 -6
q0 -13 -27.5 -22.5t-57.5 -9.5q-54 0 -85.5 28t-31.5 84q0 45 21 84t50.5 67l59 55t50.5 61t21 73q0 106 -112 106zM143 62q0 29 20 49.5t49 20.5t49.5 -20.5t20.5 -49.5t-20.5 -49t-49.5 -20t-49 20t-20 49z" />
    <glyph glyph-name="at" unicode="@" horiz-adv-x="1056" 
d="M764 561q0 -8 -27.5 -235.5t-27.5 -248.5q0 -33 27 -33q71 0 132 78t61 211q0 183 -105.5 285t-280.5 102q-121 0 -217.5 -67t-148.5 -179t-52 -246q0 -193 115 -303.5t306 -110.5q29 0 29 -17t-30 -17q-236 0 -363 121.5t-127 319.5q0 152 62 276t178.5 198t266.5 74
q194 0 314.5 -116t120.5 -294q0 -100 -28 -173.5t-80 -115.5t-117 -61.5t-146 -19.5q-29 0 -29 25q0 23 20 153l-4 1q-45 -84 -98 -129.5t-98 -45.5q-66 0 -104.5 58t-38.5 163q0 158 85.5 261t213.5 103q32 0 61 -16t40 -37l65 45q7 5 14 5q11 0 11 -14zM561 542
q-80 0 -129 -84t-49 -205q0 -167 69 -167q32 0 66.5 25t99.5 111l31 244q-7 34 -31.5 55t-56.5 21z" />
    <glyph glyph-name="A" unicode="A" horiz-adv-x="792" 
d="M247 765h164q14 0 19.5 -3.5t9.5 -15.5l188 -530q40 -113 68 -151t77 -38q19 0 19 -15q0 -12 -15 -12h-324q-15 0 -15 12q0 15 18 15q50 0 70.5 9.5t20.5 36.5q0 26 -24 95l-47 130h-230l-75 -199q-5 -13 -5 -24q0 -48 101 -48q7 0 11.5 -4.5t4.5 -9.5q0 -13 -20 -13
h-241q-22 0 -22 14q0 13 18 13q42 0 65.5 25.5t52.5 94.5l210 507l-22 52q-9 20 -27.5 26t-50.5 6q-13 0 -13 14q0 13 14 13zM365 610l-104 -273h201z" />
    <glyph glyph-name="B" unicode="B" horiz-adv-x="676" 
d="M48 765h291q127 0 199.5 -43.5t72.5 -136.5q0 -71 -40 -117t-98 -63q75 -16 125.5 -61.5t50.5 -130.5q0 -100 -69.5 -156.5t-192.5 -56.5h-345q-15 0 -15 12q0 15 19 15q55 0 74.5 19t23.5 66q6 84 6 232v64q0 156 -6 243q-4 48 -20 65.5t-73 17.5q-18 0 -18 16
q0 15 15 15zM268 711v-165q0 -400 8 -461q4 -31 23.5 -40.5t71.5 -9.5q72 0 109.5 46t37.5 134q0 70 -44.5 122.5t-120.5 52.5h-13q-27 0 -27 16q0 13 13 13q29 0 55.5 6.5t53 21.5t42.5 45.5t16 73.5q0 158 -165 158q-34 0 -60 -13z" />
    <glyph glyph-name="C" unicode="C" horiz-adv-x="751" 
d="M690 24q-130 -34 -239 -34q-190 0 -293 99.5t-103 288.5q0 183 109.5 292t311.5 109q102 0 199 -23q15 -5 15 -21v-192q0 -18 -11 -18t-14 20q-13 95 -65.5 146t-140.5 51q-47 0 -91.5 -21t-84 -62t-64 -114t-24.5 -167q0 -163 67 -254t185 -91q206 0 250 208q4 17 16 17
q11 0 11 -11q0 -4 -9 -97t-11 -105q-3 -18 -14 -21z" />
    <glyph glyph-name="D" unicode="D" horiz-adv-x="830" 
d="M48 765h308q213 0 316 -93.5t103 -287.5q0 -175 -95 -279.5t-271 -104.5h-367q-15 0 -15 12q0 15 19 15q56 0 75 18t23 65q6 84 6 237v66q0 162 -6 246q-4 46 -21.5 62.5t-71.5 16.5q-18 0 -18 14q0 13 15 13zM328 727q-31 0 -60 -13v-368q0 -190 6 -233q6 -46 26 -62.5
t73 -16.5q263 0 263 332q0 190 -76 275.5t-232 85.5z" />
    <glyph glyph-name="E" unicode="E" horiz-adv-x="653" 
d="M48 765h514q8 0 11.5 -3t3.5 -13v-167q0 -12 -12 -12q-15 0 -15 13q0 55 -37 103t-106 48h-45q-74 0 -94 -23v-294h97q96 0 110 97q3 18 14 18q9 0 9 -15q0 -14 -3.5 -50.5t-3.5 -69.5q0 -39 3.5 -71t3.5 -39q0 -15 -9 -15q-11 0 -14 18q-14 93 -110 93h-97v-105
q0 -125 6 -181q4 -36 30 -51.5t102 -15.5q64 0 117.5 48t77.5 129q4 16 16 16t12 -13q0 -12 -20 -92t-26 -100q-5 -18 -24 -18h-517q-15 0 -15 12q0 15 19 15q56 0 75 18t23 65q6 84 6 237v66q0 162 -6 246q-4 46 -21.5 62.5t-71.5 16.5q-18 0 -18 14q0 13 15 13z" />
    <glyph glyph-name="F" unicode="F" horiz-adv-x="590" 
d="M273 110q3 -53 30 -68t105 -15q19 0 19 -15q0 -12 -15 -12h-370q-15 0 -15 12q0 15 19 15q56 0 75 18t23 65q6 84 6 237v66q0 162 -6 246q-4 46 -21.5 62.5t-71.5 16.5q-18 0 -18 14q0 13 15 13h514q8 0 11.5 -3t3.5 -13v-167q0 -12 -12 -12q-15 0 -15 13q0 55 -37 103
t-106 48h-45q-74 0 -94 -23v-294h97q96 0 110 97q3 18 14 18q9 0 9 -15q0 -14 -3.5 -50.5t-3.5 -69.5q0 -39 3.5 -71t3.5 -39q0 -15 -9 -15q-11 0 -14 18q-14 93 -110 93h-97v-105q0 -98 5 -168z" />
    <glyph glyph-name="G" unicode="G" horiz-adv-x="822" 
d="M600 65q0 98 -6 182q-4 47 -21.5 63.5t-70.5 16.5q-19 0 -19 15q0 12 15 12h308q15 0 15 -12q0 -15 -19 -15q-53 0 -65.5 -14.5t-19.5 -65.5q-6 -42 -6 -155q0 -22 5 -38t5 -17q0 -11 -26 -17q-126 -30 -244 -30q-191 0 -293.5 99t-102.5 289q0 183 109.5 292t311.5 109
q102 0 199 -23q15 -5 16 -21v-192q0 -16 -11 -16t-14 18q-32 197 -207 197q-47 0 -91.5 -21t-84 -62t-64 -114t-24.5 -167q0 -163 67 -254.5t185 -91.5q100 0 153 33z" />
    <glyph glyph-name="H" unicode="H" horiz-adv-x="899" 
d="M749 415v-69q0 -194 6 -236q6 -47 26 -65t73 -18q19 0 19 -15q0 -12 -15 -12h-335q-15 0 -15 12q0 15 19 15q56 0 75 18t23 65q6 84 6 237v21h-363v-22q0 -194 6 -236q6 -47 26 -65t73 -18q19 0 19 -15q0 -12 -15 -12h-335q-15 0 -15 12q0 15 19 15q56 0 75 18t23 65
q6 84 6 237v66q0 162 -6 246q-4 46 -21.5 62.5t-71.5 16.5q-18 0 -18 14q0 13 15 13h315q15 0 15 -13q0 -14 -19 -14q-53 0 -65.5 -14.5t-19.5 -64.5q-6 -42 -6 -244v-10h363v8q0 162 -6 246q-4 46 -21.5 62.5t-71.5 16.5q-18 0 -18 14q0 13 15 13h315q15 0 15 -13
q0 -14 -19 -14q-53 0 -65.5 -14.5t-19.5 -64.5q-6 -42 -6 -244z" />
    <glyph glyph-name="I" unicode="I" horiz-adv-x="418" 
d="M268 415v-69q0 -194 6 -236q6 -47 26 -65t73 -18q19 0 19 -15q0 -12 -15 -12h-335q-15 0 -15 12q0 15 19 15q56 0 75 18t23 65q6 84 6 237v66q0 162 -6 246q-4 46 -21.5 62.5t-71.5 16.5q-18 0 -18 14q0 13 15 13h315q15 0 15 -13q0 -14 -19 -14q-53 0 -65.5 -14.5
t-19.5 -64.5q-6 -42 -6 -244z" />
    <glyph glyph-name="J" unicode="J" horiz-adv-x="434" 
d="M291 415q0 -53 6 -164t6 -117q0 -79 -51.5 -155.5t-129.5 -124.5q-58 -35 -71 -35q-19 0 -19 20q0 17 25 27l39 16q50 20 63.5 86.5t13.5 194.5v250q0 162 -6 246q-4 46 -21 62.5t-71 16.5q-19 0 -19 15q0 12 15 12h315q15 0 15 -13q0 -14 -18 -14q-28 0 -44 -3
t-24.5 -15t-11 -23t-6.5 -38q-6 -56 -6 -244z" />
    <glyph glyph-name="K" unicode="K" horiz-adv-x="783" 
d="M593 670l-201 -238q99 -173 179.5 -270.5t121.5 -120.5q17 -10 40.5 -12.5t36.5 -4.5t13 -10q0 -12 -58 -18.5t-120 -6.5q-47 0 -115 81t-189 283q-7 12 -7 17t13 22l216 259q31 38 31 51q0 16 -23 26t-59 10q-17 0 -17 14q0 13 20 13h248q22 0 22 -14q0 -13 -17 -13
q-77 0 -135 -68zM268 415v-69q0 -194 6 -236q6 -47 26 -65t73 -18q19 0 19 -15q0 -12 -15 -12h-335q-15 0 -15 12q0 15 19 15q56 0 75 18t23 65q6 84 6 237v66q0 162 -6 246q-4 46 -21.5 62.5t-71.5 16.5q-18 0 -18 14q0 13 15 13h315q15 0 15 -13q0 -14 -19 -14
q-53 0 -65.5 -14.5t-19.5 -64.5q-6 -42 -6 -244z" />
    <glyph glyph-name="L" unicode="L" horiz-adv-x="607" 
d="M150 347v66q0 162 -6 246q-4 46 -21.5 62.5t-71.5 16.5q-18 0 -18 14q0 13 15 13h315q15 0 15 -13q0 -14 -19 -14q-53 0 -65.5 -14.5t-19.5 -64.5q-6 -42 -6 -244v-137q0 -139 6 -181q9 -67 95 -67q74 0 130 47.5t80 129.5q4 16 16 16t12 -13q0 -12 -20 -92t-26 -100
q-5 -18 -24 -18h-495q-15 0 -15 12q0 15 19 15q56 0 75 18t23 65q6 84 6 237z" />
    <glyph glyph-name="M" unicode="M" horiz-adv-x="1018" 
d="M472 5l-254 623l-35 -463q-3 -45 -3 -56q0 -47 24.5 -65t75.5 -19q17 0 17 -13q0 -12 -14 -12h-263q-14 0 -14 12q0 13 17 13q91 1 102 97l55 488q3 27 3 44q0 82 -94 82q-16 0 -16 15q0 14 14 14h190q16 0 20 -14l229 -580l206 584q6 10 24 10h194q14 0 14 -14
q0 -16 -16 -16q-53 0 -73 -20t-20 -58q0 -6 4 -58l35 -464q8 -109 103 -110q16 0 16 -13q0 -12 -14 -12h-319q-14 0 -14 12q0 13 16 13q49 1 73.5 25.5t24.5 66.5q0 1 -5 58l-44 457l-223 -623q-8 -21 -19 -21q-10 0 -17 17z" />
    <glyph glyph-name="N" unicode="N" horiz-adv-x="860" 
d="M44 765h166q10 0 15 -6l452 -551v245q0 137 -6 209q-3 41 -23 58.5t-71 17.5q-16 0 -16 14q0 13 13 13h247q13 0 13 -12q0 -15 -17 -15q-46 0 -63 -16.5t-23 -59.5q-7 -42 -7 -207v-450q0 -20 -17 -20q-9 0 -16 9l-496 607v-294q0 -163 4 -198q6 -42 30 -62.5t76 -20.5
q17 0 17 -14q0 -12 -14 -12h-268q-13 0 -13 12q0 14 17 14q52 0 73 17.5t25 58.5q5 60 5 200v356l-29 40q-30 40 -75 40q-13 0 -13 14q0 13 14 13z" />
    <glyph glyph-name="O" unicode="O" horiz-adv-x="847" 
d="M55 384q0 185 98.5 290t268.5 105t268 -104t98 -291t-98 -290.5t-268 -103.5t-268.5 103.5t-98.5 290.5zM417 741q-62 0 -107.5 -29t-70 -80.5t-36 -110.5t-11.5 -129q0 -74 11.5 -136t36.5 -115t71 -83t108 -30q63 0 109 28.5t71.5 79t37 110t11.5 130.5
q0 76 -11.5 138.5t-37.5 115t-72 82t-110 29.5z" />
    <glyph glyph-name="P" unicode="P" horiz-adv-x="633" 
d="M268 711v-433q0 -98 5 -168q3 -53 30 -68t105 -15q19 0 19 -15q0 -12 -15 -12h-370q-15 0 -15 12q0 15 19 15q56 0 75 18t23 65q6 84 6 234v64q0 156 -6 243q-4 48 -20 65.5t-73 17.5q-18 0 -18 17q0 14 15 14h315q121 0 189.5 -60t68.5 -168q0 -66 -26 -116.5
t-67.5 -77.5t-84.5 -40t-86 -13q-28 0 -28 14q0 12 15 12q57 0 103 55.5t46 144.5q0 45 -6.5 79t-23.5 65t-51 47.5t-84 16.5q-34 0 -60 -13z" />
    <glyph glyph-name="Q" unicode="Q" horiz-adv-x="847" 
d="M55 384q0 185 98.5 290t268.5 105t268 -104t98 -291t-98 -290.5t-269 -103.5q42 -60 116 -89.5t161 -29.5q56 0 94.5 14.5t40.5 14.5q14 0 14 -11q0 -7 -6 -12q-45 -32 -110.5 -61t-102.5 -29q-59 0 -103 15t-73.5 45.5t-48.5 64.5t-36 82q-146 16 -229 117.5t-83 272.5z
M417 741q-62 0 -107.5 -29t-70 -80.5t-36 -110.5t-11.5 -129q0 -74 11.5 -136t36.5 -115t71 -83t108 -30q63 0 109 28.5t71.5 79t37 110t11.5 130.5q0 76 -11.5 138.5t-37.5 115t-72 82t-110 29.5z" />
    <glyph glyph-name="R" unicode="R" horiz-adv-x="765" 
d="M323 337q-28 0 -28 14q0 12 15 12q83 0 134.5 49.5t51.5 132.5q0 78 -40.5 128.5t-127.5 50.5q-34 0 -60 -13v-271q0 -284 6 -330q6 -47 26 -65t73 -18q19 0 19 -15q0 -12 -15 -12h-335q-15 0 -15 12q0 15 19 15q55 0 74.5 19t23.5 66q6 84 6 232v64q0 156 -6 243
q-4 48 -20 65.5t-73 17.5q-18 0 -18 17q0 14 15 14h315q123 0 190.5 -53.5t67.5 -159.5q0 -60 -28.5 -104t-65.5 -65t-85 -33q163 -260 251 -309q17 -10 40.5 -12.5t36.5 -4.5t13 -10q0 -12 -58 -18.5t-120 -6.5q-45 0 -98 66.5t-184 281.5z" />
    <glyph glyph-name="S" unicode="S" horiz-adv-x="516" 
d="M59 221q32 -100 72.5 -146t103.5 -46q36 0 68.5 11t58.5 43.5t26 81.5q0 34 -25.5 66t-63.5 57.5l-83 57t-83 62.5t-63.5 76t-25.5 96q0 71 36 117.5t88 64.5t117 18q89 0 165 -32q11 -6 11 -20v-163q0 -16 -15 -16q-16 0 -16 18q-1 73 -48 123.5t-112 50.5
q-118 0 -118 -123q0 -47 34.5 -88t83.5 -72.5l98 -64t83.5 -78.5t34.5 -101q0 -116 -71.5 -170t-179.5 -54q-92 0 -179 35q-11 5 -13 30q-1 11 -4 51.5l-5.5 74t-2.5 37.5q0 15 13 15q11 0 15 -12z" />
    <glyph glyph-name="T" unicode="T" horiz-adv-x="679" 
d="M36 765h612q9 0 12 -3t3 -13v-169q0 -12 -12 -12q-15 0 -15 13q0 52 -39.5 98t-102.5 46h-93v-379q0 -180 6 -236q5 -45 30.5 -64t80.5 -19q19 0 19 -15q0 -12 -15 -12h-358q-15 0 -15 12q0 15 18 15q58 0 82 19t28 64q6 84 6 237v378h-92q-63 0 -103 -46t-40 -98
q0 -13 -15 -13q-12 0 -12 12v169q0 10 3.5 13t11.5 3z" />
    <glyph glyph-name="U" unicode="U" horiz-adv-x="815" 
d="M119 282v131q0 162 -6 246q-4 46 -21 62.5t-71 16.5q-18 0 -18 15q0 12 15 12h314q15 0 15 -13q0 -14 -18 -14q-50 0 -65 -15.5t-21 -63.5q-5 -35 -5 -244v-127q0 -117 48.5 -179.5t147.5 -62.5q112 0 168 60.5t56 167.5v134q0 158 -6 242q-4 50 -20.5 69t-72.5 19
q-18 0 -18 14q0 13 15 13h242q15 0 15 -12q0 -15 -19 -15q-51 0 -65 -18t-20 -70q-6 -56 -6 -240v-130q0 -142 -70 -216t-221 -74q-293 0 -293 292z" />
    <glyph glyph-name="V" unicode="V" horiz-adv-x="804" 
d="M385 16l-241 573q-38 89 -60.5 119.5t-64.5 30.5q-19 0 -19 14q0 12 15 12h320q15 0 15 -12q0 -14 -19 -14q-47 0 -66.5 -8.5t-19.5 -31.5q0 -22 28 -96l174 -452l179 516q5 17 5 26q0 45 -94 45q-17 0 -17 14q0 13 21 13h241q21 0 21 -14q0 -13 -17 -13q-32 -1 -50.5 -8
t-40.5 -37t-44 -90l-216 -582q-12 -34 -26 -34q-12 0 -24 29z" />
    <glyph glyph-name="W" unicode="W" horiz-adv-x="1093" 
d="M686 16l-138 416l-148 -411q-12 -34 -27 -34q-13 0 -23 29l-206 573q-32 90 -54.5 120t-70.5 30q-19 0 -19 14q0 12 15 12h667q15 0 15 -12q0 -14 -18 -14q-47 0 -64.5 -7.5t-17.5 -29.5t23 -99l126 -440l155 504q4 12 4 26q0 45 -88 45q-22 0 -22 14q0 13 20 13h256
q21 0 21 -14q0 -13 -17 -13q-48 -1 -76.5 -25t-58.5 -110l-204 -582q-12 -34 -26 -34q-15 0 -24 29zM411 163l114 333l-59 178q-11 33 -35 49t-72 16h-56q-32 0 -44.5 -6.5t-12.5 -24.5q0 -17 27 -105z" />
    <glyph glyph-name="X" unicode="X" horiz-adv-x="823" 
d="M434 468l135 191q25 34 25 52q0 14 -20 19t-40.5 8.5t-20.5 12.5q0 14 16 14h233q14 0 14 -11q0 -16 -20 -16q-45 0 -76.5 -17.5t-62.5 -61.5l-160 -227l213 -322q33 -50 60 -66.5t81 -16.5q18 0 18 -15q0 -12 -15 -12h-360q-15 0 -15 12q0 15 18 15q76 0 76 35
q0 20 -18 48l-134 215l-148 -215q-23 -34 -23 -52q0 -31 68 -31q19 0 19 -15q0 -12 -15 -12h-253q-15 0 -15 12q0 15 19 15q54 0 86.5 18t65.5 65l174 252l-198 297q-33 50 -52 64.5t-61 14.5q-20 0 -20 16q0 11 14 11h343q16 0 16 -14q0 -13 -17 -13q-79 0 -79 -36
q0 -20 19.5 -55t109.5 -179z" />
    <glyph glyph-name="Y" unicode="Y" horiz-adv-x="766" 
d="M613 603l-170 -303q0 -134 6 -190q6 -47 26 -65t74 -18q18 0 18 -14q0 -13 -15 -13h-334q-15 0 -15 13q0 14 18 14q56 0 74.5 18t23.5 65q6 68 6 191l-165 299q-46 83 -72 111t-69 28q-19 0 -19 14q0 12 15 12h310q15 0 15 -12q0 -14 -18 -14q-45 0 -62.5 -6t-17.5 -23
q0 -21 39 -96l144 -278l170 331q8 16 8 27q0 21 -30 32.5t-81 11.5q-17 0 -17 14q0 13 20 13h249q22 0 22 -14q0 -13 -17 -13q-41 0 -63.5 -23.5t-72.5 -111.5z" />
    <glyph glyph-name="Z" unicode="Z" horiz-adv-x="638" 
d="M168 36h218q73 0 122 53.5t76 142.5q4 14 15 14q13 0 13 -15q0 -9 -10.5 -54.5l-24 -100.5t-14.5 -58q-5 -18 -24 -18h-496q-18 0 -18 13q0 10 7 21l408 693h-208q-59 0 -101 -53.5t-42 -130.5q0 -18 -15 -18q-12 0 -12 12v212q0 10 3.5 13t11.5 3h490q23 0 23 -11
q0 -7 -6 -16z" />
    <glyph glyph-name="bracketleft" unicode="[" horiz-adv-x="349" 
d="M70 -154v931q0 31 13 42.5t43 11.5h143q8 0 13 -6t5 -14q0 -16 -19 -16h-130q-20 0 -20 -20v-924q0 -19 20 -19h126q25 0 25 -21q0 -7 -5.5 -13t-14.5 -6h-143q-30 0 -43 11.5t-13 42.5z" />
    <glyph glyph-name="backslash" unicode="\" horiz-adv-x="339" 
d="M57 782l270 -932q2 -10 2 -13q0 -25 -22 -25q-20 0 -27 23l-268 930q-2 10 -2 13q0 25 22 25q19 0 25 -21z" />
    <glyph glyph-name="bracketright" unicode="]" horiz-adv-x="349" 
d="M279 777v-931q0 -31 -12.5 -42.5t-43.5 -11.5h-143q-9 0 -14.5 6t-5.5 13q0 21 25 21h126q20 0 20 19v924q0 20 -20 20h-130q-19 0 -19 16q0 8 5 14t13 6h143q31 0 43.5 -11.5t12.5 -42.5z" />
    <glyph glyph-name="asciicircum" unicode="^" horiz-adv-x="0" 
 />
    <glyph glyph-name="underscore" unicode="_" horiz-adv-x="587" 
d="M532 -114h-484q-11 0 -17.5 6.5t-6.5 15.5q0 22 23 22h484q25 0 25 -23q0 -8 -6.5 -14.5t-17.5 -6.5z" />
    <glyph glyph-name="grave" unicode="`" horiz-adv-x="250" 
d="M219 658q0 -22 -22 -22q-83 104 -172 139q-8 3 -8 10q0 11 19 42.5t31 31.5q8 0 15 -7q44 -42 90.5 -105.5t46.5 -88.5z" />
    <glyph glyph-name="a" unicode="a" horiz-adv-x="548" 
d="M333 307v66q0 101 -24.5 154t-83.5 53q-44 0 -62.5 -32.5t-18.5 -76.5q0 -25 5 -45q-17 -4 -34 -4q-35 0 -54 19t-19 51q0 53 57 85.5t151 32.5q195 0 195 -166q0 -4 -3 -97t-3 -182q0 -35 0.5 -50.5t4.5 -32.5t12 -22.5t23 -5.5q16 0 26 12t15.5 24t10.5 12q9 0 9 -16
q0 -39 -26.5 -67.5t-77.5 -28.5q-76 0 -104 69q-64 -69 -157 -69q-68 0 -111.5 36.5t-43.5 99.5q0 54 24 91.5t65 56.5t84.5 27t93.5 8q16 0 46 -2zM137 146q0 -44 26 -67t71 -23q52 0 94 30q5 33 5 192h-22q-80 0 -127 -33t-47 -99z" />
    <glyph glyph-name="b" unicode="b" horiz-adv-x="612" 
d="M192 770l-1 -274q50 57 91.5 85.5t98.5 28.5q73 0 121 -42.5t66.5 -103.5t18.5 -138q0 -149 -84.5 -242.5t-222.5 -93.5q-58 0 -108 11t-73 30q-24 20 -24 62q0 8 1.5 45t3.5 101t2 136v252q0 81 -11.5 105.5t-53.5 24.5h-25q-16 0 -16 9t16 13q9 2 50.5 14t70 19t41.5 7
q38 0 38 -49zM191 456l1 -318q0 -46 29 -77t81 -31q81 0 124.5 75.5t43.5 192.5q0 239 -131 239q-65 0 -148 -81z" />
    <glyph glyph-name="c" unicode="c" horiz-adv-x="505" 
d="M315 69q53 0 89.5 21t63.5 82q5 11 13 11q9 0 9 -15q0 -25 -13 -54t-37.5 -57.5t-68.5 -47.5t-98 -19q-100 0 -166.5 71.5t-66.5 214.5q0 165 75.5 249.5t200.5 84.5q27 0 53 -4.5t54.5 -15t45.5 -33t17 -54.5q0 -74 -90 -74q-4 24 -7 40t-10.5 39t-17.5 36.5t-27.5 24
t-39.5 10.5q-131 0 -131 -277q0 -107 41.5 -170t110.5 -63z" />
    <glyph glyph-name="d" unicode="d" horiz-adv-x="644" 
d="M430 263v170q0 61 -32 98.5t-80 37.5q-73 0 -115.5 -78t-42.5 -202q0 -105 39.5 -172.5t115.5 -67.5q47 0 110 36q5 70 5 178zM428 567v60q0 81 -11.5 105.5t-53.5 24.5h-25q-16 0 -16 9t16 13q9 2 50.5 14t70 19t41.5 7q38 0 38 -49v-605q0 -63 7 -87t33 -24q16 0 26 12
t15.5 24t10.5 12q9 0 9 -16q0 -39 -26.5 -67.5t-77.5 -28.5q-76 0 -104 69q-72 -69 -169 -69q-108 0 -165 76t-57 197q0 163 69 255t188 92q79 0 131 -43z" />
    <glyph glyph-name="e" unicode="e" horiz-adv-x="540" 
d="M507 161q0 -58 -55 -114.5t-158 -56.5q-116 0 -185 74.5t-69 217.5q0 145 71 236.5t204 91.5q34 0 65.5 -10t61 -31t47.5 -61t18 -93q0 -27 -14 -38t-47 -11h-289q0 -141 48 -220t131 -79q54 0 89.5 21.5t62.5 76.5q4 8 11 8q8 0 8 -12zM295 578q-59 0 -92.5 -52.5
t-43.5 -133.5l184 13q23 1 31 10t8 27q0 136 -87 136z" />
    <glyph glyph-name="f" unicode="f" horiz-adv-x="371" 
d="M350 0h-313q-15 0 -15 12q0 14 18 14q42 0 57.5 16t19.5 61q6 84 6 171v43q0 184 -9 238h-65q-29 0 -29 18q0 8 6 14t15 6h76q0 71 18 119.5t49.5 72t65 33t74.5 9.5q61 0 99 -20.5t38 -62.5q0 -35 -23.5 -52.5t-62.5 -17.5q0 22 -1.5 37t-7.5 39t-22 37t-42 13
q-30 0 -52 -25.5t-22 -83.5v-97q23 0 75.5 4.5t67.5 4.5q10 0 16.5 -7.5t6.5 -16.5q0 -23 -29 -23h-137q0 -417 4 -445q6 -47 29 -65.5t86 -18.5q18 0 18 -15q0 -12 -15 -12z" />
    <glyph glyph-name="g" unicode="g" horiz-adv-x="536" 
d="M247 610q73 0 121 -17q-8 26 -8 52q0 40 19.5 66.5t61.5 26.5q27 0 44.5 -16t17.5 -40q0 -27 -21 -51q-16 15 -34 15q-20 0 -35 -19t-16 -46q89 -44 89 -154q0 -84 -64.5 -126t-160.5 -42q-37 0 -75 6q-37 -25 -37 -61q0 -19 12.5 -32.5t36.5 -16.5l151 -18
q78 -9 123 -54t45 -117q0 -86 -65 -133t-198 -47q-121 0 -188.5 35t-67.5 105q0 45 33.5 72.5t80.5 27.5q27 0 48 -11q-44 -34 -44 -80q0 -49 38 -83.5t116 -34.5t120.5 28t42.5 78q0 97 -111 109l-137 15q-59 7 -87.5 30.5t-28.5 68.5q0 39 26.5 74.5t63.5 52.5
q-65 17 -102 57t-37 97q0 87 66.5 135t160.5 48zM139 427q0 -130 107 -130q62 0 91 37.5t29 102.5t-28 102.5t-86 37.5q-59 0 -86 -41.5t-27 -108.5z" />
    <glyph glyph-name="h" unicode="h" horiz-adv-x="666" 
d="M217 487l32 27q40 33 63 50t57 31.5t68 14.5q61 0 96.5 -42t35.5 -108v-357q0 -44 16 -60.5t57 -16.5q18 0 18 -14q0 -12 -15 -12h-271q-15 0 -15 12q0 14 18 14q32 0 47 19t22.5 76.5t7.5 175.5q0 101 -10.5 156t-26.5 71t-44 16q-9 0 -18.5 -1.5t-20.5 -7.5t-18.5 -9.5
t-22 -14.5l-21.5 -16.5l-27 -21.5l-28 -22v-173q0 -136 5 -171q6 -48 18.5 -62.5t54.5 -14.5q18 0 18 -14q0 -12 -15 -12h-277q-15 0 -15 12q0 14 18 14q42 0 57.5 16t19.5 61q6 84 6 171v353q0 81 -11.5 105.5t-53.5 24.5h-25q-16 0 -16 9t16 13q9 2 50.5 14t70 19t41.5 7
q38 0 38 -49v-283z" />
    <glyph glyph-name="i" unicode="i" horiz-adv-x="322" 
d="M223 549q0 -6 -2 -82t-2 -150v-43q0 -122 6 -164q4 -29 6 -39.5t9.5 -24t20.5 -17.5t36 -4q19 0 19 -13q0 -12 -15 -12h-275q-15 0 -15 12q0 13 18 13q43 0 58 19t19 66q6 84 6 164v69q0 110 -10.5 156.5t-50.5 46.5h-26q-14 0 -14 10t14 14q33 9 86.5 18.5t73.5 9.5
q38 0 38 -49zM88 752q0 30 21.5 51.5t50.5 21.5q30 0 51.5 -21.5t21.5 -51.5q0 -29 -21.5 -50.5t-51.5 -21.5q-29 0 -50.5 21.5t-21.5 50.5z" />
    <glyph glyph-name="j" unicode="j" horiz-adv-x="277" 
d="M91 -71v414q0 110 -10.5 156.5t-50.5 46.5h-26q-15 0 -15 10t15 14q33 9 86.5 18.5t73.5 9.5q38 0 38 -49q0 -6 -2 -82t-2 -150v-111q0 -34 5 -113.5t5 -112.5q0 -92 -60 -141.5t-158 -49.5q-20 0 -20 16q0 14 19 14q60 0 81 25.5t21 84.5zM67 752q0 30 21 51.5t51 21.5
t51.5 -21.5t21.5 -51.5q0 -29 -21.5 -50.5t-51.5 -21.5t-51 21.5t-21 50.5z" />
    <glyph glyph-name="k" unicode="k" horiz-adv-x="622" 
d="M367 598h241q16 0 16 -11q0 -13 -17 -13q-41 0 -63 -11t-54 -42l-162 -158q180 -284 253 -327q17 -10 34.5 -12.5t24.5 -3t7 -6.5q0 -11 -44.5 -20.5t-94.5 -9.5q-34 0 -61 20.5t-71 83.5t-128 203q-6 11 -6 18q0 10 13 23l174 187q8 8 8 18q0 15 -19.5 26t-54.5 11
q-6 0 -10 4t-4 9q0 11 18 11zM217 770v-496q0 -136 5 -171q6 -48 18.5 -62.5t54.5 -14.5q18 0 18 -14q0 -12 -15 -12h-277q-15 0 -15 12q0 14 18 14q42 0 57.5 16t19.5 61q6 84 6 171v353q0 81 -11.5 105.5t-53.5 24.5h-25q-16 0 -16 9t16 13q9 2 50.5 14t70 19t41.5 7
q38 0 38 -49z" />
    <glyph glyph-name="l" unicode="l" horiz-adv-x="324" 
d="M217 770v-496q0 -136 5 -171q6 -48 18.5 -62.5t54.5 -14.5q18 0 18 -14q0 -12 -15 -12h-277q-15 0 -15 12q0 14 18 14q42 0 57.5 16t19.5 61q6 84 6 171v353q0 81 -11.5 105.5t-53.5 24.5h-25q-16 0 -16 9t16 13q9 2 50.5 14t70 19t41.5 7q38 0 38 -49z" />
    <glyph glyph-name="m" unicode="m" horiz-adv-x="994" 
d="M559 486l34 28q9 7 30 25t29 24t25.5 18t29 16.5t28 8.5t34.5 4q61 0 94.5 -41.5t33.5 -108.5v-357q0 -44 16 -60.5t57 -16.5q18 0 18 -14q0 -12 -15 -12h-271q-15 0 -15 12q0 14 18 14q32 0 47 19t22.5 76.5t7.5 175.5q0 101 -10 155t-24.5 69t-40.5 15q-10 0 -21 -3
t-19 -7t-22.5 -14t-22.5 -16.5l-29 -23l-32 -25.5v-344q0 -44 16 -60.5t57 -16.5q18 0 18 -14q0 -12 -15 -12h-271q-15 0 -15 12q0 14 18 14q32 0 47 19t22.5 76.5t7.5 175.5q0 101 -10 155t-24.5 69t-40.5 15q-10 0 -21 -3t-19 -7t-22.5 -14t-22.5 -16.5l-29 -23l-32 -25.5
q-1 -33 -1 -130v-43q0 -124 6 -166q4 -28 6 -39t9.5 -23.5t20.5 -16t36 -3.5q19 0 19 -14q0 -12 -15 -12h-275q-15 0 -15 12q0 14 18 14q52 1 68 37q15 34 15 173v38v48q0 39 -0.5 60.5t-2 52t-6 46.5t-11.5 33t-18 24t-27 7h-28q-13 0 -13 10q0 13 72.5 28t106.5 15
q38 0 38 -49q0 -39 -1 -60l30 25q5 4 25.5 21.5t25.5 21.5l21.5 16.5t25 16t22.5 10t27.5 8.5t28.5 2q54 0 86.5 -34t39.5 -90z" />
    <glyph glyph-name="n" unicode="n" horiz-adv-x="674" 
d="M227 489l30 25q40 33 63 50t57 31.5t68 14.5q61 0 96.5 -42t35.5 -108v-357q0 -44 16 -60.5t57 -16.5q18 0 18 -14q0 -12 -15 -12h-271q-15 0 -15 12q0 14 18 14q32 0 47 19t22.5 76.5t7.5 175.5q0 101 -10.5 156t-26.5 71t-44 16q-9 0 -18.5 -1.5t-20.5 -7.5t-18.5 -9.5
t-22 -14.5l-21.5 -16.5l-27 -21.5l-28 -22q-1 -33 -1 -130v-43q0 -124 6 -166q4 -28 6 -39t9.5 -23.5t20.5 -16t36 -3.5q19 0 19 -14q0 -12 -15 -12h-275q-15 0 -15 12q0 14 18 14q52 1 68 37q15 34 15 173v38v48q0 39 -0.5 60.5t-2 52t-6 46.5t-11.5 33t-18 24t-27 7h-28
q-13 0 -13 10q0 13 72.5 28t106.5 15q38 0 38 -49q0 -39 -1 -60z" />
    <glyph glyph-name="o" unicode="o" horiz-adv-x="615" 
d="M290 -10q-119 0 -184.5 74.5t-65.5 211.5q0 166 77.5 250t206.5 84q118 0 184.5 -77.5t66.5 -214.5q0 -165 -77.5 -246.5t-207.5 -81.5zM317 25q74 0 104.5 67.5t30.5 190.5q0 132 -36.5 212.5t-112.5 80.5q-73 0 -107 -71.5t-34 -192.5q0 -130 38.5 -208.5t116.5 -78.5z
" />
    <glyph glyph-name="p" unicode="p" horiz-adv-x="650" 
d="M210 487q107 123 202 123q198 0 198 -284q0 -148 -80.5 -240t-208.5 -92q-55 0 -106 22v-56.5t1.5 -44t4 -36t7 -25t11 -19.5t17 -10.5t23.5 -7t31 -1.5t18 -13q0 -12 -15 -12h-312q-15 0 -15 12q0 13 18 13q56 0 75 18.5t23 66.5q6 84 6 138v373q0 70 -15.5 101.5
t-63.5 31.5h-25q-15 0 -15 10q0 15 77 29t114 14q18 0 24 -28t6 -83zM215 453v-315q0 -46 29 -77t81 -31q81 0 124.5 75.5t43.5 192.5q0 239 -130 239q-62 0 -148 -84z" />
    <glyph glyph-name="q" unicode="q" horiz-adv-x="630" 
d="M438 88v345q0 61 -32 98.5t-80 37.5q-73 0 -115.5 -78t-42.5 -202q0 -105 39.5 -172.5t115.5 -67.5q46 0 115 39zM455 560q21 9 45 29.5t33 20.5q12 0 15 -12.5t3 -42.5q0 -7 -2 -82.5t-2 -149.5v-257q0 -125 5 -160q7 -50 21 -66.5t68 -17.5q19 0 19 -17q0 -14 -15 -14
h-329q-15 0 -15 14q0 17 19 17q25 0 42 3t30.5 7.5t21 18.5t13 28t7.5 43.5t3 58t1 78.5q-72 -69 -168 -69q-108 0 -165 76t-57 197q0 163 69 255t188 92q89 0 150 -50z" />
    <glyph glyph-name="r" unicode="r" horiz-adv-x="455" 
d="M221 440q39 170 148 170q40 0 63 -20t23 -61q0 -40 -29 -57t-61 -17q0 64 -44 64q-42 0 -72.5 -64.5t-30.5 -152.5q0 -136 6 -192q6 -46 30 -65t84 -19q18 0 18 -14q0 -12 -15 -12h-312q-15 0 -15 12q0 14 18 14q38 0 55.5 19.5t21.5 64.5q6 84 6 164v43q0 44 -1 72.5
t-6.5 61t-14.5 51t-26 31t-41 12.5h-24q-15 0 -15 11q0 10 15 14q28 8 94 18t80 10q45 0 45 -158z" />
    <glyph glyph-name="s" unicode="s" horiz-adv-x="440" 
d="M233 610q40 0 73.5 -5.5t62.5 -25t29 -51.5q0 -39 -26.5 -57.5t-69.5 -18.5q0 17 -2.5 33.5t-10 40.5t-28 39t-50.5 15q-37 0 -59 -24t-22 -57q0 -39 21 -64.5t88 -67.5l45.5 -28.5l38 -25.5t35.5 -27l25 -26t21.5 -31t10.5 -33.5t5 -41.5q0 -56 -37 -94.5t-88 -54
t-109 -15.5q-81 0 -131 28t-50 79q0 78 109 78q-7 -28 -7 -59q0 -96 92 -96q51 0 85.5 26.5t34.5 76.5q0 37 -29 71t-109 80q-38 22 -58.5 35.5t-46 36.5t-36.5 50.5t-11 62.5q0 53 33 89t77 49t94 13z" />
    <glyph glyph-name="t" unicode="t" horiz-adv-x="363" 
d="M192 700v-108q22 0 70.5 4t63.5 4q12 0 19.5 -6.5t7.5 -15.5q0 -22 -33 -22h-128v-422q0 -84 56 -84q29 0 49.5 20.5t25.5 53.5q3 17 13 17q12 0 12 -19q0 -64 -38 -98.5t-94 -34.5q-142 0 -142 139q0 52 3.5 216t3.5 211h-49q-12 0 -12 9q0 7 11 18l127 125q15 13 21 13
q13 0 13 -20z" />
    <glyph glyph-name="u" unicode="u" horiz-adv-x="630" 
d="M417 59q-95 -69 -188 -69q-66 0 -106 38t-40 107v208q0 109 -11 156t-50 47h-27q-14 0 -14 10t14 14q33 9 86.5 18.5t73.5 9.5q39 0 39 -49q0 -6 -2.5 -82t-2.5 -150v-136q0 -129 97 -129q52 0 127 37q4 56 4 192v62q0 110 -10.5 156.5t-49.5 46.5h-27q-14 0 -14 10
t14 14q33 9 86.5 18.5t73.5 9.5q39 0 39 -49q0 -6 -2.5 -82t-2.5 -150v-152q0 -35 0.5 -50.5t4.5 -32.5t12 -22.5t23 -5.5q16 0 26 12t15.5 24t10.5 12q9 0 9 -16q0 -39 -26.5 -67.5t-77.5 -28.5q-76 0 -104 69z" />
    <glyph glyph-name="v" unicode="v" horiz-adv-x="603" 
d="M328 137l128 368q5 14 5 28q0 42 -67 42q-17 0 -17 12q0 11 20 11h194q21 0 21 -12q0 -11 -17 -11q-13 0 -24 -5t-17.5 -11t-14.5 -20t-12 -23.5t-12 -31.5t-13 -33l-184 -444q-8 -18 -20 -18q-13 0 -22 22l-191 475q-23 58 -35.5 71.5t-46.5 13.5q-12 0 -12 12
q0 15 13 15h260q15 0 15 -10q0 -11 -16 -12q-63 -7 -63 -38q0 -6 3 -17z" />
    <glyph glyph-name="w" unicode="w" horiz-adv-x="875" 
d="M626 141l103 364q4 13 4 27q0 43 -66 43q-17 0 -17 12q0 11 20 11h193q22 0 22 -12q0 -11 -17 -11q-11 0 -20.5 -3t-17.5 -11t-13 -13.5t-12 -21t-10 -23t-10.5 -28.5l-10.5 -29l-166 -441q-7 -18 -21 -18t-21 22l-126 355l-139 -359q-7 -18 -21 -18t-22 22l-174 472
q-21 59 -35 74.5t-47 15.5q-12 0 -12 12q0 15 13 15h254q15 0 15 -11q0 -10 -16 -11q-63 -7 -63 -38q0 -8 3 -17l120 -378l103 281l-21 57q-22 61 -33 75.5t-40 14.5q-12 0 -12 12q0 15 13 15h244q15 0 15 -11q0 -10 -16 -11q-63 -7 -63 -38q0 -8 3 -17z" />
    <glyph glyph-name="x" unicode="x" horiz-adv-x="612" 
d="M395 67l-115 191l-78 -121q-34 -53 -34 -78q0 -33 57 -33q18 0 18 -13t-21 -13h-213q-19 0 -19 12q0 6 6 10.5t16 4.5q39 0 67 20.5t80 95.5l101 144l-123 195q-33 52 -57 70.5t-58 18.5q-12 0 -12 12q0 15 13 15h254q15 0 15 -10q0 -9 -35.5 -15.5t-35.5 -22.5
q0 -8 7 -19l99 -163l75 130q27 48 27 60q0 13 -36 15t-36 13q0 12 20 12h210q22 0 22 -13q0 -11 -18 -11q-49 0 -80 -17t-65 -68l-97 -144l137 -229q30 -50 59 -69.5t65 -19.5q12 0 12 -12q0 -15 -13 -15h-263q-15 0 -15 10q0 9 35.5 15.5t35.5 22.5q0 8 -7 19z" />
    <glyph glyph-name="y" unicode="y" horiz-adv-x="601" 
d="M482 444l-198 -563q-34 -96 -112 -96q-44 0 -66 23t-22 53q0 38 30 48q22 -37 65 -37q30 0 44.5 12.5t26.5 41.5l33 78l-185 425q-41 95 -57 118.5t-46 23.5q-14 0 -14 12q0 15 18 15h249q10 0 10 -9q0 -12 -18 -12q-62 0 -62 -37q0 -8 5 -20l153 -378l105 363q4 18 4 24
q0 45 -74 45q-7 0 -12 4t-5 9q0 11 19 11h216q22 0 22 -13q0 -11 -17 -11q-67 0 -112 -130z" />
    <glyph glyph-name="z" unicode="z" horiz-adv-x="474" 
d="M472 163q0 -173 -136 -173q-47 0 -132 12.5t-113 12.5t-48.5 -10.5t-25.5 -10.5q-17 0 -17 13q0 9 10 20q105 113 200 240.5t154 226.5q-64 -13 -105 -13q-26 0 -62.5 3.5t-54.5 3.5q-37 0 -57 -13.5t-29 -52.5q-2 -11 -15 -11q-10 0 -10 13q0 47 24.5 108.5t55.5 61.5
q11 0 70.5 -5.5t123.5 -5.5q58 0 92 5.5t48 11t23 5.5t9 -8q0 -5 -6 -16q-41 -83 -165 -249.5t-192 -234.5q32 12 71 12q29 0 81 -5t70 -5q23 0 35.5 0.5t28.5 4t24 10.5t15.5 20t10.5 32q1 14 11 14q11 0 11 -17z" />
    <glyph glyph-name="braceleft" unicode="{" horiz-adv-x="514" 
d="M42 306q-12 0 -12 10q0 11 12 11q66 0 113.5 27t47.5 87q0 43 -10.5 133t-10.5 117q0 68 38.5 112t124.5 44q43 0 81 -8t38 -20q0 -9 -12 -9q-4 0 -21.5 2.5t-34.5 2.5q-110 0 -110 -122q0 -40 11 -127t11 -125q0 -32 -17 -56t-48 -37.5t-47.5 -18.5t-43.5 -10v-4
q27 -5 43.5 -10t47.5 -18.5t48 -37.5t17 -56q0 -38 -11 -125t-11 -127q0 -122 110 -122q17 0 34.5 2.5t21.5 2.5q12 0 12 -9q0 -12 -38 -20t-81 -8q-86 0 -124.5 44t-38.5 112q0 27 10.5 117t10.5 133q0 60 -47 86.5t-114 26.5z" />
    <glyph glyph-name="bar" unicode="|" horiz-adv-x="230" 
d="M90 -210v1002q0 13 7.5 20.5t17.5 7.5q25 0 25 -31v-1000q0 -14 -8 -22.5t-18 -8.5t-17 8t-7 24z" />
    <glyph glyph-name="braceright" unicode="}" horiz-adv-x="514" 
d="M472 306q-67 0 -114 -26.5t-47 -86.5q0 -43 10.5 -133t10.5 -117q0 -68 -38.5 -112t-124.5 -44q-43 0 -81 8t-38 20q0 9 12 9q4 0 21.5 -2.5t34.5 -2.5q110 0 110 122q0 40 -11 127t-11 125q0 32 17 56t48 37.5t47.5 18.5t43.5 10v4q-27 5 -43.5 10t-47.5 18.5t-48 37.5
t-17 56q0 38 11 125t11 127q0 122 -110 122q-17 0 -34.5 -2.5t-21.5 -2.5q-12 0 -12 9q0 12 38 20t81 8q86 0 124.5 -44t38.5 -112q0 -27 -10.5 -117t-10.5 -133q0 -60 47.5 -87t113.5 -27q12 0 12 -11q0 -10 -12 -10z" />
    <glyph glyph-name="asciitilde" unicode="~" horiz-adv-x="418" 
d="M225 314l-80 35q-26 11 -43 11q-47 0 -50 -63l-16 3q-6 16 -6 34q0 39 27 66.5t72 27.5q27 0 60 -12l80 -31q26 -10 46 -10q48 0 51 60l16 -4q6 -16 6 -34q0 -40 -27 -69.5t-71 -29.5q-30 0 -65 16z" />
    <glyph glyph-name="nbspace" unicode="&#xa0;" horiz-adv-x="206" 
 />
    <glyph glyph-name="exclamdown" unicode="&#xa1;" horiz-adv-x="270" 
d="M202 541q0 -29 -20 -49.5t-49 -20.5t-50 20.5t-21 49.5t21 49t50 20t49 -20t20 -49zM191 -162h-116q-15 0 -15 17q0 10 8 58.5t21.5 167t24.5 279.5q2 24 20 24q15 0 17 -24q10 -161 25 -279.5t24.5 -168t9.5 -58.5q0 -16 -19 -16z" />
    <glyph glyph-name="cent" unicode="&#xa2;" horiz-adv-x="505" 
d="M315 685v-75q28 0 54 -4.5t54.5 -15t45.5 -33t17 -54.5q0 -74 -90 -74q-5 38 -11 62t-24 51.5t-46 33.5v-507q53 0 89.5 21t63.5 82q5 11 13 11q9 0 9 -15q0 -51 -46 -106.5t-129 -67.5v-64q0 -22 -16 -22q-17 0 -17 22v60h-9q-100 0 -166.5 71.5t-66.5 214.5
q0 153 65.5 236.5t176.5 95.5v77q0 20 16 20q17 0 17 -20zM163 302q0 -93 32 -154t87 -75v505q-119 -11 -119 -276z" />
    <glyph glyph-name="sterling" unicode="&#xa3;" horiz-adv-x="630" 
d="M270 262q0 -8 -4 -68t-4 -72q0 -86 110 -86q149 0 200 171q4 16 16 16t12 -13q0 -12 -20 -92t-26 -100q-5 -18 -24 -18h-485q-15 0 -15 12q0 15 19 15q56 0 75.5 18t22.5 65l10 151h-60q-24 0 -24 17q0 8 7 14t18 6h61l6 73q5 66 29.5 114.5t62 74.5t78.5 38t87 12
q45 0 82 -8t65 -31.5t28 -59.5q0 -37 -28 -58.5t-68 -21.5q0 29 -1.5 46.5t-9 44.5t-27.5 41t-51 14q-116 0 -130 -172l-8 -106h176q11 0 17 -6t6 -13q0 -18 -23 -18h-180z" />
    <glyph glyph-name="currency" unicode="&#xa4;" horiz-adv-x="839" 
d="M100 366q0 117 76 206l-54 54q-7 6 -7 15q0 11 9.5 20t20.5 9q8 0 14 -6l54 -54q88 75 206 75q113 0 202 -73l56 56q7 7 15 7q11 0 20 -9t9 -20q0 -8 -6 -14l-57 -57q80 -90 80 -209q0 -118 -75 -206l52 -52q9 -9 9 -19t-8.5 -18t-19.5 -8t-18 8l-53 52q-89 -76 -206 -76
q-122 0 -211 78l-55 -55q-9 -9 -19 -9t-18 8.5t-8 19.5q0 10 8 18l56 56q-72 88 -72 203zM168 367q0 -106 73 -183t177 -77t178 77t74 183t-74 183t-178 77t-177 -77t-73 -183z" />
    <glyph glyph-name="yen" unicode="&#xa5;" horiz-adv-x="736" 
d="M117 328h131l-68 105l-21.5 33.5l-19 30l-15.5 23t-15.5 20l-14.5 14t-16.5 11t-17.5 5t-21 2.5q-19 0 -19 14q0 12 15 12h300q15 0 15 -12q0 -14 -18 -14q-39 0 -54.5 -6t-15.5 -23q0 -32 39 -96l104 -171l140 224q8 16 8 27q0 44 -101 44q-17 0 -17 14q0 13 20 13h239
q22 0 22 -14q0 -13 -17 -13q-40 0 -61.5 -21t-80.5 -109l-76 -113h133q24 0 24 -18q0 -8 -6.5 -14.5t-18.5 -6.5h-158l-32 -49h157q26 0 26 -19q0 -8 -6.5 -14.5t-18.5 -6.5h-158q1 -46 6 -90q6 -47 26 -65t74 -18q18 0 18 -14q0 -13 -15 -13h-334q-15 0 -15 13q0 14 18 14
q56 0 74.5 18t23.5 65q3 39 5 90h-157q-25 0 -25 20t25 20h158l-31 49h-157q-25 0 -25 19q0 20 25 20z" />
    <glyph glyph-name="brokenbar" unicode="&#xa6;" horiz-adv-x="230" 
d="M90 385v407q0 13 7.5 20.5t17.5 7.5q25 0 25 -31v-405q0 -14 -8 -22.5t-18 -8.5t-17 8.5t-7 23.5zM90 -215v407q0 13 7.5 20.5t17.5 7.5q25 0 25 -31v-405q0 -14 -8 -22.5t-18 -8.5t-17 8.5t-7 23.5z" />
    <glyph glyph-name="section" unicode="&#xa7;" horiz-adv-x="470" 
d="M247 765q40 0 73.5 -5.5t62.5 -25t29 -51.5q0 -35 -26.5 -55.5t-69.5 -20.5q0 23 -1 36.5t-6.5 33.5t-14.5 30.5t-26.5 19t-42.5 8.5q-37 0 -59 -24t-22 -57q0 -41 22 -69.5t87 -67.5l62.5 -38t48 -35t40 -40t21.5 -43.5t9 -56.5q0 -47 -39 -79t-95 -32q-15 0 -15 10
q0 7 10 10q45 10 45 64q0 33 -31.5 66.5t-113.5 80.5q-74 42 -113 83.5t-39 106.5q0 53 33 89t77 49t94 13zM158 379q14 0 14 -9q0 -6 -9 -11q-25 -11 -25 -54q0 -37 25 -66t91 -67q100 -56 140.5 -97.5t40.5 -115.5q0 -82 -65.5 -123t-157.5 -41q-89 0 -140.5 28t-51.5 79
q0 40 31.5 58t77.5 18q-9 -16 -9 -52q0 -43 23.5 -72.5t83.5 -29.5q42 0 75 27t33 76q0 38 -29 71.5t-109 79.5q-75 43 -114 83t-39 101q0 55 33 86t81 31z" />
    <glyph glyph-name="dieresis" unicode="&#xa8;" horiz-adv-x="585" 
d="M113 739q0 28 20.5 48t47.5 20q28 0 48.5 -20t20.5 -48t-20.5 -48.5t-48.5 -20.5q-27 0 -47.5 20.5t-20.5 48.5zM339 739q0 28 20.5 48t48.5 20t48 -20t20 -48t-20 -48.5t-48 -20.5t-48.5 20.5t-20.5 48.5z" />
    <glyph glyph-name="copyright" unicode="&#xa9;" horiz-adv-x="839" 
d="M123 371q0 -123 86.5 -212t209.5 -89t210.5 89t87.5 212t-88 212.5t-210 89.5t-209 -89.5t-87 -212.5zM70 371q0 144 102.5 247t246.5 103t247 -103t103 -247t-103 -246.5t-247 -102.5q-145 0 -247 102t-102 247zM558 194q-69 -20 -131 -20q-99 0 -153.5 52.5
t-54.5 146.5q0 91 62.5 148t168.5 57q46 0 98 -12q8 -3 8 -11l1 -96q0 -11 -17 -11q-14 0 -14 13q-4 31 -25.5 54.5t-66.5 23.5q-52 0 -91.5 -39.5t-39.5 -120.5q0 -74 34.5 -119.5t91.5 -45.5q54 0 80.5 21.5t38.5 60.5q3 8 12 8q5 0 9 -3t3 -8l-7 -89q0 -8 -7 -10z" />
    <glyph glyph-name="ordfeminine" unicode="&#xaa;" horiz-adv-x="366" 
d="M219 585v39q0 130 -62 130q-51 0 -51 -54q0 -25 10 -48q-18 -6 -33 -6q-49 0 -49 51q0 40 38.5 61t94.5 21q60 0 99 -24.5t39 -72.5q0 -16 -1.5 -75.5t-1.5 -112.5q0 -39 4 -54t19 -15q12 0 20 15t13 15q8 0 8 -11q0 -25 -20 -43t-56 -18q-27 0 -46 13.5t-25 29.5
q-43 -43 -102 -43q-43 0 -70 23t-27 64q0 31 13.5 53t33 33.5t49 18.5t52 8.5t51.5 1.5zM109 482q0 -50 51 -50q34 0 56 16q3 21 3 113q-110 0 -110 -79z" />
    <glyph glyph-name="guillemotleft" unicode="&#xab;" horiz-adv-x="473" 
d="M153 285l98 -197q7 -12 7 -23q0 -16 -16 -16q-10 0 -18 10l-184 226l184 226q8 10 18 10q16 0 16 -16q0 -11 -7 -23zM318 285l98 -197q7 -12 7 -23q0 -16 -16 -16q-11 0 -18 10l-184 226l184 226q7 10 18 10q16 0 16 -16q0 -11 -7 -23z" />
    <glyph glyph-name="logicalnot" unicode="&#xac;" horiz-adv-x="585" 
d="M99 440h417v-195q0 -19 -10 -29.5t-23 -10.5q-14 0 -24 10.5t-10 29.5v133h-348q-14 0 -22 9.5t-8 21.5q0 13 7.5 22t20.5 9z" />
    <glyph glyph-name="uni00AD" unicode="&#xad;" horiz-adv-x="336" 
d="M278 333l-234 -87q-13 13 -13 34q0 29 20 36l238 90q9 -13 9 -35q0 -31 -20 -38z" />
    <glyph glyph-name="registered" unicode="&#xae;" horiz-adv-x="839" 
d="M70 371q0 144 102.5 247t246.5 103t247 -103t103 -247t-103 -246.5t-247 -102.5q-145 0 -247 102t-102 247zM513 204l-118 151q-2 4 -2 6q0 10 16 10q36 0 61.5 24t25.5 60q0 80 -91 80q-23 0 -28.5 -4t-5.5 -20v-146q0 -81 3 -105q4 -26 12 -34.5t39 -14.5q11 -3 11 -14
t-9 -11h-186q-8 0 -8 10q0 12 10 15q35 5 45 14t12 35q4 32 4 106v14q0 82 -4 114q-2 27 -10.5 35t-43.5 14q-10 1 -10 13q0 10 8 10h182q21 0 42 -3.5t46.5 -13.5t41.5 -32.5t16 -55.5q0 -76 -105 -99l85 -98q46 -53 99 -81q66 84 66 188q0 123 -88 212.5t-210 89.5
t-209 -89.5t-87 -212.5t86.5 -212t209.5 -89q126 0 216 95q-91 0 -122 39z" />
    <glyph glyph-name="macron" unicode="&#xaf;" horiz-adv-x="559" 
d="M414 670h-304q-25 0 -25 22q0 10 7 17t20 7h300q13 0 20.5 -7t7.5 -17q0 -9 -7 -15.5t-19 -6.5z" />
    <glyph glyph-name="degree" unicode="&#xb0;" horiz-adv-x="407" 
d="M47 654q0 69 44.5 116.5t113.5 47.5q68 0 112.5 -47.5t44.5 -116.5t-44.5 -117t-112.5 -48q-73 0 -115.5 47t-42.5 118zM89 654q0 -50 32.5 -81t83.5 -31q50 0 81.5 31t31.5 81q0 49 -31.5 80t-81.5 31q-51 0 -83.5 -31t-32.5 -80z" />
    <glyph glyph-name="plusminus" unicode="&#xb1;" horiz-adv-x="592" 
d="M530 321h-212v-159q0 -26 -20 -26q-10 0 -16.5 7t-6.5 19v159h-209q-26 0 -26 20q0 9 7 16t19 7h209v164q0 23 21 23q9 0 15.5 -6t6.5 -16v-165h211q23 0 23 -21q0 -9 -6 -15.5t-16 -6.5zM510 67h-434q-26 0 -26 20q0 9 7 16t19 7h433q23 0 23 -21q0 -9 -6 -15.5
t-16 -6.5z" />
    <glyph glyph-name="twosuperior" unicode="&#xb2;" 
d="M93 461h171q22 0 34 55q2 9 9 9q8 0 8 -8q0 -40 -7 -117q-1 -10 -12 -10h-245q-10 0 -10 17q0 32 18 61t43.5 51l51 44t43.5 50.5t18 60.5q0 34 -17.5 54.5t-48.5 20.5q-27 0 -42.5 -16.5t-15.5 -43.5q0 -23 14.5 -35.5t33.5 -13.5q-5 -17 -20.5 -27.5t-33.5 -10.5
q-23 0 -36 18.5t-13 45.5q0 46 33 76t94 30q65 0 101 -26.5t36 -76.5q0 -31 -18 -56t-46 -42.5t-56.5 -33t-53 -35t-33.5 -41.5z" />
    <glyph glyph-name="threesuperior" unicode="&#xb3;" 
d="M154 750q-45 0 -45 -41q0 -22 13 -31t27 -10q-5 -16 -18.5 -26.5t-28.5 -10.5q-21 0 -34 13.5t-13 39.5q0 43 34.5 65.5t86.5 22.5q58 0 90.5 -23t32.5 -66q0 -44 -34.5 -68.5t-81.5 -34.5q59 -2 91 -27.5t32 -64.5q0 -105 -151 -105q-120 0 -120 67q0 22 13.5 35.5
t34.5 13.5q9 0 13 -1q0 -35 13.5 -64t45.5 -29q28 0 46 19.5t18 57.5q0 37 -22 62t-49 25h-15q-10 0 -10 9t10 9h14q31 0 49.5 23.5t18.5 60.5t-17.5 58t-43.5 21z" />
    <glyph glyph-name="acute" unicode="&#xb4;" horiz-adv-x="585" 
d="M254 658q0 25 46.5 88.5t90.5 105.5q7 7 15 7q12 0 31 -31.5t19 -42.5q0 -7 -8 -10q-89 -35 -172 -139q-22 0 -22 22z" />
    <glyph glyph-name="mu" unicode="&#xb5;" horiz-adv-x="666" 
d="M147 18q1 -71 13.5 -106t28 -42.5t48.5 -11.5q-2 -31 -24 -47.5t-57 -16.5q-73 0 -73 72v477q0 109 -11 156t-50 47h-27q-14 0 -14 10t14 14q33 9 86.5 18.5t73.5 9.5q39 0 39 -49q0 -6 -2.5 -82t-2.5 -150v-136q0 -129 97 -129q52 0 127 37q4 56 4 192v62
q0 110 -10.5 156.5t-49.5 46.5h-27q-14 0 -14 10t14 14q33 9 86.5 18.5t73.5 9.5q39 0 39 -49q0 -6 -2.5 -82t-2.5 -150v-152q0 -35 0.5 -50.5t4.5 -32.5t12 -22.5t23 -5.5q16 0 26 12t15.5 24t10.5 12q9 0 9 -16q0 -39 -26.5 -67.5t-77.5 -28.5q-76 0 -104 69
q-95 -69 -188 -69q-58 0 -82 28z" />
    <glyph glyph-name="mu" unicode="&#x3bc;" horiz-adv-x="666" 
d="M147 18q1 -71 13.5 -106t28 -42.5t48.5 -11.5q-2 -31 -24 -47.5t-57 -16.5q-73 0 -73 72v477q0 109 -11 156t-50 47h-27q-14 0 -14 10t14 14q33 9 86.5 18.5t73.5 9.5q39 0 39 -49q0 -6 -2.5 -82t-2.5 -150v-136q0 -129 97 -129q52 0 127 37q4 56 4 192v62
q0 110 -10.5 156.5t-49.5 46.5h-27q-14 0 -14 10t14 14q33 9 86.5 18.5t73.5 9.5q39 0 39 -49q0 -6 -2.5 -82t-2.5 -150v-152q0 -35 0.5 -50.5t4.5 -32.5t12 -22.5t23 -5.5q16 0 26 12t15.5 24t10.5 12q9 0 9 -16q0 -39 -26.5 -67.5t-77.5 -28.5q-76 0 -104 69
q-95 -69 -188 -69q-58 0 -82 28z" />
    <glyph glyph-name="paragraph" unicode="&#xb6;" horiz-adv-x="713" 
d="M537 672v-536q0 -193 6 -235q6 -46 26 -64.5t73 -18.5q19 0 19 -15q0 -12 -15 -12h-132q-21 0 -21 25v861q-19 3 -39 3v-864q0 -25 -21 -25h-132q-15 0 -15 12q0 15 18 15q53 0 73.5 18.5t26.5 64.5q5 35 5 235v541q-163 -18 -163 -211q0 -76 30 -119.5t77 -43.5
q22 0 22 -12q0 -22 -68 -22q-107 0 -170.5 53.5t-63.5 156.5q0 56 24 99t60.5 68.5t87.5 42t98.5 22t99.5 5.5q75 0 136.5 -15.5t61.5 -38.5q0 -11 -14 -11q-13 0 -43.5 9t-46.5 12z" />
    <glyph glyph-name="periodcentered" unicode="&#xb7;" horiz-adv-x="250" 
d="M54 334q0 30 20.5 51t49.5 21q30 0 51 -21t21 -51q0 -29 -21 -49.5t-51 -20.5q-29 0 -49.5 20.5t-20.5 49.5z" />
    <glyph glyph-name="cedilla" unicode="&#xb8;" horiz-adv-x="585" 
d="M400 -126q0 -51 -34 -77.5t-85 -26.5q-40 0 -67.5 14.5t-27.5 43.5q0 21 14 36q35 -21 78 -21q56 0 56 39q0 27 -25 42t-67 15q-4 7 -4 13q0 23 49 23q51 0 82 -29.5t31 -71.5z" />
    <glyph glyph-name="onesuperior" unicode="&#xb9;" 
d="M234 764v-229q0 -67 5 -84q12 -40 93 -40q11 0 11 -10q0 -11 -11 -11h-278q-10 0 -10 11q0 10 13 10q33 0 60 10t33 30q5 17 5 84v144q0 19 -5.5 26t-22.5 7h-81q-10 0 -10 11q0 9 11 12q158 37 179 37q8 0 8 -8z" />
    <glyph glyph-name="ordmasculine" unicode="&#xba;" horiz-adv-x="389" 
d="M183 383q-76 0 -119.5 47.5t-43.5 134.5q0 106 51 160t134 54q76 0 120 -50t44 -137q0 -106 -51 -157.5t-135 -51.5zM200 410q79 0 79 161q0 81 -21.5 132t-64.5 51q-42 0 -63 -45t-21 -121q0 -80 23 -129t68 -49z" />
    <glyph glyph-name="guillemotright" unicode="&#xbb;" horiz-adv-x="473" 
d="M212 88l98 197l-98 197q-7 12 -7 23q0 16 16 16q11 0 18 -10l184 -226l-184 -226q-7 -10 -18 -10q-16 0 -16 16q0 11 7 23zM47 88l98 197l-98 197q-7 12 -7 23q0 16 16 16q10 0 18 -10l184 -226l-184 -226q-8 -10 -18 -10q-16 0 -16 16q0 11 7 23z" />
    <glyph glyph-name="onequarter" unicode="&#xbc;" horiz-adv-x="876" 
d="M234 764v-229q0 -67 5 -84q12 -40 93 -40q11 0 11 -10q0 -11 -11 -11h-278q-10 0 -10 11q0 10 13 10q33 0 60 10t33 30q5 17 5 84v144q0 19 -5.5 26t-22.5 7h-81q-10 0 -10 11q0 9 11 12q158 37 179 37q8 0 8 -8zM184 19l466 746q8 13 20 13q15 0 15 -16q0 -8 -6 -19
l-465 -748q-8 -12 -20 -12q-16 0 -16 16q0 10 6 20zM777 359v-239h74q13 0 13 -13q0 -12 -13 -12h-75q0 -53 7 -63.5t46 -10.5q8 0 8 -11q0 -10 -9 -10h-185q-7 0 -7 10q0 11 9 11q37 0 44.5 11t7.5 63h-169q-7 0 -7 6q0 4 4 8q189 191 231 265q7 13 15 13q12 0 12 -13
q0 -8 -6 -15zM567 120h130v137q-25 -32 -130 -137z" />
    <glyph glyph-name="onehalf" unicode="&#xbd;" horiz-adv-x="877" 
d="M234 764v-229q0 -67 5 -84q12 -40 93 -40q11 0 11 -10q0 -11 -11 -11h-278q-10 0 -10 11q0 10 13 10q33 0 60 10t33 30q5 17 5 84v144q0 19 -5.5 26t-22.5 7h-81q-10 0 -10 11q0 9 11 12q158 37 179 37q8 0 8 -8zM184 19l466 746q8 13 20 13q15 0 15 -16q0 -8 -6 -19
l-465 -748q-8 -12 -20 -12q-16 0 -16 16q0 10 6 20zM610 71h171q22 0 34 55q1 9 9 9t8 -8q0 -40 -7 -117q-1 -10 -12 -10h-245q-10 0 -10 17q0 32 18 61t43.5 51l51 44t43.5 50.5t18 60.5q0 34 -18 54.5t-48 20.5q-27 0 -42.5 -16.5t-15.5 -43.5q0 -23 14.5 -35.5
t33.5 -13.5q-5 -17 -20.5 -27.5t-33.5 -10.5q-23 0 -36 18.5t-13 45.5q0 46 33 76t94 30q65 0 101 -26.5t36 -76.5q0 -31 -18 -56t-46 -42.5t-56.5 -33t-53 -35t-33.5 -41.5z" />
    <glyph glyph-name="threequarters" unicode="&#xbe;" horiz-adv-x="876" 
d="M154 750q-45 0 -45 -41q0 -22 13 -31t27 -10q-5 -16 -18.5 -26.5t-28.5 -10.5q-21 0 -34 13.5t-13 39.5q0 43 34.5 65.5t86.5 22.5q58 0 90.5 -23t32.5 -66q0 -44 -34.5 -68.5t-81.5 -34.5q59 -2 91 -27.5t32 -64.5q0 -105 -151 -105q-120 0 -120 67q0 22 13.5 35.5
t34.5 13.5q9 0 13 -1q0 -35 13.5 -64t45.5 -29q28 0 46 19.5t18 57.5q0 37 -22 62t-49 25h-15q-10 0 -10 9t10 9h14q31 0 49.5 23.5t18.5 60.5t-17.5 58t-43.5 21zM184 19l466 746q8 13 20 13q15 0 15 -16q0 -8 -6 -19l-465 -748q-8 -12 -20 -12q-16 0 -16 16q0 10 6 20z
M777 359v-239h74q13 0 13 -13q0 -12 -13 -12h-75q0 -53 7 -63.5t46 -10.5q8 0 8 -11q0 -10 -9 -10h-185q-7 0 -7 10q0 11 9 11q37 0 44.5 11t7.5 63h-169q-7 0 -7 6q0 4 4 8q189 191 231 265q7 13 15 13q12 0 12 -13q0 -8 -6 -15zM567 120h130v137q-25 -32 -130 -137z" />
    <glyph glyph-name="questiondown" unicode="&#xbf;" horiz-adv-x="459" 
d="M235 -146q49 0 79 23.5t30 69.5q0 85 -94 85q19 64 79 64q42 0 67.5 -29t25.5 -74q0 -82 -55.5 -125.5t-137.5 -43.5q-92 0 -151 40.5t-59 128.5q0 47 22 86t53 65t62 49.5t53 53t22 62.5q0 68 -61 68q-14 0 -25.5 -1.5t-13.5 -1.5q-8 0 -8 6q0 13 27.5 22.5t57.5 9.5
q54 0 85.5 -28t31.5 -84q0 -45 -21 -84t-50.5 -67l-59 -55t-50.5 -61t-21 -73q0 -106 112 -106zM298 541q0 -29 -20 -49.5t-49 -20.5t-49.5 20.5t-20.5 49.5t20.5 49t49.5 20t49 -20t20 -49z" />
    <glyph glyph-name="Agrave" unicode="&#xc0;" horiz-adv-x="792" 
d="M247 765h164q14 0 19.5 -3.5t9.5 -15.5l188 -530q40 -113 68 -151t77 -38q19 0 19 -15q0 -12 -15 -12h-324q-15 0 -15 12q0 15 18 15q50 0 70.5 9.5t20.5 36.5q0 26 -24 95l-47 130h-230l-75 -199q-5 -13 -5 -24q0 -48 101 -48q7 0 11.5 -4.5t4.5 -9.5q0 -13 -20 -13
h-241q-22 0 -22 14q0 13 18 13q42 0 65.5 25.5t52.5 94.5l210 507l-22 52q-9 20 -27.5 26t-50.5 6q-13 0 -13 14q0 13 14 13zM365 610l-104 -273h201zM466 791q-26 0 -93.5 42.5t-105.5 83.5q-7 7 -7 15q0 12 31.5 31t42.5 19q7 0 10 -8q21 -53 55 -89t89 -72q0 -22 -22 -22
z" />
    <glyph glyph-name="Aacute" unicode="&#xc1;" horiz-adv-x="792" 
d="M247 765h164q14 0 19.5 -3.5t9.5 -15.5l188 -530q40 -113 68 -151t77 -38q19 0 19 -15q0 -12 -15 -12h-324q-15 0 -15 12q0 15 18 15q50 0 70.5 9.5t20.5 36.5q0 26 -24 95l-47 130h-230l-75 -199q-5 -13 -5 -24q0 -48 101 -48q7 0 11.5 -4.5t4.5 -9.5q0 -13 -20 -13
h-241q-22 0 -22 14q0 13 18 13q42 0 65.5 25.5t52.5 94.5l210 507l-22 52q-9 20 -27.5 26t-50.5 6q-13 0 -13 14q0 13 14 13zM365 610l-104 -273h201zM285 794q-22 0 -22 22q55 36 89 72t55 89q3 8 10 8q11 0 42.5 -19t31.5 -31q0 -8 -7 -15q-38 -41 -105.5 -83.5
t-93.5 -42.5z" />
    <glyph glyph-name="Acircumflex" unicode="&#xc2;" horiz-adv-x="792" 
d="M247 765h164q14 0 19.5 -3.5t9.5 -15.5l188 -530q40 -113 68 -151t77 -38q19 0 19 -15q0 -12 -15 -12h-324q-15 0 -15 12q0 15 18 15q50 0 70.5 9.5t20.5 36.5q0 26 -24 95l-47 130h-230l-75 -199q-5 -13 -5 -24q0 -48 101 -48q7 0 11.5 -4.5t4.5 -9.5q0 -13 -20 -13
h-241q-22 0 -22 14q0 13 18 13q42 0 65.5 25.5t52.5 94.5l210 507l-22 52q-9 20 -27.5 26t-50.5 6q-13 0 -13 14q0 13 14 13zM365 610l-104 -273h201zM498 816l-125 49l-128 -48q-13 -5 -23 -5q-20 0 -29 16l180 125l181 -125q-14 -17 -33 -17q-10 0 -23 5z" />
    <glyph glyph-name="Atilde" unicode="&#xc3;" horiz-adv-x="792" 
d="M247 765h164q14 0 19.5 -3.5t9.5 -15.5l188 -530q40 -113 68 -151t77 -38q19 0 19 -15q0 -12 -15 -12h-324q-15 0 -15 12q0 15 18 15q50 0 70.5 9.5t20.5 36.5q0 26 -24 95l-47 130h-230l-75 -199q-5 -13 -5 -24q0 -48 101 -48q7 0 11.5 -4.5t4.5 -9.5q0 -13 -20 -13
h-241q-22 0 -22 14q0 13 18 13q42 0 65.5 25.5t52.5 94.5l210 507l-22 52q-9 20 -27.5 26t-50.5 6q-13 0 -13 14q0 13 14 13zM365 610l-104 -273h201zM379 818l-80 35q-26 11 -43 11q-47 0 -50 -63l-16 3q-6 16 -6 34q0 39 27 66.5t72 27.5q27 0 60 -12l80 -31
q26 -10 46 -10q48 0 51 60l16 -4q6 -17 6 -34q0 -40 -27 -69.5t-71 -29.5q-30 0 -65 16z" />
    <glyph glyph-name="Adieresis" unicode="&#xc4;" horiz-adv-x="792" 
d="M247 765h164q14 0 19.5 -3.5t9.5 -15.5l188 -530q40 -113 68 -151t77 -38q19 0 19 -15q0 -12 -15 -12h-324q-15 0 -15 12q0 15 18 15q50 0 70.5 9.5t20.5 36.5q0 26 -24 95l-47 130h-230l-75 -199q-5 -13 -5 -24q0 -48 101 -48q7 0 11.5 -4.5t4.5 -9.5q0 -13 -20 -13
h-241q-22 0 -22 14q0 13 18 13q42 0 65.5 25.5t52.5 94.5l210 507l-22 52q-9 20 -27.5 26t-50.5 6q-13 0 -13 14q0 13 14 13zM365 610l-104 -273h201zM192 874q0 28 20.5 48t47.5 20q28 0 48.5 -20t20.5 -48t-20.5 -48.5t-48.5 -20.5q-27 0 -47.5 20.5t-20.5 48.5zM418 874
q0 28 20.5 48t48.5 20t48 -20t20 -48t-20 -48.5t-48 -20.5t-48.5 20.5t-20.5 48.5z" />
    <glyph glyph-name="Aring" unicode="&#xc5;" horiz-adv-x="792" 
d="M247 765h164q14 0 19.5 -3.5t9.5 -15.5l188 -530q40 -113 68 -151t77 -38q19 0 19 -15q0 -12 -15 -12h-324q-15 0 -15 12q0 15 18 15q50 0 70.5 9.5t20.5 36.5q0 26 -24 95l-47 130h-230l-75 -199q-5 -13 -5 -24q0 -48 101 -48q7 0 11.5 -4.5t4.5 -9.5q0 -13 -20 -13
h-241q-22 0 -22 14q0 13 18 13q42 0 65.5 25.5t52.5 94.5l210 507l-22 52q-9 20 -27.5 26t-50.5 6q-13 0 -13 14q0 13 14 13zM365 610l-104 -273h201zM261 906q0 45 31.5 76t82.5 31q49 0 80 -31.5t31 -75.5q0 -46 -31 -77.5t-80 -31.5q-53 0 -83.5 31t-30.5 78zM309 903
q0 -29 18.5 -46.5t48.5 -17.5q28 0 46 18t18 46q0 29 -18 47t-46 18q-30 0 -48.5 -18t-18.5 -47z" />
    <glyph glyph-name="AE" unicode="&#xc6;" horiz-adv-x="1071" 
d="M431 765h549q8 0 11.5 -3t3.5 -13v-167q0 -12 -12 -12q-15 0 -15 13q0 55 -37 103t-106 48h-45q-74 0 -94 -23v-294h97q96 0 110 97q3 18 14 18q9 0 9 -15q0 -14 -3.5 -50.5t-3.5 -69.5q0 -39 3.5 -71t3.5 -39q0 -15 -9 -15q-11 0 -14 18q-14 93 -110 93h-97v-105
q0 -125 6 -181q4 -36 30 -51.5t102 -15.5q64 0 117.5 48t77.5 129q4 16 16 16t12 -13q0 -12 -20 -92t-26 -100q-5 -18 -24 -18h-517q-15 0 -15 12q0 15 19 15q56 0 75 18t23 65q6 84 6 237v36h-226l-180 -284q-8 -13 -8 -25q0 -47 104 -47q16 0 16 -14q0 -13 -20 -13h-239
q-15 0 -15 12q0 15 18 15q27 0 48 19t46 58l387 593q8 13 8 20q0 21 -33 21h-44q-13 0 -13 14q0 13 14 13zM568 730l-209 -313h209v313z" />
    <glyph glyph-name="Ccedilla" unicode="&#xc7;" horiz-adv-x="751" 
d="M690 24q-130 -34 -239 -34q-190 0 -293 99.5t-103 288.5q0 183 109.5 292t311.5 109q102 0 199 -23q15 -5 15 -21v-192q0 -18 -11 -18t-14 20q-13 95 -65.5 146t-140.5 51q-47 0 -91.5 -21t-84 -62t-64 -114t-24.5 -167q0 -163 67 -254t185 -91q206 0 250 208q4 17 16 17
q11 0 11 -11q0 -4 -9 -97t-11 -105q-3 -18 -14 -21zM558 -128q0 -51 -34 -77.5t-85 -26.5q-40 0 -67.5 14.5t-27.5 43.5q0 21 14 36q35 -21 78 -21q56 0 56 39q0 27 -25 42t-67 15q-4 7 -4 13q0 23 49 23q51 0 82 -29.5t31 -71.5z" />
    <glyph glyph-name="Egrave" unicode="&#xc8;" horiz-adv-x="653" 
d="M48 765h514q8 0 11.5 -3t3.5 -13v-167q0 -12 -12 -12q-15 0 -15 13q0 55 -37 103t-106 48h-45q-74 0 -94 -23v-294h97q96 0 110 97q3 18 14 18q9 0 9 -15q0 -14 -3.5 -50.5t-3.5 -69.5q0 -39 3.5 -71t3.5 -39q0 -15 -9 -15q-11 0 -14 18q-14 93 -110 93h-97v-105
q0 -125 6 -181q4 -36 30 -51.5t102 -15.5q64 0 117.5 48t77.5 129q4 16 16 16t12 -13q0 -12 -20 -92t-26 -100q-5 -18 -24 -18h-517q-15 0 -15 12q0 15 19 15q56 0 75 18t23 65q6 84 6 237v66q0 162 -6 246q-4 46 -21.5 62.5t-71.5 16.5q-18 0 -18 14q0 13 15 13zM397 791
q-26 0 -93.5 42.5t-105.5 83.5q-7 7 -7 15q0 12 31.5 31t42.5 19q7 0 10 -8q21 -53 55 -89t89 -72q0 -22 -22 -22z" />
    <glyph glyph-name="Eacute" unicode="&#xc9;" horiz-adv-x="653" 
d="M48 765h514q8 0 11.5 -3t3.5 -13v-167q0 -12 -12 -12q-15 0 -15 13q0 55 -37 103t-106 48h-45q-74 0 -94 -23v-294h97q96 0 110 97q3 18 14 18q9 0 9 -15q0 -14 -3.5 -50.5t-3.5 -69.5q0 -39 3.5 -71t3.5 -39q0 -15 -9 -15q-11 0 -14 18q-14 93 -110 93h-97v-105
q0 -125 6 -181q4 -36 30 -51.5t102 -15.5q64 0 117.5 48t77.5 129q4 16 16 16t12 -13q0 -12 -20 -92t-26 -100q-5 -18 -24 -18h-517q-15 0 -15 12q0 15 19 15q56 0 75 18t23 65q6 84 6 237v66q0 162 -6 246q-4 46 -21.5 62.5t-71.5 16.5q-18 0 -18 14q0 13 15 13zM256 794
q-22 0 -22 22q55 36 89 72t55 89q3 8 10 8q11 0 42.5 -19t31.5 -31q0 -8 -7 -15q-38 -41 -105.5 -83.5t-93.5 -42.5z" />
    <glyph glyph-name="Ecircumflex" unicode="&#xca;" horiz-adv-x="653" 
d="M48 765h514q8 0 11.5 -3t3.5 -13v-167q0 -12 -12 -12q-15 0 -15 13q0 55 -37 103t-106 48h-45q-74 0 -94 -23v-294h97q96 0 110 97q3 18 14 18q9 0 9 -15q0 -14 -3.5 -50.5t-3.5 -69.5q0 -39 3.5 -71t3.5 -39q0 -15 -9 -15q-11 0 -14 18q-14 93 -110 93h-97v-105
q0 -125 6 -181q4 -36 30 -51.5t102 -15.5q64 0 117.5 48t77.5 129q4 16 16 16t12 -13q0 -12 -20 -92t-26 -100q-5 -18 -24 -18h-517q-15 0 -15 12q0 15 19 15q56 0 75 18t23 65q6 84 6 237v66q0 162 -6 246q-4 46 -21.5 62.5t-71.5 16.5q-18 0 -18 14q0 13 15 13zM459 816
l-125 49l-128 -48q-13 -5 -23 -5q-20 0 -29 16l180 125l181 -125q-14 -17 -33 -17q-10 0 -23 5z" />
    <glyph glyph-name="Edieresis" unicode="&#xcb;" horiz-adv-x="653" 
d="M48 765h514q8 0 11.5 -3t3.5 -13v-167q0 -12 -12 -12q-15 0 -15 13q0 55 -37 103t-106 48h-45q-74 0 -94 -23v-294h97q96 0 110 97q3 18 14 18q9 0 9 -15q0 -14 -3.5 -50.5t-3.5 -69.5q0 -39 3.5 -71t3.5 -39q0 -15 -9 -15q-11 0 -14 18q-14 93 -110 93h-97v-105
q0 -125 6 -181q4 -36 30 -51.5t102 -15.5q64 0 117.5 48t77.5 129q4 16 16 16t12 -13q0 -12 -20 -92t-26 -100q-5 -18 -24 -18h-517q-15 0 -15 12q0 15 19 15q56 0 75 18t23 65q6 84 6 237v66q0 162 -6 246q-4 46 -21.5 62.5t-71.5 16.5q-18 0 -18 14q0 13 15 13zM153 874
q0 28 20.5 48t47.5 20q28 0 48.5 -20t20.5 -48t-20.5 -48.5t-48.5 -20.5q-27 0 -47.5 20.5t-20.5 48.5zM379 874q0 28 20.5 48t48.5 20t48 -20t20 -48t-20 -48.5t-48 -20.5t-48.5 20.5t-20.5 48.5z" />
    <glyph glyph-name="Igrave" unicode="&#xcc;" horiz-adv-x="418" 
d="M268 415v-69q0 -194 6 -236q6 -47 26 -65t73 -18q19 0 19 -15q0 -12 -15 -12h-335q-15 0 -15 12q0 15 19 15q56 0 75 18t23 65q6 84 6 237v66q0 162 -6 246q-4 46 -21.5 62.5t-71.5 16.5q-18 0 -18 14q0 13 15 13h315q15 0 15 -13q0 -14 -19 -14q-53 0 -65.5 -14.5
t-19.5 -64.5q-6 -42 -6 -244zM302 791q-26 0 -93.5 42.5t-105.5 83.5q-7 7 -7 15q0 12 31.5 31t42.5 19q7 0 10 -8q21 -53 55 -89t89 -72q0 -22 -22 -22z" />
    <glyph glyph-name="Iacute" unicode="&#xcd;" horiz-adv-x="418" 
d="M268 415v-69q0 -194 6 -236q6 -47 26 -65t73 -18q19 0 19 -15q0 -12 -15 -12h-335q-15 0 -15 12q0 15 19 15q56 0 75 18t23 65q6 84 6 237v66q0 162 -6 246q-4 46 -21.5 62.5t-71.5 16.5q-18 0 -18 14q0 13 15 13h315q15 0 15 -13q0 -14 -19 -14q-53 0 -65.5 -14.5
t-19.5 -64.5q-6 -42 -6 -244zM121 794q-22 0 -22 22q55 36 89 72t55 89q3 8 10 8q11 0 42.5 -19t31.5 -31q0 -8 -7 -15q-38 -41 -105.5 -83.5t-93.5 -42.5z" />
    <glyph glyph-name="Icircumflex" unicode="&#xce;" horiz-adv-x="418" 
d="M268 415v-69q0 -194 6 -236q6 -47 26 -65t73 -18q19 0 19 -15q0 -12 -15 -12h-335q-15 0 -15 12q0 15 19 15q56 0 75 18t23 65q6 84 6 237v66q0 162 -6 246q-4 46 -21.5 62.5t-71.5 16.5q-18 0 -18 14q0 13 15 13h315q15 0 15 -13q0 -14 -19 -14q-53 0 -65.5 -14.5
t-19.5 -64.5q-6 -42 -6 -244zM334 816l-125 49l-128 -48q-13 -5 -23 -5q-20 0 -29 16l180 125l181 -125q-14 -17 -33 -17q-10 0 -23 5z" />
    <glyph glyph-name="Idieresis" unicode="&#xcf;" horiz-adv-x="418" 
d="M268 415v-69q0 -194 6 -236q6 -47 26 -65t73 -18q19 0 19 -15q0 -12 -15 -12h-335q-15 0 -15 12q0 15 19 15q56 0 75 18t23 65q6 84 6 237v66q0 162 -6 246q-4 46 -21.5 62.5t-71.5 16.5q-18 0 -18 14q0 13 15 13h315q15 0 15 -13q0 -14 -19 -14q-53 0 -65.5 -14.5
t-19.5 -64.5q-6 -42 -6 -244zM48 874q0 28 20.5 48t47.5 20q28 0 48.5 -20t20.5 -48t-20.5 -48.5t-48.5 -20.5q-27 0 -47.5 20.5t-20.5 48.5zM234 874q0 28 20.5 48t48.5 20t48 -20t20 -48t-20 -48.5t-48 -20.5t-48.5 20.5t-20.5 48.5z" />
    <glyph glyph-name="Eth" unicode="&#xd0;" horiz-adv-x="821" 
d="M61 406h89q0 169 -6 253q-4 46 -21.5 62.5t-71.5 16.5q-18 0 -18 14q0 13 15 13h308q213 0 316 -93.5t103 -287.5q0 -175 -95 -279.5t-271 -104.5h-367q-15 0 -15 12q0 15 19 15q56 0 75 18t23 65q6 84 6 237v22h-90q-22 0 -22 18q0 19 23 19zM328 727q-31 0 -60 -13
v-308h127q26 0 26 -20q0 -17 -21 -17h-132v-23q0 -190 6 -233q6 -46 26 -62.5t73 -16.5q263 0 263 332q0 190 -76 275.5t-232 85.5z" />
    <glyph glyph-name="Ntilde" unicode="&#xd1;" horiz-adv-x="860" 
d="M44 765h166q10 0 15 -6l452 -551v245q0 137 -6 209q-3 41 -23 58.5t-71 17.5q-16 0 -16 14q0 13 13 13h247q13 0 13 -12q0 -15 -17 -15q-46 0 -63 -16.5t-23 -59.5q-7 -42 -7 -207v-450q0 -20 -17 -20q-9 0 -16 9l-496 607v-294q0 -163 4 -198q6 -42 30 -62.5t76 -20.5
q17 0 17 -14q0 -12 -14 -12h-268q-13 0 -13 12q0 14 17 14q52 0 73 17.5t25 58.5q5 60 5 200v356l-29 40q-30 40 -75 40q-13 0 -13 14q0 13 14 13zM446 818l-80 35q-26 11 -43 11q-47 0 -50 -63l-16 3q-6 16 -6 34q0 39 27 66.5t72 27.5q27 0 60 -12l80 -31q26 -10 46 -10
q48 0 51 60l16 -4q6 -17 6 -34q0 -40 -27 -69.5t-71 -29.5q-30 0 -65 16z" />
    <glyph glyph-name="Ograve" unicode="&#xd2;" horiz-adv-x="847" 
d="M55 384q0 185 98.5 290t268.5 105t268 -104t98 -291t-98 -290.5t-268 -103.5t-268.5 103.5t-98.5 290.5zM417 741q-62 0 -107.5 -29t-70 -80.5t-36 -110.5t-11.5 -129q0 -74 11.5 -136t36.5 -115t71 -83t108 -30q63 0 109 28.5t71.5 79t37 110t11.5 130.5
q0 76 -11.5 138.5t-37.5 115t-72 82t-110 29.5zM496 791q-26 0 -93.5 42.5t-105.5 83.5q-7 7 -7 15q0 12 31.5 31t42.5 19q7 0 10 -8q21 -53 55 -89t89 -72q0 -22 -22 -22z" />
    <glyph glyph-name="Oacute" unicode="&#xd3;" horiz-adv-x="847" 
d="M55 384q0 185 98.5 290t268.5 105t268 -104t98 -291t-98 -290.5t-268 -103.5t-268.5 103.5t-98.5 290.5zM417 741q-62 0 -107.5 -29t-70 -80.5t-36 -110.5t-11.5 -129q0 -74 11.5 -136t36.5 -115t71 -83t108 -30q63 0 109 28.5t71.5 79t37 110t11.5 130.5
q0 76 -11.5 138.5t-37.5 115t-72 82t-110 29.5zM355 794q-22 0 -22 22q55 36 89 72t55 89q3 8 10 8q11 0 42.5 -19t31.5 -31q0 -8 -7 -15q-38 -41 -105.5 -83.5t-93.5 -42.5z" />
    <glyph glyph-name="Ocircumflex" unicode="&#xd4;" horiz-adv-x="847" 
d="M55 384q0 185 98.5 290t268.5 105t268 -104t98 -291t-98 -290.5t-268 -103.5t-268.5 103.5t-98.5 290.5zM417 741q-62 0 -107.5 -29t-70 -80.5t-36 -110.5t-11.5 -129q0 -74 11.5 -136t36.5 -115t71 -83t108 -30q63 0 109 28.5t71.5 79t37 110t11.5 130.5
q0 76 -11.5 138.5t-37.5 115t-72 82t-110 29.5zM548 816l-125 49l-128 -48q-13 -5 -23 -5q-20 0 -29 16l180 125l181 -125q-14 -17 -33 -17q-10 0 -23 5z" />
    <glyph glyph-name="Otilde" unicode="&#xd5;" horiz-adv-x="847" 
d="M55 384q0 185 98.5 290t268.5 105t268 -104t98 -291t-98 -290.5t-268 -103.5t-268.5 103.5t-98.5 290.5zM417 741q-62 0 -107.5 -29t-70 -80.5t-36 -110.5t-11.5 -129q0 -74 11.5 -136t36.5 -115t71 -83t108 -30q63 0 109 28.5t71.5 79t37 110t11.5 130.5
q0 76 -11.5 138.5t-37.5 115t-72 82t-110 29.5zM439 818l-80 35q-26 11 -43 11q-47 0 -50 -63l-16 3q-6 16 -6 34q0 39 27 66.5t72 27.5q27 0 60 -12l80 -31q26 -10 46 -10q48 0 51 60l16 -4q6 -17 6 -34q0 -40 -27 -69.5t-71 -29.5q-30 0 -65 16z" />
    <glyph glyph-name="Odieresis" unicode="&#xd6;" horiz-adv-x="847" 
d="M55 384q0 185 98.5 290t268.5 105t268 -104t98 -291t-98 -290.5t-268 -103.5t-268.5 103.5t-98.5 290.5zM417 741q-62 0 -107.5 -29t-70 -80.5t-36 -110.5t-11.5 -129q0 -74 11.5 -136t36.5 -115t71 -83t108 -30q63 0 109 28.5t71.5 79t37 110t11.5 130.5
q0 76 -11.5 138.5t-37.5 115t-72 82t-110 29.5zM242 874q0 28 20.5 48t47.5 20q28 0 48.5 -20t20.5 -48t-20.5 -48.5t-48.5 -20.5q-27 0 -47.5 20.5t-20.5 48.5zM468 874q0 28 20.5 48t48.5 20t48 -20t20 -48t-20 -48.5t-48 -20.5t-48.5 20.5t-20.5 48.5z" />
    <glyph glyph-name="multiply" unicode="&#xd7;" horiz-adv-x="464" 
d="M414 467l-152 -152l152 -152q10 -10 10 -20q0 -8 -6.5 -13.5t-14.5 -5.5q-11 0 -19 8l-153 153l-152 -153q-9 -9 -19 -9q-8 0 -14 6t-6 15q0 10 9 19l152 152l-152 152q-8 8 -8 17t6.5 15t15.5 6t16 -7l152 -153l152 152q7 7 16 7t15.5 -6.5t6.5 -15.5q0 -8 -7 -15z" />
    <glyph glyph-name="Oslash" unicode="&#xd8;" horiz-adv-x="848" 
d="M41 8l98 103q-83 103 -83 273q0 185 98.5 290t268.5 105q164 0 261 -97l88 93q9 9 17 9q18 0 18 -17q0 -9 -6 -15l-93 -98q81 -103 81 -270q0 -187 -98 -290.5t-268 -103.5q-163 0 -260 94l-94 -98q-7 -7 -15 -7q-18 0 -18 16q0 6 5 13zM418 741q-62 0 -107.5 -29
t-70 -80.5t-36 -110.5t-11.5 -129q0 -117 26 -198l392 412q-58 135 -193 135zM649 376q0 112 -24 191l-392 -410q57 -129 187 -129q63 0 109 28.5t71.5 79t37 110t11.5 130.5z" />
    <glyph glyph-name="Ugrave" unicode="&#xd9;" horiz-adv-x="815" 
d="M119 282v131q0 162 -6 246q-4 46 -21 62.5t-71 16.5q-18 0 -18 15q0 12 15 12h314q15 0 15 -13q0 -14 -18 -14q-50 0 -65 -15.5t-21 -63.5q-5 -35 -5 -244v-127q0 -117 48.5 -179.5t147.5 -62.5q112 0 168 60.5t56 167.5v134q0 158 -6 242q-4 50 -20.5 69t-72.5 19
q-18 0 -18 14q0 13 15 13h242q15 0 15 -12q0 -15 -19 -15q-51 0 -65 -18t-20 -70q-6 -56 -6 -240v-130q0 -142 -70 -216t-221 -74q-293 0 -293 292zM482 791q-26 0 -93.5 42.5t-105.5 83.5q-7 7 -7 15q0 12 31.5 31t42.5 19q7 0 10 -8q21 -53 55 -89t89 -72q0 -22 -22 -22z
" />
    <glyph glyph-name="Uacute" unicode="&#xda;" horiz-adv-x="815" 
d="M119 282v131q0 162 -6 246q-4 46 -21 62.5t-71 16.5q-18 0 -18 15q0 12 15 12h314q15 0 15 -13q0 -14 -18 -14q-50 0 -65 -15.5t-21 -63.5q-5 -35 -5 -244v-127q0 -117 48.5 -179.5t147.5 -62.5q112 0 168 60.5t56 167.5v134q0 158 -6 242q-4 50 -20.5 69t-72.5 19
q-18 0 -18 14q0 13 15 13h242q15 0 15 -12q0 -15 -19 -15q-51 0 -65 -18t-20 -70q-6 -56 -6 -240v-130q0 -142 -70 -216t-221 -74q-293 0 -293 292zM371 794q-22 0 -22 22q55 36 89 72t55 89q3 8 10 8q11 0 42.5 -19t31.5 -31q0 -8 -7 -15q-38 -41 -105.5 -83.5t-93.5 -42.5
z" />
    <glyph glyph-name="Ucircumflex" unicode="&#xdb;" horiz-adv-x="815" 
d="M119 282v131q0 162 -6 246q-4 46 -21 62.5t-71 16.5q-18 0 -18 15q0 12 15 12h314q15 0 15 -13q0 -14 -18 -14q-50 0 -65 -15.5t-21 -63.5q-5 -35 -5 -244v-127q0 -117 48.5 -179.5t147.5 -62.5q112 0 168 60.5t56 167.5v134q0 158 -6 242q-4 50 -20.5 69t-72.5 19
q-18 0 -18 14q0 13 15 13h242q15 0 15 -12q0 -15 -19 -15q-51 0 -65 -18t-20 -70q-6 -56 -6 -240v-130q0 -142 -70 -216t-221 -74q-293 0 -293 292zM554 816l-125 49l-128 -48q-13 -5 -23 -5q-20 0 -29 16l180 125l181 -125q-14 -17 -33 -17q-10 0 -23 5z" />
    <glyph glyph-name="Udieresis" unicode="&#xdc;" horiz-adv-x="815" 
d="M119 282v131q0 162 -6 246q-4 46 -21 62.5t-71 16.5q-18 0 -18 15q0 12 15 12h314q15 0 15 -13q0 -14 -18 -14q-50 0 -65 -15.5t-21 -63.5q-5 -35 -5 -244v-127q0 -117 48.5 -179.5t147.5 -62.5q112 0 168 60.5t56 167.5v134q0 158 -6 242q-4 50 -20.5 69t-72.5 19
q-18 0 -18 14q0 13 15 13h242q15 0 15 -12q0 -15 -19 -15q-51 0 -65 -18t-20 -70q-6 -56 -6 -240v-130q0 -142 -70 -216t-221 -74q-293 0 -293 292zM248 874q0 28 20.5 48t47.5 20q28 0 48.5 -20t20.5 -48t-20.5 -48.5t-48.5 -20.5q-27 0 -47.5 20.5t-20.5 48.5zM474 874
q0 28 20.5 48t48.5 20t48 -20t20 -48t-20 -48.5t-48 -20.5t-48.5 20.5t-20.5 48.5z" />
    <glyph glyph-name="Yacute" unicode="&#xdd;" horiz-adv-x="766" 
d="M613 603l-170 -303q0 -134 6 -190q6 -47 26 -65t74 -18q18 0 18 -14q0 -13 -15 -13h-334q-15 0 -15 13q0 14 18 14q56 0 74.5 18t23.5 65q6 68 6 191l-165 299q-46 83 -72 111t-69 28q-19 0 -19 14q0 12 15 12h310q15 0 15 -12q0 -14 -18 -14q-45 0 -62.5 -6t-17.5 -23
q0 -21 39 -96l144 -278l170 331q8 16 8 27q0 21 -30 32.5t-81 11.5q-17 0 -17 14q0 13 20 13h249q22 0 22 -14q0 -13 -17 -13q-41 0 -63.5 -23.5t-72.5 -111.5zM349 794q-22 0 -22 22q55 36 89 72t55 89q3 8 10 8q11 0 42.5 -19t31.5 -31q0 -8 -7 -15q-38 -41 -105.5 -83.5
t-93.5 -42.5z" />
    <glyph glyph-name="Thorn" unicode="&#xde;" horiz-adv-x="669" 
d="M270 613h93q121 0 189.5 -60t68.5 -168q0 -53 -17.5 -94.5t-44.5 -66t-64 -40t-70 -21t-68 -5.5q-28 0 -28 14q0 12 15 12q60 0 104.5 49.5t44.5 149.5q0 192 -157 192q-42 0 -68 -13v-284q0 -98 5 -168q3 -53 30 -68t105 -15q19 0 19 -15q0 -12 -15 -12h-370
q-15 0 -15 12q0 15 19 15q56 0 75 18t23 65q6 84 6 234v69q0 162 -6 246q-4 46 -21.5 62.5t-71.5 16.5q-18 0 -18 14q0 13 15 13h315q15 0 15 -13q0 -14 -19 -14q-29 0 -46.5 -7.5t-26 -27.5t-11.5 -37t-5 -53z" />
    <glyph glyph-name="germandbls" unicode="&#xdf;" horiz-adv-x="684" 
d="M446 474q0 -47 75 -107q47 -38 67.5 -56t44 -45t31.5 -52.5t8 -59.5q0 -83 -57.5 -123.5t-146.5 -40.5q-161 0 -161 107q0 38 29.5 56.5t75.5 18.5q-5 -32 -5 -56q0 -96 74 -96q44 0 67 27t23 62q0 44 -22 76t-86 89q-62 55 -83.5 88t-21.5 75q0 33 16.5 59.5t40 44.5
l47.5 36t40.5 45t16.5 61q0 52 -43 81t-110 29q-65 0 -102 -35.5t-37 -128.5v-505q0 -55 7 -76t30 -21q18 0 18 -14q0 -13 -15 -13h-251q-15 0 -15 12q0 15 18 15q58 0 76 18t22 66q6 84 6 163v43q0 184 -9 238h-65q-29 0 -29 18q0 8 6 14t15 6h76q0 233 247 233
q93 0 154 -35.5t61 -109.5q0 -41 -21 -71t-45.5 -45t-45.5 -38.5t-21 -52.5z" />
    <glyph glyph-name="agrave" unicode="&#xe0;" horiz-adv-x="548" 
d="M333 307v66q0 101 -24.5 154t-83.5 53q-44 0 -62.5 -32.5t-18.5 -76.5q0 -25 5 -45q-17 -4 -34 -4q-35 0 -54 19t-19 51q0 53 57 85.5t151 32.5q195 0 195 -166q0 -4 -3 -97t-3 -182q0 -35 0.5 -50.5t4.5 -32.5t12 -22.5t23 -5.5q16 0 26 12t15.5 24t10.5 12q9 0 9 -16
q0 -39 -26.5 -67.5t-77.5 -28.5q-76 0 -104 69q-64 -69 -157 -69q-68 0 -111.5 36.5t-43.5 99.5q0 54 24 91.5t65 56.5t84.5 27t93.5 8q16 0 46 -2zM137 146q0 -44 26 -67t71 -23q52 0 94 30q5 33 5 192h-22q-80 0 -127 -33t-47 -99zM331 658q0 -22 -22 -22
q-83 104 -172 139q-8 3 -8 10q0 11 19 42.5t31 31.5q8 0 15 -7q44 -42 90.5 -105.5t46.5 -88.5z" />
    <glyph glyph-name="aacute" unicode="&#xe1;" horiz-adv-x="548" 
d="M333 307v66q0 101 -24.5 154t-83.5 53q-44 0 -62.5 -32.5t-18.5 -76.5q0 -25 5 -45q-17 -4 -34 -4q-35 0 -54 19t-19 51q0 53 57 85.5t151 32.5q195 0 195 -166q0 -4 -3 -97t-3 -182q0 -35 0.5 -50.5t4.5 -32.5t12 -22.5t23 -5.5q16 0 26 12t15.5 24t10.5 12q9 0 9 -16
q0 -39 -26.5 -67.5t-77.5 -28.5q-76 0 -104 69q-64 -69 -157 -69q-68 0 -111.5 36.5t-43.5 99.5q0 54 24 91.5t65 56.5t84.5 27t93.5 8q16 0 46 -2zM137 146q0 -44 26 -67t71 -23q52 0 94 30q5 33 5 192h-22q-80 0 -127 -33t-47 -99zM182 658q0 25 46.5 88.5t90.5 105.5
q7 7 15 7q12 0 31 -31.5t19 -42.5q0 -7 -8 -10q-89 -35 -172 -139q-22 0 -22 22z" />
    <glyph glyph-name="acircumflex" unicode="&#xe2;" horiz-adv-x="548" 
d="M333 307v66q0 101 -24.5 154t-83.5 53q-44 0 -62.5 -32.5t-18.5 -76.5q0 -25 5 -45q-17 -4 -34 -4q-35 0 -54 19t-19 51q0 53 57 85.5t151 32.5q195 0 195 -166q0 -4 -3 -97t-3 -182q0 -35 0.5 -50.5t4.5 -32.5t12 -22.5t23 -5.5q16 0 26 12t15.5 24t10.5 12q9 0 9 -16
q0 -39 -26.5 -67.5t-77.5 -28.5q-76 0 -104 69q-64 -69 -157 -69q-68 0 -111.5 36.5t-43.5 99.5q0 54 24 91.5t65 56.5t84.5 27t93.5 8q16 0 46 -2zM137 146q0 -44 26 -67t71 -23q52 0 94 30q5 33 5 192h-22q-80 0 -127 -33t-47 -99zM354 643l-107 69l-109 -68q-8 -5 -18 -5
q-18 0 -27 15l154 154l155 -154q-14 -17 -30 -17q-9 0 -18 6z" />
    <glyph glyph-name="atilde" unicode="&#xe3;" horiz-adv-x="548" 
d="M333 307v66q0 101 -24.5 154t-83.5 53q-44 0 -62.5 -32.5t-18.5 -76.5q0 -25 5 -45q-17 -4 -34 -4q-35 0 -54 19t-19 51q0 53 57 85.5t151 32.5q195 0 195 -166q0 -4 -3 -97t-3 -182q0 -35 0.5 -50.5t4.5 -32.5t12 -22.5t23 -5.5q16 0 26 12t15.5 24t10.5 12q9 0 9 -16
q0 -39 -26.5 -67.5t-77.5 -28.5q-76 0 -104 69q-64 -69 -157 -69q-68 0 -111.5 36.5t-43.5 99.5q0 54 24 91.5t65 56.5t84.5 27t93.5 8q16 0 46 -2zM137 146q0 -44 26 -67t71 -23q52 0 94 30q5 33 5 192h-22q-80 0 -127 -33t-47 -99zM265 691l-80 35q-26 11 -43 11
q-47 0 -50 -63l-16 3q-6 17 -6 34q0 39 27 66.5t72 27.5q27 0 60 -12l80 -31q26 -10 46 -10q48 0 51 60l16 -4q6 -17 6 -34q0 -40 -27 -69.5t-71 -29.5q-30 0 -65 16z" />
    <glyph glyph-name="adieresis" unicode="&#xe4;" horiz-adv-x="548" 
d="M333 307v66q0 101 -24.5 154t-83.5 53q-44 0 -62.5 -32.5t-18.5 -76.5q0 -25 5 -45q-17 -4 -34 -4q-35 0 -54 19t-19 51q0 53 57 85.5t151 32.5q195 0 195 -166q0 -4 -3 -97t-3 -182q0 -35 0.5 -50.5t4.5 -32.5t12 -22.5t23 -5.5q16 0 26 12t15.5 24t10.5 12q9 0 9 -16
q0 -39 -26.5 -67.5t-77.5 -28.5q-76 0 -104 69q-64 -69 -157 -69q-68 0 -111.5 36.5t-43.5 99.5q0 54 24 91.5t65 56.5t84.5 27t93.5 8q16 0 46 -2zM137 146q0 -44 26 -67t71 -23q52 0 94 30q5 33 5 192h-22q-80 0 -127 -33t-47 -99zM68 739q0 28 20.5 48t47.5 20
q28 0 48.5 -20t20.5 -48t-20.5 -48.5t-48.5 -20.5q-27 0 -47.5 20.5t-20.5 48.5zM294 739q0 28 20.5 48t48.5 20t48 -20t20 -48t-20 -48.5t-48 -20.5t-48.5 20.5t-20.5 48.5z" />
    <glyph glyph-name="aring" unicode="&#xe5;" horiz-adv-x="548" 
d="M333 307v66q0 101 -24.5 154t-83.5 53q-44 0 -62.5 -32.5t-18.5 -76.5q0 -25 5 -45q-17 -4 -34 -4q-35 0 -54 19t-19 51q0 53 57 85.5t151 32.5q195 0 195 -166q0 -4 -3 -97t-3 -182q0 -35 0.5 -50.5t4.5 -32.5t12 -22.5t23 -5.5q16 0 26 12t15.5 24t10.5 12q9 0 9 -16
q0 -39 -26.5 -67.5t-77.5 -28.5q-76 0 -104 69q-64 -69 -157 -69q-68 0 -111.5 36.5t-43.5 99.5q0 54 24 91.5t65 56.5t84.5 27t93.5 8q16 0 46 -2zM137 146q0 -44 26 -67t71 -23q52 0 94 30q5 33 5 192h-22q-80 0 -127 -33t-47 -99zM137 770q0 45 31.5 76t82.5 31
q49 0 80 -31.5t31 -75.5q0 -46 -31 -77.5t-80 -31.5q-53 0 -83.5 31t-30.5 78zM185 767q0 -29 18.5 -46.5t48.5 -17.5q28 0 46 18t18 46q0 29 -18 47t-46 18q-30 0 -48.5 -18t-18.5 -47z" />
    <glyph glyph-name="ae" unicode="&#xe6;" horiz-adv-x="812" 
d="M718 366l-288 -49q8 -119 55 -184.5t123 -65.5q54 0 89.5 21.5t62.5 76.5q4 8 11 8q8 0 8 -12q0 -58 -55 -114.5t-158 -56.5q-124 0 -191 82q-88 -82 -200 -82q-68 0 -111.5 36.5t-43.5 99.5q0 42 20 76t48 54.5t72 37.5t77 24.5t77 15.5q5 46 18 86q-11 160 -107 160
q-44 0 -62.5 -32.5t-18.5 -76.5q0 -25 5 -45q-17 -4 -34 -4q-35 0 -54 19t-19 51q0 53 57 85.5t151 32.5q115 0 158 -72q64 72 175 72q35 0 67.5 -10t62.5 -31t48 -60.5t18 -93.5q0 -25 -12.5 -33.5t-48.5 -15.5zM429 353l195 32q23 4 31 12t8 25q0 156 -96 156
q-60 0 -99 -68.5t-39 -156.5zM312 282v15q-175 -32 -175 -151q0 -44 26 -67t71 -23q58 0 124 39q-46 72 -46 187z" />
    <glyph glyph-name="ccedilla" unicode="&#xe7;" horiz-adv-x="505" 
d="M315 69q53 0 89.5 21t63.5 82q5 11 13 11q9 0 9 -15q0 -25 -13 -54t-37.5 -57.5t-68.5 -47.5t-98 -19q-100 0 -166.5 71.5t-66.5 214.5q0 165 75.5 249.5t200.5 84.5q27 0 53 -4.5t54.5 -15t45.5 -33t17 -54.5q0 -74 -90 -74q-4 24 -7 40t-10.5 39t-17.5 36.5t-27.5 24
t-39.5 10.5q-131 0 -131 -277q0 -107 41.5 -170t110.5 -63zM392 -128q0 -51 -34 -77.5t-85 -26.5q-40 0 -67.5 14.5t-27.5 43.5q0 21 14 36q35 -21 78 -21q56 0 56 39q0 27 -25 42t-67 15q-4 7 -4 13q0 23 49 23q51 0 82 -29.5t31 -71.5z" />
    <glyph glyph-name="egrave" unicode="&#xe8;" horiz-adv-x="540" 
d="M507 161q0 -58 -55 -114.5t-158 -56.5q-116 0 -185 74.5t-69 217.5q0 145 71 236.5t204 91.5q34 0 65.5 -10t61 -31t47.5 -61t18 -93q0 -27 -14 -38t-47 -11h-289q0 -141 48 -220t131 -79q54 0 89.5 21.5t62.5 76.5q4 8 11 8q8 0 8 -12zM295 578q-59 0 -92.5 -52.5
t-43.5 -133.5l184 13q23 1 31 10t8 27q0 136 -87 136zM346 658q0 -22 -22 -22q-83 104 -172 139q-8 3 -8 10q0 11 19 42.5t31 31.5q8 0 15 -7q44 -42 90.5 -105.5t46.5 -88.5z" />
    <glyph glyph-name="eacute" unicode="&#xe9;" horiz-adv-x="540" 
d="M507 161q0 -58 -55 -114.5t-158 -56.5q-116 0 -185 74.5t-69 217.5q0 145 71 236.5t204 91.5q34 0 65.5 -10t61 -31t47.5 -61t18 -93q0 -27 -14 -38t-47 -11h-289q0 -141 48 -220t131 -79q54 0 89.5 21.5t62.5 76.5q4 8 11 8q8 0 8 -12zM295 578q-59 0 -92.5 -52.5
t-43.5 -133.5l184 13q23 1 31 10t8 27q0 136 -87 136zM247 658q0 25 46.5 88.5t90.5 105.5q7 7 15 7q12 0 31 -31.5t19 -42.5q0 -7 -8 -10q-89 -35 -172 -139q-22 0 -22 22z" />
    <glyph glyph-name="ecircumflex" unicode="&#xea;" horiz-adv-x="540" 
d="M507 161q0 -58 -55 -114.5t-158 -56.5q-116 0 -185 74.5t-69 217.5q0 145 71 236.5t204 91.5q34 0 65.5 -10t61 -31t47.5 -61t18 -93q0 -27 -14 -38t-47 -11h-289q0 -141 48 -220t131 -79q54 0 89.5 21.5t62.5 76.5q4 8 11 8q8 0 8 -12zM295 578q-59 0 -92.5 -52.5
t-43.5 -133.5l184 13q23 1 31 10t8 27q0 136 -87 136zM399 643l-107 69l-109 -68q-7 -5 -18 -5q-18 0 -27 15l154 154l155 -154q-14 -17 -30 -17q-9 0 -18 6z" />
    <glyph glyph-name="edieresis" unicode="&#xeb;" horiz-adv-x="540" 
d="M507 161q0 -58 -55 -114.5t-158 -56.5q-116 0 -185 74.5t-69 217.5q0 145 71 236.5t204 91.5q34 0 65.5 -10t61 -31t47.5 -61t18 -93q0 -27 -14 -38t-47 -11h-289q0 -141 48 -220t131 -79q54 0 89.5 21.5t62.5 76.5q4 8 11 8q8 0 8 -12zM295 578q-59 0 -92.5 -52.5
t-43.5 -133.5l184 13q23 1 31 10t8 27q0 136 -87 136zM113 739q0 28 20.5 48t47.5 20q28 0 48.5 -20t20.5 -48t-20.5 -48.5t-48.5 -20.5q-27 0 -47.5 20.5t-20.5 48.5zM339 739q0 28 20.5 48t48.5 20t48 -20t20 -48t-20 -48.5t-48 -20.5t-48.5 20.5t-20.5 48.5z" />
    <glyph glyph-name="igrave" unicode="&#xec;" horiz-adv-x="322" 
d="M223 549q0 -6 -2 -82t-2 -150v-43q0 -122 6 -164q4 -29 6 -39.5t9.5 -24t20.5 -17.5t36 -4q19 0 19 -13q0 -12 -15 -12h-275q-15 0 -15 12q0 13 18 13q43 0 58 19t19 66q6 84 6 164v69q0 110 -10.5 156.5t-50.5 46.5h-26q-14 0 -14 10t14 14q33 9 86.5 18.5t73.5 9.5
q38 0 38 -49zM212 658q0 -22 -22 -22q-83 104 -172 139q-8 3 -8 10q0 11 19 42.5t31 31.5q8 0 15 -7q44 -42 90.5 -105.5t46.5 -88.5z" />
    <glyph glyph-name="iacute" unicode="&#xed;" horiz-adv-x="322" 
d="M223 549q0 -6 -2 -82t-2 -150v-43q0 -122 6 -164q4 -29 6 -39.5t9.5 -24t20.5 -17.5t36 -4q19 0 19 -13q0 -12 -15 -12h-275q-15 0 -15 12q0 13 18 13q43 0 58 19t19 66q6 84 6 164v69q0 110 -10.5 156.5t-50.5 46.5h-26q-14 0 -14 10t14 14q33 9 86.5 18.5t73.5 9.5
q38 0 38 -49zM83 658q0 25 46.5 88.5t90.5 105.5q7 7 15 7q12 0 31 -31.5t19 -42.5q0 -7 -8 -10q-89 -35 -172 -139q-22 0 -22 22z" />
    <glyph glyph-name="icircumflex" unicode="&#xee;" horiz-adv-x="322" 
d="M223 549q0 -6 -2 -82t-2 -150v-43q0 -122 6 -164q4 -29 6 -39.5t9.5 -24t20.5 -17.5t36 -4q19 0 19 -13q0 -12 -15 -12h-275q-15 0 -15 12q0 13 18 13q43 0 58 19t19 66q6 84 6 164v69q0 110 -10.5 156.5t-50.5 46.5h-26q-14 0 -14 10t14 14q33 9 86.5 18.5t73.5 9.5
q38 0 38 -49zM255 643l-107 69l-109 -68q-7 -5 -18 -5q-18 0 -27 15l154 154l155 -154q-14 -17 -30 -17q-9 0 -18 6z" />
    <glyph glyph-name="idieresis" unicode="&#xef;" horiz-adv-x="322" 
d="M223 549q0 -6 -2 -82t-2 -150v-43q0 -122 6 -164q4 -29 6 -39.5t9.5 -24t20.5 -17.5t36 -4q19 0 19 -13q0 -12 -15 -12h-275q-15 0 -15 12q0 13 18 13q43 0 58 19t19 66q6 84 6 164v69q0 110 -10.5 156.5t-50.5 46.5h-26q-14 0 -14 10t14 14q33 9 86.5 18.5t73.5 9.5
q38 0 38 -49zM4 739q0 28 20.5 48t47.5 20q28 0 48.5 -20t20.5 -48t-20.5 -48.5t-48.5 -20.5q-27 0 -47.5 20.5t-20.5 48.5zM170 739q0 28 20.5 48t48.5 20t48 -20t20 -48t-20 -48.5t-48 -20.5t-48.5 20.5t-20.5 48.5z" />
    <glyph glyph-name="eth" unicode="&#xf0;" horiz-adv-x="622" 
d="M483 755l-73 -21q79 -61 125.5 -156t46.5 -217q0 -192 -73 -281.5t-203 -89.5q-116 0 -191 74t-75 223q0 146 79.5 234.5t190.5 88.5q68 0 99 -22q-29 82 -80 122l-151 -43q-8 -2 -11 -2q-19 0 -19 16t22 22l132 36q-59 46 -147 46q-28 0 -28 17q0 18 29 18
q120 0 216 -59l96 27q10 2 12 2q19 0 19 -16q0 -15 -16 -19zM459 312q0 117 -31.5 188.5t-100.5 71.5q-76 0 -122.5 -77.5t-46.5 -202.5q0 -134 45 -199.5t108 -65.5q148 0 148 285z" />
    <glyph glyph-name="ntilde" unicode="&#xf1;" horiz-adv-x="674" 
d="M227 489l30 25q40 33 63 50t57 31.5t68 14.5q61 0 96.5 -42t35.5 -108v-357q0 -44 16 -60.5t57 -16.5q18 0 18 -14q0 -12 -15 -12h-271q-15 0 -15 12q0 14 18 14q32 0 47 19t22.5 76.5t7.5 175.5q0 101 -10.5 156t-26.5 71t-44 16q-9 0 -18.5 -1.5t-20.5 -7.5t-18.5 -9.5
t-22 -14.5l-21.5 -16.5l-27 -21.5l-28 -22q-1 -33 -1 -130v-43q0 -124 6 -166q4 -28 6 -39t9.5 -23.5t20.5 -16t36 -3.5q19 0 19 -14q0 -12 -15 -12h-275q-15 0 -15 12q0 14 18 14q52 1 68 37q15 34 15 173v38v48q0 39 -0.5 60.5t-2 52t-6 46.5t-11.5 33t-18 24t-27 7h-28
q-13 0 -13 10q0 13 72.5 28t106.5 15q38 0 38 -49q0 -39 -1 -60zM355 691l-80 35q-26 11 -43 11q-47 0 -50 -63l-16 3q-6 17 -6 34q0 39 27 66.5t72 27.5q27 0 60 -12l80 -31q26 -10 46 -10q48 0 51 60l16 -4q6 -17 6 -34q0 -40 -27 -69.5t-71 -29.5q-30 0 -65 16z" />
    <glyph glyph-name="ograve" unicode="&#xf2;" horiz-adv-x="615" 
d="M290 -10q-119 0 -184.5 74.5t-65.5 211.5q0 166 77.5 250t206.5 84q118 0 184.5 -77.5t66.5 -214.5q0 -165 -77.5 -246.5t-207.5 -81.5zM317 25q74 0 104.5 67.5t30.5 190.5q0 132 -36.5 212.5t-112.5 80.5q-73 0 -107 -71.5t-34 -192.5q0 -130 38.5 -208.5t116.5 -78.5z
M362 658q0 -22 -22 -22q-83 104 -172 139q-8 3 -8 10q0 11 19 42.5t31 31.5q8 0 15 -7q44 -42 90.5 -105.5t46.5 -88.5z" />
    <glyph glyph-name="oacute" unicode="&#xf3;" horiz-adv-x="615" 
d="M290 -10q-119 0 -184.5 74.5t-65.5 211.5q0 166 77.5 250t206.5 84q118 0 184.5 -77.5t66.5 -214.5q0 -165 -77.5 -246.5t-207.5 -81.5zM317 25q74 0 104.5 67.5t30.5 190.5q0 132 -36.5 212.5t-112.5 80.5q-73 0 -107 -71.5t-34 -192.5q0 -130 38.5 -208.5t116.5 -78.5z
M273 658q0 25 46.5 88.5t90.5 105.5q7 7 15 7q12 0 31 -31.5t19 -42.5q0 -7 -8 -10q-89 -35 -172 -139q-22 0 -22 22z" />
    <glyph glyph-name="ocircumflex" unicode="&#xf4;" horiz-adv-x="615" 
d="M290 -10q-119 0 -184.5 74.5t-65.5 211.5q0 166 77.5 250t206.5 84q118 0 184.5 -77.5t66.5 -214.5q0 -165 -77.5 -246.5t-207.5 -81.5zM317 25q74 0 104.5 67.5t30.5 190.5q0 132 -36.5 212.5t-112.5 80.5q-73 0 -107 -71.5t-34 -192.5q0 -130 38.5 -208.5t116.5 -78.5z
M415 643l-107 69l-109 -68q-7 -5 -18 -5q-18 0 -27 15l154 154l155 -154q-14 -17 -30 -17q-9 0 -18 6z" />
    <glyph glyph-name="otilde" unicode="&#xf5;" horiz-adv-x="615" 
d="M290 -10q-119 0 -184.5 74.5t-65.5 211.5q0 166 77.5 250t206.5 84q118 0 184.5 -77.5t66.5 -214.5q0 -165 -77.5 -246.5t-207.5 -81.5zM317 25q74 0 104.5 67.5t30.5 190.5q0 132 -36.5 212.5t-112.5 80.5q-73 0 -107 -71.5t-34 -192.5q0 -130 38.5 -208.5t116.5 -78.5z
M326 691l-80 35q-26 11 -43 11q-47 0 -50 -63l-16 3q-6 17 -6 34q0 39 27 66.5t72 27.5q27 0 60 -12l80 -31q26 -10 46 -10q48 0 51 60l16 -4q6 -17 6 -34q0 -40 -27 -69.5t-71 -29.5q-30 0 -65 16z" />
    <glyph glyph-name="odieresis" unicode="&#xf6;" horiz-adv-x="615" 
d="M290 -10q-119 0 -184.5 74.5t-65.5 211.5q0 166 77.5 250t206.5 84q118 0 184.5 -77.5t66.5 -214.5q0 -165 -77.5 -246.5t-207.5 -81.5zM317 25q74 0 104.5 67.5t30.5 190.5q0 132 -36.5 212.5t-112.5 80.5q-73 0 -107 -71.5t-34 -192.5q0 -130 38.5 -208.5t116.5 -78.5z
M129 739q0 28 20.5 48t47.5 20q28 0 48.5 -20t20.5 -48t-20.5 -48.5t-48.5 -20.5q-27 0 -47.5 20.5t-20.5 48.5zM355 739q0 28 20.5 48t48.5 20t48 -20t20 -48t-20 -48.5t-48 -20.5t-48.5 20.5t-20.5 48.5z" />
    <glyph glyph-name="divide" unicode="&#xf7;" horiz-adv-x="572" 
d="M234 121q0 22 15 37.5t37 15.5t37.5 -15.5t15.5 -37.5t-15.5 -37t-37.5 -15t-37 15t-15 37zM510 281h-444q-26 0 -26 20q0 9 7 16t19 7h443q23 0 23 -21q0 -9 -6 -15.5t-16 -6.5zM234 485q0 22 15 37.5t37 15.5t37.5 -15.5t15.5 -37.5t-15.5 -37t-37.5 -15t-37 15t-15 37
z" />
    <glyph glyph-name="oslash" unicode="&#xf8;" horiz-adv-x="615" 
d="M49 13l51 57q-60 75 -60 206q0 166 77.5 250t206.5 84q121 0 188 -82l60 67q8 9 17 9q14 0 14 -16q0 -9 -7 -17l-64 -72q43 -72 43 -181q0 -165 -77.5 -246.5t-207.5 -81.5q-102 0 -165 55l-53 -59q-6 -7 -16 -7q-16 0 -16 16q0 7 9 18zM162 312q0 -92 17 -154l255 284
q-35 134 -131 134q-73 0 -107 -71.5t-34 -192.5zM317 25q74 0 104.5 67.5t30.5 190.5q0 63 -9 117l-251 -280q40 -95 125 -95z" />
    <glyph glyph-name="ugrave" unicode="&#xf9;" horiz-adv-x="630" 
d="M417 59q-95 -69 -188 -69q-66 0 -106 38t-40 107v208q0 109 -11 156t-50 47h-27q-14 0 -14 10t14 14q33 9 86.5 18.5t73.5 9.5q39 0 39 -49q0 -6 -2.5 -82t-2.5 -150v-136q0 -129 97 -129q52 0 127 37q4 56 4 192v62q0 110 -10.5 156.5t-49.5 46.5h-27q-14 0 -14 10
t14 14q33 9 86.5 18.5t73.5 9.5q39 0 39 -49q0 -6 -2.5 -82t-2.5 -150v-152q0 -35 0.5 -50.5t4.5 -32.5t12 -22.5t23 -5.5q16 0 26 12t15.5 24t10.5 12q9 0 9 -16q0 -39 -26.5 -67.5t-77.5 -28.5q-76 0 -104 69zM354 658q0 -22 -22 -22q-83 104 -172 139q-8 3 -8 10
q0 11 19 42.5t31 31.5q8 0 15 -7q44 -42 90.5 -105.5t46.5 -88.5z" />
    <glyph glyph-name="uacute" unicode="&#xfa;" horiz-adv-x="630" 
d="M417 59q-95 -69 -188 -69q-66 0 -106 38t-40 107v208q0 109 -11 156t-50 47h-27q-14 0 -14 10t14 14q33 9 86.5 18.5t73.5 9.5q39 0 39 -49q0 -6 -2.5 -82t-2.5 -150v-136q0 -129 97 -129q52 0 127 37q4 56 4 192v62q0 110 -10.5 156.5t-49.5 46.5h-27q-14 0 -14 10
t14 14q33 9 86.5 18.5t73.5 9.5q39 0 39 -49q0 -6 -2.5 -82t-2.5 -150v-152q0 -35 0.5 -50.5t4.5 -32.5t12 -22.5t23 -5.5q16 0 26 12t15.5 24t10.5 12q9 0 9 -16q0 -39 -26.5 -67.5t-77.5 -28.5q-76 0 -104 69zM235 658q0 25 46.5 88.5t90.5 105.5q7 7 15 7q12 0 31 -31.5
t19 -42.5q0 -7 -8 -10q-89 -35 -172 -139q-22 0 -22 22z" />
    <glyph glyph-name="ucircumflex" unicode="&#xfb;" horiz-adv-x="630" 
d="M417 59q-95 -69 -188 -69q-66 0 -106 38t-40 107v208q0 109 -11 156t-50 47h-27q-14 0 -14 10t14 14q33 9 86.5 18.5t73.5 9.5q39 0 39 -49q0 -6 -2.5 -82t-2.5 -150v-136q0 -129 97 -129q52 0 127 37q4 56 4 192v62q0 110 -10.5 156.5t-49.5 46.5h-27q-14 0 -14 10
t14 14q33 9 86.5 18.5t73.5 9.5q39 0 39 -49q0 -6 -2.5 -82t-2.5 -150v-152q0 -35 0.5 -50.5t4.5 -32.5t12 -22.5t23 -5.5q16 0 26 12t15.5 24t10.5 12q9 0 9 -16q0 -39 -26.5 -67.5t-77.5 -28.5q-76 0 -104 69zM397 643l-107 69l-109 -68q-7 -5 -18 -5q-18 0 -27 15
l154 154l155 -154q-14 -17 -30 -17q-9 0 -18 6z" />
    <glyph glyph-name="udieresis" unicode="&#xfc;" horiz-adv-x="630" 
d="M417 59q-95 -69 -188 -69q-66 0 -106 38t-40 107v208q0 109 -11 156t-50 47h-27q-14 0 -14 10t14 14q33 9 86.5 18.5t73.5 9.5q39 0 39 -49q0 -6 -2.5 -82t-2.5 -150v-136q0 -129 97 -129q52 0 127 37q4 56 4 192v62q0 110 -10.5 156.5t-49.5 46.5h-27q-14 0 -14 10
t14 14q33 9 86.5 18.5t73.5 9.5q39 0 39 -49q0 -6 -2.5 -82t-2.5 -150v-152q0 -35 0.5 -50.5t4.5 -32.5t12 -22.5t23 -5.5q16 0 26 12t15.5 24t10.5 12q9 0 9 -16q0 -39 -26.5 -67.5t-77.5 -28.5q-76 0 -104 69zM111 739q0 28 20.5 48t47.5 20q28 0 48.5 -20t20.5 -48
t-20.5 -48.5t-48.5 -20.5q-27 0 -47.5 20.5t-20.5 48.5zM337 739q0 28 20.5 48t48.5 20t48 -20t20 -48t-20 -48.5t-48 -20.5t-48.5 20.5t-20.5 48.5z" />
    <glyph glyph-name="yacute" unicode="&#xfd;" horiz-adv-x="601" 
d="M482 444l-198 -563q-34 -96 -112 -96q-44 0 -66 23t-22 53q0 38 30 48q22 -37 65 -37q30 0 44.5 12.5t26.5 41.5l33 78l-185 425q-41 95 -57 118.5t-46 23.5q-14 0 -14 12q0 15 18 15h249q10 0 10 -9q0 -12 -18 -12q-62 0 -62 -37q0 -8 5 -20l153 -378l105 363q4 18 4 24
q0 45 -74 45q-7 0 -12 4t-5 9q0 11 19 11h216q22 0 22 -13q0 -11 -17 -11q-67 0 -112 -130zM252 658q0 25 46.5 88.5t90.5 105.5q7 7 15 7q12 0 31 -31.5t19 -42.5q0 -7 -8 -10q-89 -35 -172 -139q-22 0 -22 22z" />
    <glyph glyph-name="thorn" unicode="&#xfe;" horiz-adv-x="679" 
d="M215 453v-315q0 -46 29 -77t81 -31q81 0 124.5 75.5t43.5 192.5q0 239 -130 239q-62 0 -148 -84zM215 770v-280q50 57 95.5 88.5t101.5 31.5q198 0 198 -284q0 -148 -80 -240t-206 -92q-58 0 -109 22v-56.5t1.5 -44t4 -36t7 -25t11 -19.5t17 -10.5t23.5 -7t31 -1.5
t18 -13q0 -12 -15 -12h-312q-15 0 -15 12q0 13 18 13q56 0 75 18.5t23 66.5q6 84 6 138v588q0 81 -11.5 105.5t-53.5 24.5h-25q-16 0 -16 9t16 13q11 3 50.5 14.5t67.5 18.5t41 7q38 0 38 -49z" />
    <glyph glyph-name="ydieresis" unicode="&#xff;" horiz-adv-x="601" 
d="M482 444l-198 -563q-34 -96 -112 -96q-44 0 -66 23t-22 53q0 38 30 48q22 -37 65 -37q30 0 44.5 12.5t26.5 41.5l33 78l-185 425q-41 95 -57 118.5t-46 23.5q-14 0 -14 12q0 15 18 15h249q10 0 10 -9q0 -12 -18 -12q-62 0 -62 -37q0 -8 5 -20l153 -378l105 363q4 18 4 24
q0 45 -74 45q-7 0 -12 4t-5 9q0 11 19 11h216q22 0 22 -13q0 -11 -17 -11q-67 0 -112 -130zM138 739q0 28 20.5 48t47.5 20q28 0 48.5 -20t20.5 -48t-20.5 -48.5t-48.5 -20.5q-27 0 -47.5 20.5t-20.5 48.5zM364 739q0 28 20.5 48t48.5 20t48 -20t20 -48t-20 -48.5t-48 -20.5
t-48.5 20.5t-20.5 48.5z" />
    <glyph glyph-name="Amacron" unicode="&#x100;" horiz-adv-x="792" 
d="M247 765h164q14 0 19.5 -3.5t9.5 -15.5l188 -530q40 -113 68 -151t77 -38q19 0 19 -15q0 -12 -15 -12h-324q-15 0 -15 12q0 15 18 15q50 0 70.5 9.5t20.5 36.5q0 26 -24 95l-47 130h-230l-75 -199q-5 -13 -5 -24q0 -48 101 -48q7 0 11.5 -4.5t4.5 -9.5q0 -13 -20 -13
h-241q-22 0 -22 14q0 13 18 13q42 0 65.5 25.5t52.5 94.5l210 507l-22 52q-9 20 -27.5 26t-50.5 6q-13 0 -13 14q0 13 14 13zM365 610l-104 -273h201zM523 833h-304q-25 0 -25 22q0 10 7 17t20 7h300q13 0 20.5 -7t7.5 -17q0 -9 -7 -15.5t-19 -6.5z" />
    <glyph glyph-name="amacron" unicode="&#x101;" horiz-adv-x="548" 
d="M333 307v66q0 101 -24.5 154t-83.5 53q-44 0 -62.5 -32.5t-18.5 -76.5q0 -25 5 -45q-17 -4 -34 -4q-35 0 -54 19t-19 51q0 53 57 85.5t151 32.5q195 0 195 -166q0 -4 -3 -97t-3 -182q0 -35 0.5 -50.5t4.5 -32.5t12 -22.5t23 -5.5q16 0 26 12t15.5 24t10.5 12q9 0 9 -16
q0 -39 -26.5 -67.5t-77.5 -28.5q-76 0 -104 69q-64 -69 -157 -69q-68 0 -111.5 36.5t-43.5 99.5q0 54 24 91.5t65 56.5t84.5 27t93.5 8q16 0 46 -2zM137 146q0 -44 26 -67t71 -23q52 0 94 30q5 33 5 192h-22q-80 0 -127 -33t-47 -99zM399 670h-304q-25 0 -25 22q0 10 7 17
t20 7h300q13 0 20.5 -7t7.5 -17q0 -9 -7 -15.5t-19 -6.5z" />
    <glyph glyph-name="Abreve" unicode="&#x102;" horiz-adv-x="792" 
d="M247 765h164q14 0 19.5 -3.5t9.5 -15.5l188 -530q40 -113 68 -151t77 -38q19 0 19 -15q0 -12 -15 -12h-324q-15 0 -15 12q0 15 18 15q50 0 70.5 9.5t20.5 36.5q0 26 -24 95l-47 130h-230l-75 -199q-5 -13 -5 -24q0 -48 101 -48q7 0 11.5 -4.5t4.5 -9.5q0 -13 -20 -13
h-241q-22 0 -22 14q0 13 18 13q42 0 65.5 25.5t52.5 94.5l210 507l-22 52q-9 20 -27.5 26t-50.5 6q-13 0 -13 14q0 13 14 13zM365 610l-104 -273h201zM374 820q-72 0 -116 36.5t-44 95.5q0 20 9 20q7 0 13 -12q24 -41 56.5 -57t80.5 -16q49 0 81 16t56 57q6 12 13 12
q9 0 9 -20q0 -59 -43.5 -95.5t-114.5 -36.5z" />
    <glyph glyph-name="abreve" unicode="&#x103;" horiz-adv-x="548" 
d="M333 307v66q0 101 -24.5 154t-83.5 53q-44 0 -62.5 -32.5t-18.5 -76.5q0 -25 5 -45q-17 -4 -34 -4q-35 0 -54 19t-19 51q0 53 57 85.5t151 32.5q195 0 195 -166q0 -4 -3 -97t-3 -182q0 -35 0.5 -50.5t4.5 -32.5t12 -22.5t23 -5.5q16 0 26 12t15.5 24t10.5 12q9 0 9 -16
q0 -39 -26.5 -67.5t-77.5 -28.5q-76 0 -104 69q-64 -69 -157 -69q-68 0 -111.5 36.5t-43.5 99.5q0 54 24 91.5t65 56.5t84.5 27t93.5 8q16 0 46 -2zM137 146q0 -44 26 -67t71 -23q52 0 94 30q5 33 5 192h-22q-80 0 -127 -33t-47 -99zM249 646q-65 0 -113 40t-48 101
q0 17 10 17q7 0 15 -13q20 -39 57.5 -60.5t78.5 -21.5q44 0 81 21.5t54 60.5q5 13 14 13q10 0 10 -16q0 -62 -47 -102t-112 -40z" />
    <glyph glyph-name="Aogonek" unicode="&#x104;" horiz-adv-x="792" 
d="M343 -110q0 58 42 97.5t112 39.5q50 0 50 46q0 26 -24 95l-47 130h-230l-75 -199q-5 -13 -5 -24q0 -48 101 -48q7 0 11.5 -4.5t4.5 -9.5q0 -13 -20 -13h-241q-22 0 -22 14q0 13 18 13q42 0 65.5 25.5t52.5 94.5l210 507l-22 52q-9 20 -27.5 26t-50.5 6q-13 0 -13 14
q0 13 14 13h164q14 0 19.5 -3.5t9.5 -15.5l188 -530q40 -113 68 -151t77 -38q19 0 19 -15q0 -12 -15 -12h-278q-83 0 -83 -77q0 -32 20 -49t52 -17q35 0 61 17q4 -9 4 -21q0 -35 -24 -56t-71 -21q-49 0 -82 28.5t-33 85.5zM365 610l-104 -273h201z" />
    <glyph glyph-name="aogonek" unicode="&#x105;" horiz-adv-x="548" 
d="M479 54q16 0 26 12t15.5 24t10.5 12q9 0 9 -16q0 -75 -84 -93q-23 -5 -42 -28t-19 -55q0 -53 72 -53q35 0 61 17q4 -9 4 -21q0 -35 -24 -56t-71 -21q-49 0 -82 28t-33 84q0 36 21.5 66t50.5 43q-50 15 -62 62q-64 -69 -157 -69q-68 0 -111.5 36.5t-43.5 99.5
q0 54 24 91.5t65 56.5t84.5 27t93.5 8q16 0 46 -2v66q0 101 -24.5 154t-83.5 53q-44 0 -62.5 -32.5t-18.5 -76.5q0 -25 5 -45q-17 -4 -34 -4q-35 0 -54 19t-19 51q0 53 57 85.5t151 32.5q195 0 195 -166q0 -4 -3 -97t-3 -182q0 -35 0.5 -50.5t4.5 -32.5t12 -22.5t23 -5.5z
M137 146q0 -44 26 -67t71 -23q52 0 94 30q5 33 5 192h-22q-80 0 -127 -33t-47 -99z" />
    <glyph glyph-name="Cacute" unicode="&#x106;" horiz-adv-x="751" 
d="M690 24q-130 -34 -239 -34q-190 0 -293 99.5t-103 288.5q0 183 109.5 292t311.5 109q102 0 199 -23q15 -5 15 -21v-192q0 -18 -11 -18t-14 20q-13 95 -65.5 146t-140.5 51q-47 0 -91.5 -21t-84 -62t-64 -114t-24.5 -167q0 -163 67 -254t185 -91q206 0 250 208q4 17 16 17
q11 0 11 -11q0 -4 -9 -97t-11 -105q-3 -18 -14 -21zM382 794q-22 0 -22 22q55 36 89 72t55 89q3 8 10 8q11 0 42.5 -19t31.5 -31q0 -8 -7 -15q-38 -41 -105.5 -83.5t-93.5 -42.5z" />
    <glyph glyph-name="cacute" unicode="&#x107;" horiz-adv-x="505" 
d="M315 69q53 0 89.5 21t63.5 82q5 11 13 11q9 0 9 -15q0 -25 -13 -54t-37.5 -57.5t-68.5 -47.5t-98 -19q-100 0 -166.5 71.5t-66.5 214.5q0 165 75.5 249.5t200.5 84.5q27 0 53 -4.5t54.5 -15t45.5 -33t17 -54.5q0 -74 -90 -74q-4 24 -7 40t-10.5 39t-17.5 36.5t-27.5 24
t-39.5 10.5q-131 0 -131 -277q0 -107 41.5 -170t110.5 -63zM238 658q0 25 46.5 88.5t90.5 105.5q7 7 15 7q12 0 31 -31.5t19 -42.5q0 -7 -8 -10q-89 -35 -172 -139q-22 0 -22 22z" />
    <glyph glyph-name="Ccircumflex" unicode="&#x108;" horiz-adv-x="751" 
d="M690 24q-130 -34 -239 -34q-190 0 -293 99.5t-103 288.5q0 183 109.5 292t311.5 109q102 0 199 -23q15 -5 15 -21v-192q0 -18 -11 -18t-14 20q-13 95 -65.5 146t-140.5 51q-47 0 -91.5 -21t-84 -62t-64 -114t-24.5 -167q0 -163 67 -254t185 -91q206 0 250 208q4 17 16 17
q11 0 11 -11q0 -4 -9 -97t-11 -105q-3 -18 -14 -21zM575 816l-125 49l-128 -48q-13 -5 -23 -5q-20 0 -29 16l180 125l181 -125q-14 -17 -33 -17q-10 0 -23 5z" />
    <glyph glyph-name="ccircumflex" unicode="&#x109;" horiz-adv-x="505" 
d="M315 69q53 0 89.5 21t63.5 82q5 11 13 11q9 0 9 -15q0 -25 -13 -54t-37.5 -57.5t-68.5 -47.5t-98 -19q-100 0 -166.5 71.5t-66.5 214.5q0 165 75.5 249.5t200.5 84.5q27 0 53 -4.5t54.5 -15t45.5 -33t17 -54.5q0 -74 -90 -74q-4 24 -7 40t-10.5 39t-17.5 36.5t-27.5 24
t-39.5 10.5q-131 0 -131 -277q0 -107 41.5 -170t110.5 -63zM400 643l-107 69l-109 -68q-7 -5 -18 -5q-18 0 -27 15l154 154l155 -154q-14 -17 -30 -17q-9 0 -18 6z" />
    <glyph glyph-name="Cdotaccent" unicode="&#x10a;" horiz-adv-x="751" 
d="M690 24q-130 -34 -239 -34q-190 0 -293 99.5t-103 288.5q0 183 109.5 292t311.5 109q102 0 199 -23q15 -5 15 -21v-192q0 -18 -11 -18t-14 20q-13 95 -65.5 146t-140.5 51q-47 0 -91.5 -21t-84 -62t-64 -114t-24.5 -167q0 -163 67 -254t185 -91q206 0 250 208q4 17 16 17
q11 0 11 -11q0 -4 -9 -97t-11 -105q-3 -18 -14 -21zM382 879q0 28 20 48.5t48 20.5t48.5 -20.5t20.5 -48.5t-20 -48t-49 -20q-28 0 -48 20t-20 48z" />
    <glyph glyph-name="cdotaccent" unicode="&#x10b;" horiz-adv-x="505" 
d="M315 69q53 0 89.5 21t63.5 82q5 11 13 11q9 0 9 -15q0 -25 -13 -54t-37.5 -57.5t-68.5 -47.5t-98 -19q-100 0 -166.5 71.5t-66.5 214.5q0 165 75.5 249.5t200.5 84.5q27 0 53 -4.5t54.5 -15t45.5 -33t17 -54.5q0 -74 -90 -74q-4 24 -7 40t-10.5 39t-17.5 36.5t-27.5 24
t-39.5 10.5q-131 0 -131 -277q0 -107 41.5 -170t110.5 -63zM226 745q0 28 20 48.5t48 20.5t48.5 -20.5t20.5 -48.5t-20 -48t-49 -20q-28 0 -48 20t-20 48z" />
    <glyph glyph-name="Ccaron" unicode="&#x10c;" horiz-adv-x="751" 
d="M690 24q-130 -34 -239 -34q-190 0 -293 99.5t-103 288.5q0 183 109.5 292t311.5 109q102 0 199 -23q15 -5 15 -21v-192q0 -18 -11 -18t-14 20q-13 95 -65.5 146t-140.5 51q-47 0 -91.5 -21t-84 -62t-64 -114t-24.5 -167q0 -163 67 -254t185 -91q206 0 250 208q4 17 16 17
q11 0 11 -11q0 -4 -9 -97t-11 -105q-3 -18 -14 -21zM326 948l125 -49l128 48q13 5 23 5q20 0 29 -16l-180 -125l-181 125q14 17 33 17q10 0 23 -5z" />
    <glyph glyph-name="ccaron" unicode="&#x10d;" horiz-adv-x="505" 
d="M315 69q53 0 89.5 21t63.5 82q5 11 13 11q9 0 9 -15q0 -25 -13 -54t-37.5 -57.5t-68.5 -47.5t-98 -19q-100 0 -166.5 71.5t-66.5 214.5q0 165 75.5 249.5t200.5 84.5q27 0 53 -4.5t54.5 -15t45.5 -33t17 -54.5q0 -74 -90 -74q-4 24 -7 40t-10.5 39t-17.5 36.5t-27.5 24
t-39.5 10.5q-131 0 -131 -277q0 -107 41.5 -170t110.5 -63zM293 740l107 69q9 6 18 6q16 0 30 -17l-155 -154l-154 154q9 15 27 15q10 0 18 -5z" />
    <glyph glyph-name="Dcaron" unicode="&#x10e;" horiz-adv-x="830" 
d="M48 765h308q213 0 316 -93.5t103 -287.5q0 -175 -95 -279.5t-271 -104.5h-367q-15 0 -15 12q0 15 19 15q56 0 75 18t23 65q6 84 6 237v66q0 162 -6 246q-4 46 -21.5 62.5t-71.5 16.5q-18 0 -18 14q0 13 15 13zM328 727q-31 0 -60 -13v-368q0 -190 6 -233q6 -46 26 -62.5
t73 -16.5q263 0 263 332q0 190 -76 275.5t-232 85.5zM267 948l125 -49l128 48q13 5 23 5q20 0 29 -16l-180 -125l-181 125q14 17 33 17q10 0 23 -5z" />
    <glyph glyph-name="dcaron" unicode="&#x10f;" horiz-adv-x="644" 
d="M430 263v170q0 61 -32 98.5t-80 37.5q-73 0 -115.5 -78t-42.5 -202q0 -105 39.5 -172.5t115.5 -67.5q47 0 110 36q5 70 5 178zM428 567v60q0 81 -11.5 105.5t-53.5 24.5h-25q-16 0 -16 9t16 13q9 2 50.5 14t70 19t41.5 7q38 0 38 -49v-605q0 -63 7 -87t33 -24q16 0 26 12
t15.5 24t10.5 12q9 0 9 -16q0 -39 -26.5 -67.5t-77.5 -28.5q-76 0 -104 69q-72 -69 -169 -69q-108 0 -165 76t-57 197q0 163 69 255t188 92q79 0 131 -43zM683 790q0 -53 -29.5 -132.5t-58.5 -79.5q-9 0 -16 8q21 62 21 117q0 29 -3.5 58t-3.5 34q0 15 13 15h60q17 0 17 -20
z" />
    <glyph glyph-name="Dcroat" unicode="&#x110;" horiz-adv-x="821" 
d="M61 406h89q0 169 -6 253q-4 46 -21.5 62.5t-71.5 16.5q-18 0 -18 14q0 13 15 13h308q213 0 316 -93.5t103 -287.5q0 -175 -95 -279.5t-271 -104.5h-367q-15 0 -15 12q0 15 19 15q56 0 75 18t23 65q6 84 6 237v22h-90q-22 0 -22 18q0 19 23 19zM328 727q-31 0 -60 -13
v-308h127q26 0 26 -20q0 -17 -21 -17h-132v-23q0 -190 6 -233q6 -46 26 -62.5t73 -16.5q263 0 263 332q0 190 -76 275.5t-232 85.5z" />
    <glyph glyph-name="dcroat" unicode="&#x111;" horiz-adv-x="635" 
d="M306 681h121q-3 44 -16.5 60t-47.5 16h-25q-16 0 -16 9t16 13q9 2 50.5 14t70 19t41.5 7q38 0 38 -49v-89h52q26 0 26 -20q0 -17 -21 -17h-57v-479q0 -63 7 -87t33 -24q16 0 26 12t15.5 24t10.5 12q9 0 9 -16q0 -39 -26.5 -67.5t-77.5 -28.5q-76 0 -104 69
q-72 -69 -169 -69q-108 0 -165 76t-57 197q0 163 69 255t188 92q79 0 131 -43v77h-123q-22 0 -22 18q0 19 23 19zM430 263v170q0 61 -32 98.5t-80 37.5q-73 0 -115.5 -78t-42.5 -202q0 -105 39.5 -172.5t115.5 -67.5q47 0 110 36q5 70 5 178z" />
    <glyph glyph-name="Emacron" unicode="&#x112;" horiz-adv-x="653" 
d="M48 765h514q8 0 11.5 -3t3.5 -13v-167q0 -12 -12 -12q-15 0 -15 13q0 55 -37 103t-106 48h-45q-74 0 -94 -23v-294h97q96 0 110 97q3 18 14 18q9 0 9 -15q0 -14 -3.5 -50.5t-3.5 -69.5q0 -39 3.5 -71t3.5 -39q0 -15 -9 -15q-11 0 -14 18q-14 93 -110 93h-97v-105
q0 -125 6 -181q4 -36 30 -51.5t102 -15.5q64 0 117.5 48t77.5 129q4 16 16 16t12 -13q0 -12 -20 -92t-26 -100q-5 -18 -24 -18h-517q-15 0 -15 12q0 15 19 15q56 0 75 18t23 65q6 84 6 237v66q0 162 -6 246q-4 46 -21.5 62.5t-71.5 16.5q-18 0 -18 14q0 13 15 13zM484 833
h-304q-25 0 -25 22q0 10 7 17t20 7h300q13 0 20.5 -7t7.5 -17q0 -9 -7 -15.5t-19 -6.5z" />
    <glyph glyph-name="emacron" unicode="&#x113;" horiz-adv-x="540" 
d="M507 161q0 -58 -55 -114.5t-158 -56.5q-116 0 -185 74.5t-69 217.5q0 145 71 236.5t204 91.5q34 0 65.5 -10t61 -31t47.5 -61t18 -93q0 -27 -14 -38t-47 -11h-289q0 -141 48 -220t131 -79q54 0 89.5 21.5t62.5 76.5q4 8 11 8q8 0 8 -12zM295 578q-59 0 -92.5 -52.5
t-43.5 -133.5l184 13q23 1 31 10t8 27q0 136 -87 136zM444 670h-304q-25 0 -25 22q0 10 7 17t20 7h300q13 0 20.5 -7t7.5 -17q0 -9 -7 -15.5t-19 -6.5z" />
    <glyph glyph-name="Ebreve" unicode="&#x114;" horiz-adv-x="653" 
d="M48 765h514q8 0 11.5 -3t3.5 -13v-167q0 -12 -12 -12q-15 0 -15 13q0 55 -37 103t-106 48h-45q-74 0 -94 -23v-294h97q96 0 110 97q3 18 14 18q9 0 9 -15q0 -14 -3.5 -50.5t-3.5 -69.5q0 -39 3.5 -71t3.5 -39q0 -15 -9 -15q-11 0 -14 18q-14 93 -110 93h-97v-105
q0 -125 6 -181q4 -36 30 -51.5t102 -15.5q64 0 117.5 48t77.5 129q4 16 16 16t12 -13q0 -12 -20 -92t-26 -100q-5 -18 -24 -18h-517q-15 0 -15 12q0 15 19 15q56 0 75 18t23 65q6 84 6 237v66q0 162 -6 246q-4 46 -21.5 62.5t-71.5 16.5q-18 0 -18 14q0 13 15 13zM335 820
q-72 0 -116 36.5t-44 95.5q0 20 9 20q7 0 13 -12q24 -41 56.5 -57t80.5 -16q49 0 81 16t56 57q6 12 13 12q9 0 9 -20q0 -59 -43.5 -95.5t-114.5 -36.5z" />
    <glyph glyph-name="ebreve" unicode="&#x115;" horiz-adv-x="540" 
d="M507 161q0 -58 -55 -114.5t-158 -56.5q-116 0 -185 74.5t-69 217.5q0 145 71 236.5t204 91.5q34 0 65.5 -10t61 -31t47.5 -61t18 -93q0 -27 -14 -38t-47 -11h-289q0 -141 48 -220t131 -79q54 0 89.5 21.5t62.5 76.5q4 8 11 8q8 0 8 -12zM295 578q-59 0 -92.5 -52.5
t-43.5 -133.5l184 13q23 1 31 10t8 27q0 136 -87 136zM294 646q-65 0 -113 40t-48 101q0 17 10 17q7 0 15 -13q20 -39 57.5 -60.5t78.5 -21.5q44 0 81 21.5t54 60.5q5 13 14 13q10 0 10 -16q0 -62 -47 -102t-112 -40z" />
    <glyph glyph-name="Edotaccent" unicode="&#x116;" horiz-adv-x="653" 
d="M48 765h514q8 0 11.5 -3t3.5 -13v-167q0 -12 -12 -12q-15 0 -15 13q0 55 -37 103t-106 48h-45q-74 0 -94 -23v-294h97q96 0 110 97q3 18 14 18q9 0 9 -15q0 -14 -3.5 -50.5t-3.5 -69.5q0 -39 3.5 -71t3.5 -39q0 -15 -9 -15q-11 0 -14 18q-14 93 -110 93h-97v-105
q0 -125 6 -181q4 -36 30 -51.5t102 -15.5q64 0 117.5 48t77.5 129q4 16 16 16t12 -13q0 -12 -20 -92t-26 -100q-5 -18 -24 -18h-517q-15 0 -15 12q0 15 19 15q56 0 75 18t23 65q6 84 6 237v66q0 162 -6 246q-4 46 -21.5 62.5t-71.5 16.5q-18 0 -18 14q0 13 15 13zM266 879
q0 28 20 48.5t48 20.5t48.5 -20.5t20.5 -48.5t-20 -48t-49 -20q-28 0 -48 20t-20 48z" />
    <glyph glyph-name="edotaccent" unicode="&#x117;" horiz-adv-x="540" 
d="M507 161q0 -58 -55 -114.5t-158 -56.5q-116 0 -185 74.5t-69 217.5q0 145 71 236.5t204 91.5q34 0 65.5 -10t61 -31t47.5 -61t18 -93q0 -27 -14 -38t-47 -11h-289q0 -141 48 -220t131 -79q54 0 89.5 21.5t62.5 76.5q4 8 11 8q8 0 8 -12zM295 578q-59 0 -92.5 -52.5
t-43.5 -133.5l184 13q23 1 31 10t8 27q0 136 -87 136zM225 745q0 28 20 48.5t48 20.5t48.5 -20.5t20.5 -48.5t-20 -48t-49 -20q-28 0 -48 20t-20 48z" />
    <glyph glyph-name="Eogonek" unicode="&#x118;" horiz-adv-x="653" 
d="M401 -110q0 36 21 66t54 44h-434q-15 0 -15 12q0 15 19 15q56 0 75 18t23 65q6 84 6 237v66q0 162 -6 246q-4 46 -21.5 62.5t-71.5 16.5q-18 0 -18 14q0 13 15 13h514q8 0 11.5 -3t3.5 -13v-167q0 -12 -12 -12q-15 0 -15 13q0 55 -37 103t-106 48h-45q-74 0 -94 -23v-294
h97q96 0 110 97q3 18 14 18q9 0 9 -15q0 -14 -3.5 -50.5t-3.5 -69.5q0 -39 3.5 -71t3.5 -39q0 -15 -9 -15q-11 0 -14 18q-14 93 -110 93h-97v-105q0 -125 6 -181q4 -36 30 -51.5t102 -15.5q64 0 117.5 48t77.5 129q4 16 16 16t12 -13q0 -12 -20 -92t-26 -100q-5 -18 -24 -18
h-10q-27 0 -51 -23.5t-24 -53.5q0 -32 20 -49t52 -17q35 0 61 17q4 -9 4 -21q0 -35 -24 -56t-71 -21q-49 0 -82 28.5t-33 85.5z" />
    <glyph glyph-name="eogonek" unicode="&#x119;" horiz-adv-x="540" 
d="M251 -110q0 58 46 100q-114 3 -185.5 78.5t-71.5 213.5q0 145 71 236.5t204 91.5q34 0 65.5 -10t61 -31t47.5 -61t18 -93q0 -27 -14 -38t-47 -11h-289q0 -141 48 -220t131 -79q54 0 89.5 21.5t62.5 76.5q4 8 11 8q8 0 8 -12q0 -44 -35 -90.5t-101 -71.5q-47 -17 -47 -76
q0 -32 20 -49t52 -17q35 0 61 17q4 -9 4 -21q0 -35 -24 -56t-71 -21q-49 0 -82 28.5t-33 85.5zM295 578q-59 0 -92.5 -52.5t-43.5 -133.5l184 13q23 1 31 10t8 27q0 136 -87 136z" />
    <glyph glyph-name="Ecaron" unicode="&#x11a;" horiz-adv-x="653" 
d="M48 765h514q8 0 11.5 -3t3.5 -13v-167q0 -12 -12 -12q-15 0 -15 13q0 55 -37 103t-106 48h-45q-74 0 -94 -23v-294h97q96 0 110 97q3 18 14 18q9 0 9 -15q0 -14 -3.5 -50.5t-3.5 -69.5q0 -39 3.5 -71t3.5 -39q0 -15 -9 -15q-11 0 -14 18q-14 93 -110 93h-97v-105
q0 -125 6 -181q4 -36 30 -51.5t102 -15.5q64 0 117.5 48t77.5 129q4 16 16 16t12 -13q0 -12 -20 -92t-26 -100q-5 -18 -24 -18h-517q-15 0 -15 12q0 15 19 15q56 0 75 18t23 65q6 84 6 237v66q0 162 -6 246q-4 46 -21.5 62.5t-71.5 16.5q-18 0 -18 14q0 13 15 13zM210 948
l125 -49l128 48q13 5 23 5q20 0 29 -16l-180 -125l-181 125q14 17 33 17q10 0 23 -5z" />
    <glyph glyph-name="ecaron" unicode="&#x11b;" horiz-adv-x="540" 
d="M507 161q0 -58 -55 -114.5t-158 -56.5q-116 0 -185 74.5t-69 217.5q0 145 71 236.5t204 91.5q34 0 65.5 -10t61 -31t47.5 -61t18 -93q0 -27 -14 -38t-47 -11h-289q0 -141 48 -220t131 -79q54 0 89.5 21.5t62.5 76.5q4 8 11 8q8 0 8 -12zM295 578q-59 0 -92.5 -52.5
t-43.5 -133.5l184 13q23 1 31 10t8 27q0 136 -87 136zM292 740l107 69q9 6 18 6q16 0 30 -17l-155 -154l-154 154q9 15 27 15q11 0 18 -5z" />
    <glyph glyph-name="Gcircumflex" unicode="&#x11c;" horiz-adv-x="822" 
d="M600 65q0 98 -6 182q-4 47 -21.5 63.5t-70.5 16.5q-19 0 -19 15q0 12 15 12h308q15 0 15 -12q0 -15 -19 -15q-53 0 -65.5 -14.5t-19.5 -65.5q-6 -42 -6 -155q0 -22 5 -38t5 -17q0 -11 -26 -17q-126 -30 -244 -30q-191 0 -293.5 99t-102.5 289q0 183 109.5 292t311.5 109
q102 0 199 -23q15 -5 16 -21v-192q0 -16 -11 -16t-14 18q-32 197 -207 197q-47 0 -91.5 -21t-84 -62t-64 -114t-24.5 -167q0 -163 67 -254.5t185 -91.5q100 0 153 33zM563 816l-125 49l-128 -48q-13 -5 -23 -5q-20 0 -29 16l180 125l181 -125q-14 -17 -33 -17q-10 0 -23 5z
" />
    <glyph glyph-name="gcircumflex" unicode="&#x11d;" horiz-adv-x="536" 
d="M247 610q73 0 121 -17q-8 26 -8 52q0 40 19.5 66.5t61.5 26.5q27 0 44.5 -16t17.5 -40q0 -27 -21 -51q-16 15 -34 15q-20 0 -35 -19t-16 -46q89 -44 89 -154q0 -84 -64.5 -126t-160.5 -42q-37 0 -75 6q-37 -25 -37 -61q0 -19 12.5 -32.5t36.5 -16.5l151 -18
q78 -9 123 -54t45 -117q0 -86 -65 -133t-198 -47q-121 0 -188.5 35t-67.5 105q0 45 33.5 72.5t80.5 27.5q27 0 48 -11q-44 -34 -44 -80q0 -49 38 -83.5t116 -34.5t120.5 28t42.5 78q0 97 -111 109l-137 15q-59 7 -87.5 30.5t-28.5 68.5q0 39 26.5 74.5t63.5 52.5
q-65 17 -102 57t-37 97q0 87 66.5 135t160.5 48zM139 427q0 -130 107 -130q62 0 91 37.5t29 102.5t-28 102.5t-86 37.5q-59 0 -86 -41.5t-27 -108.5zM301 687l-47 25l-109 -68q-7 -5 -18 -5q-18 0 -27 15l154 154l108 -107q-13 -21 -33 -21q-15 0 -28 7z" />
    <glyph glyph-name="Gbreve" unicode="&#x11e;" horiz-adv-x="822" 
d="M600 65q0 98 -6 182q-4 47 -21.5 63.5t-70.5 16.5q-19 0 -19 15q0 12 15 12h308q15 0 15 -12q0 -15 -19 -15q-53 0 -65.5 -14.5t-19.5 -65.5q-6 -42 -6 -155q0 -22 5 -38t5 -17q0 -11 -26 -17q-126 -30 -244 -30q-191 0 -293.5 99t-102.5 289q0 183 109.5 292t311.5 109
q102 0 199 -23q15 -5 16 -21v-192q0 -16 -11 -16t-14 18q-32 197 -207 197q-47 0 -91.5 -21t-84 -62t-64 -114t-24.5 -167q0 -163 67 -254.5t185 -91.5q100 0 153 33zM439 820q-72 0 -116 36.5t-44 95.5q0 20 9 20q7 0 13 -12q24 -41 56.5 -57t80.5 -16q49 0 81 16t56 57
q6 12 13 12q9 0 9 -20q0 -59 -43.5 -95.5t-114.5 -36.5z" />
    <glyph glyph-name="gbreve" unicode="&#x11f;" horiz-adv-x="536" 
d="M247 610q73 0 121 -17q-8 26 -8 52q0 40 19.5 66.5t61.5 26.5q27 0 44.5 -16t17.5 -40q0 -27 -21 -51q-16 15 -34 15q-20 0 -35 -19t-16 -46q89 -44 89 -154q0 -84 -64.5 -126t-160.5 -42q-37 0 -75 6q-37 -25 -37 -61q0 -19 12.5 -32.5t36.5 -16.5l151 -18
q78 -9 123 -54t45 -117q0 -86 -65 -133t-198 -47q-121 0 -188.5 35t-67.5 105q0 45 33.5 72.5t80.5 27.5q27 0 48 -11q-44 -34 -44 -80q0 -49 38 -83.5t116 -34.5t120.5 28t42.5 78q0 97 -111 109l-137 15q-59 7 -87.5 30.5t-28.5 68.5q0 39 26.5 74.5t63.5 52.5
q-65 17 -102 57t-37 97q0 87 66.5 135t160.5 48zM139 427q0 -130 107 -130q62 0 91 37.5t29 102.5t-28 102.5t-86 37.5q-59 0 -86 -41.5t-27 -108.5zM246 646q-63 0 -107 39.5t-44 101.5q0 17 10 17q7 0 15 -13q43 -82 126 -82q39 0 60.5 19.5t34.5 62.5q4 13 14 13t10 -16
q0 -67 -32.5 -104.5t-86.5 -37.5z" />
    <glyph glyph-name="Gdotaccent" unicode="&#x120;" horiz-adv-x="822" 
d="M600 65q0 98 -6 182q-4 47 -21.5 63.5t-70.5 16.5q-19 0 -19 15q0 12 15 12h308q15 0 15 -12q0 -15 -19 -15q-53 0 -65.5 -14.5t-19.5 -65.5q-6 -42 -6 -155q0 -22 5 -38t5 -17q0 -11 -26 -17q-126 -30 -244 -30q-191 0 -293.5 99t-102.5 289q0 183 109.5 292t311.5 109
q102 0 199 -23q15 -5 16 -21v-192q0 -16 -11 -16t-14 18q-32 197 -207 197q-47 0 -91.5 -21t-84 -62t-64 -114t-24.5 -167q0 -163 67 -254.5t185 -91.5q100 0 153 33zM370 879q0 28 20 48.5t48 20.5t48.5 -20.5t20.5 -48.5t-20 -48t-49 -20q-28 0 -48 20t-20 48z" />
    <glyph glyph-name="gdotaccent" unicode="&#x121;" horiz-adv-x="536" 
d="M247 610q73 0 121 -17q-8 26 -8 52q0 40 19.5 66.5t61.5 26.5q27 0 44.5 -16t17.5 -40q0 -27 -21 -51q-16 15 -34 15q-20 0 -35 -19t-16 -46q89 -44 89 -154q0 -84 -64.5 -126t-160.5 -42q-37 0 -75 6q-37 -25 -37 -61q0 -19 12.5 -32.5t36.5 -16.5l151 -18
q78 -9 123 -54t45 -117q0 -86 -65 -133t-198 -47q-121 0 -188.5 35t-67.5 105q0 45 33.5 72.5t80.5 27.5q27 0 48 -11q-44 -34 -44 -80q0 -49 38 -83.5t116 -34.5t120.5 28t42.5 78q0 97 -111 109l-137 15q-59 7 -87.5 30.5t-28.5 68.5q0 39 26.5 74.5t63.5 52.5
q-65 17 -102 57t-37 97q0 87 66.5 135t160.5 48zM139 427q0 -130 107 -130q62 0 91 37.5t29 102.5t-28 102.5t-86 37.5q-59 0 -86 -41.5t-27 -108.5zM187 745q0 28 20 48.5t48 20.5t48.5 -20.5t20.5 -48.5t-20 -48t-49 -20q-28 0 -48 20t-20 48z" />
    <glyph glyph-name="Gcommaaccent" unicode="&#x122;" horiz-adv-x="822" 
d="M600 65q0 98 -6 182q-4 47 -21.5 63.5t-70.5 16.5q-19 0 -19 15q0 12 15 12h308q15 0 15 -12q0 -15 -19 -15q-53 0 -65.5 -14.5t-19.5 -65.5q-6 -42 -6 -155q0 -22 5 -38t5 -17q0 -11 -26 -17q-126 -30 -244 -30q-191 0 -293.5 99t-102.5 289q0 183 109.5 292t311.5 109
q102 0 199 -23q15 -5 16 -21v-192q0 -16 -11 -16t-14 18q-32 197 -207 197q-47 0 -91.5 -21t-84 -62t-64 -114t-24.5 -167q0 -163 67 -254.5t185 -91.5q100 0 153 33zM518 -119q0 -46 -40 -79t-74 -33q-14 0 -14 13q0 11 11 15q30 10 30 45q0 4 -2 14l-46 45q0 22 18.5 40
t47.5 18q28 0 48.5 -19.5t20.5 -58.5z" />
    <glyph glyph-name="gcommaaccent" unicode="&#x123;" horiz-adv-x="536" 
d="M247 610q73 0 121 -17q-8 26 -8 52q0 40 19.5 66.5t61.5 26.5q27 0 44.5 -16t17.5 -40q0 -27 -21 -51q-16 15 -34 15q-20 0 -35 -19t-16 -46q89 -44 89 -154q0 -84 -64.5 -126t-160.5 -42q-37 0 -75 6q-37 -25 -37 -61q0 -19 12.5 -32.5t36.5 -16.5l151 -18
q78 -9 123 -54t45 -117q0 -86 -65 -133t-198 -47q-121 0 -188.5 35t-67.5 105q0 45 33.5 72.5t80.5 27.5q27 0 48 -11q-44 -34 -44 -80q0 -49 38 -83.5t116 -34.5t120.5 28t42.5 78q0 97 -111 109l-137 15q-59 7 -87.5 30.5t-28.5 68.5q0 39 26.5 74.5t63.5 52.5
q-65 17 -102 57t-37 97q0 87 66.5 135t160.5 48zM139 427q0 -130 107 -130q62 0 91 37.5t29 102.5t-28 102.5t-86 37.5q-59 0 -86 -41.5t-27 -108.5zM295 855q15 4 18.5 -9t-10.5 -18q-18 -6 -25.5 -23.5t-2.5 -35.5l46 -45q0 -22 -18.5 -40t-47.5 -18q-28 0 -48.5 19.5
t-20.5 58.5t28 68t81 43z" />
    <glyph glyph-name="Hcircumflex" unicode="&#x124;" horiz-adv-x="899" 
d="M749 415v-69q0 -194 6 -236q6 -47 26 -65t73 -18q19 0 19 -15q0 -12 -15 -12h-335q-15 0 -15 12q0 15 19 15q56 0 75 18t23 65q6 84 6 237v21h-363v-22q0 -194 6 -236q6 -47 26 -65t73 -18q19 0 19 -15q0 -12 -15 -12h-335q-15 0 -15 12q0 15 19 15q56 0 75 18t23 65
q6 84 6 237v66q0 162 -6 246q-4 46 -21.5 62.5t-71.5 16.5q-18 0 -18 14q0 13 15 13h315q15 0 15 -13q0 -14 -19 -14q-53 0 -65.5 -14.5t-19.5 -64.5q-6 -42 -6 -244v-10h363v8q0 162 -6 246q-4 46 -21.5 62.5t-71.5 16.5q-18 0 -18 14q0 13 15 13h315q15 0 15 -13
q0 -14 -19 -14q-53 0 -65.5 -14.5t-19.5 -64.5q-6 -42 -6 -244zM571 816l-125 49l-128 -48q-13 -5 -23 -5q-20 0 -29 16l180 125l181 -125q-14 -17 -33 -17q-10 0 -23 5z" />
    <glyph glyph-name="hcircumflex" unicode="&#x125;" horiz-adv-x="666" 
d="M217 487l32 27q40 33 63 50t57 31.5t68 14.5q61 0 96.5 -42t35.5 -108v-357q0 -44 16 -60.5t57 -16.5q18 0 18 -14q0 -12 -15 -12h-271q-15 0 -15 12q0 14 18 14q32 0 47 19t22.5 76.5t7.5 175.5q0 101 -10.5 156t-26.5 71t-44 16q-9 0 -18.5 -1.5t-20.5 -7.5t-18.5 -9.5
t-22 -14.5l-21.5 -16.5l-27 -21.5l-28 -22v-173q0 -136 5 -171q6 -48 18.5 -62.5t54.5 -14.5q18 0 18 -14q0 -12 -15 -12h-277q-15 0 -15 12q0 14 18 14q42 0 57.5 16t19.5 61q6 84 6 171v353q0 81 -11.5 105.5t-53.5 24.5h-25q-16 0 -16 9t16 13q9 2 50.5 14t70 19t41.5 7
q38 0 38 -49v-283zM276 833l-125 49l-128 -48q-13 -5 -23 -5q-20 0 -29 16l180 125l181 -125q-14 -17 -33 -17q-10 0 -23 5z" />
    <glyph glyph-name="Hbar" unicode="&#x126;" horiz-adv-x="899" 
d="M64 544h85q-2 64 -5 115q-4 46 -21.5 62.5t-71.5 16.5q-18 0 -18 14q0 13 15 13h315q15 0 15 -13q0 -14 -19 -14q-53 0 -65.5 -14.5t-19.5 -64.5q-5 -27 -6 -115h362q-2 64 -5 115q-4 46 -21.5 62.5t-71.5 16.5q-18 0 -18 14q0 13 15 13h315q15 0 15 -13q0 -14 -19 -14
q-53 0 -65.5 -14.5t-19.5 -64.5q-5 -27 -6 -115h88q26 0 26 -20q0 -17 -21 -17h-93v-161q0 -194 6 -236q6 -47 26 -65t73 -18q19 0 19 -15q0 -12 -15 -12h-335q-15 0 -15 12q0 15 19 15q56 0 75 18t23 65q6 84 6 237v21h-363v-22q0 -194 6 -236q6 -47 26 -65t73 -18
q19 0 19 -15q0 -12 -15 -12h-335q-15 0 -15 12q0 15 19 15q56 0 75 18t23 65q6 84 6 237v66q0 66 -1 94h-86q-22 0 -22 18q0 19 23 19zM631 405l-1 102h-362v-102h363z" />
    <glyph glyph-name="hbar" unicode="&#x127;" horiz-adv-x="682" 
d="M231 487l32 27q40 33 63 50t57 31.5t68 14.5q61 0 96.5 -42t35.5 -108v-357q0 -44 16 -60.5t57 -16.5q18 0 18 -14q0 -12 -15 -12h-271q-15 0 -15 12q0 14 18 14q32 0 47 19t22.5 76.5t7.5 175.5q0 101 -10.5 156t-26.5 71t-44 16q-9 0 -18.5 -1.5t-20.5 -7.5t-18.5 -9.5
t-22 -14.5l-21.5 -16.5l-27 -21.5l-28 -22v-173q0 -136 5 -171q6 -48 18.5 -62.5t54.5 -14.5q18 0 18 -14q0 -12 -15 -12h-277q-15 0 -15 12q0 14 18 14q42 0 57.5 16t19.5 61q6 84 6 171v370h-80q-22 0 -22 18q0 19 23 19h78q-3 44 -16.5 60t-47.5 16h-25q-16 0 -16 9
t16 13q9 2 50.5 14t70 19t41.5 7q38 0 38 -49v-89h105q26 0 26 -20q0 -17 -21 -17h-110v-157z" />
    <glyph glyph-name="Itilde" unicode="&#x128;" horiz-adv-x="418" 
d="M268 415v-69q0 -194 6 -236q6 -47 26 -65t73 -18q19 0 19 -15q0 -12 -15 -12h-335q-15 0 -15 12q0 15 19 15q56 0 75 18t23 65q6 84 6 237v66q0 162 -6 246q-4 46 -21.5 62.5t-71.5 16.5q-18 0 -18 14q0 13 15 13h315q15 0 15 -13q0 -14 -19 -14q-53 0 -65.5 -14.5
t-19.5 -64.5q-6 -42 -6 -244zM225 818l-80 35q-26 11 -43 11q-47 0 -50 -63l-16 3q-6 16 -6 34q0 39 27 66.5t72 27.5q27 0 60 -12l80 -31q26 -10 46 -10q48 0 51 60l16 -4q6 -17 6 -34q0 -40 -27 -69.5t-71 -29.5q-30 0 -65 16z" />
    <glyph glyph-name="itilde" unicode="&#x129;" horiz-adv-x="322" 
d="M223 549q0 -6 -2 -82t-2 -150v-43q0 -122 6 -164q4 -29 6 -39.5t9.5 -24t20.5 -17.5t36 -4q19 0 19 -13q0 -12 -15 -12h-275q-15 0 -15 12q0 13 18 13q43 0 58 19t19 66q6 84 6 164v69q0 110 -10.5 156.5t-50.5 46.5h-26q-14 0 -14 10t14 14q33 9 86.5 18.5t73.5 9.5
q38 0 38 -49zM161 691l-80 35q-26 11 -43 11q-47 0 -50 -63l-16 3q-6 17 -6 34q0 39 27 66.5t72 27.5q27 0 60 -12l80 -31q26 -10 46 -10q48 0 51 60l16 -4q6 -17 6 -34q0 -40 -27 -69.5t-71 -29.5q-30 0 -65 16z" />
    <glyph glyph-name="imacron" unicode="&#x12b;" horiz-adv-x="322" 
d="M223 549q0 -6 -2 -82t-2 -150v-43q0 -122 6 -164q4 -29 6 -39.5t9.5 -24t20.5 -17.5t36 -4q19 0 19 -13q0 -12 -15 -12h-275q-15 0 -15 12q0 13 18 13q43 0 58 19t19 66q6 84 6 164v69q0 110 -10.5 156.5t-50.5 46.5h-26q-14 0 -14 10t14 14q33 9 86.5 18.5t73.5 9.5
q38 0 38 -49zM270 670h-244q-25 0 -25 22q0 10 7 17t20 7h240q13 0 20.5 -7t7.5 -17q0 -9 -7 -15.5t-19 -6.5z" />
    <glyph glyph-name="Ibreve" unicode="&#x12c;" horiz-adv-x="418" 
d="M268 415v-69q0 -194 6 -236q6 -47 26 -65t73 -18q19 0 19 -15q0 -12 -15 -12h-335q-15 0 -15 12q0 15 19 15q56 0 75 18t23 65q6 84 6 237v66q0 162 -6 246q-4 46 -21.5 62.5t-71.5 16.5q-18 0 -18 14q0 13 15 13h315q15 0 15 -13q0 -14 -19 -14q-53 0 -65.5 -14.5
t-19.5 -64.5q-6 -42 -6 -244zM208 820q-72 0 -116 36.5t-44 95.5q0 20 9 20q7 0 13 -12q24 -41 56.5 -57t80.5 -16q49 0 81 16t56 57q6 12 13 12q9 0 9 -20q0 -59 -43.5 -95.5t-114.5 -36.5z" />
    <glyph glyph-name="Iogonek" unicode="&#x12e;" horiz-adv-x="418" 
d="M159 -113q0 71 66 113h-183q-15 0 -15 12q0 15 19 15q56 0 75 18t23 65q6 84 6 237v66q0 162 -6 246q-4 46 -21.5 62.5t-71.5 16.5q-18 0 -18 14q0 13 15 13h315q15 0 15 -13q0 -14 -19 -14q-53 0 -65.5 -14.5t-19.5 -64.5q-6 -42 -6 -244v-69q0 -194 6 -236
q6 -47 26 -65t73 -18q19 0 19 -15q0 -12 -15 -12h-71q-31 0 -52.5 -22.5t-21.5 -54.5t20 -49t52 -17q35 0 61 17q4 -9 4 -21q0 -35 -24 -56t-71 -21q-49 0 -82 27.5t-33 83.5z" />
    <glyph glyph-name="iogonek" unicode="&#x12f;" horiz-adv-x="322" 
d="M133 -110q0 35 17 64.5t44 45.5h-168q-15 0 -15 12q0 13 18 13q43 0 58 19t19 66q6 84 6 164v69q0 110 -10.5 156.5t-50.5 46.5h-26q-14 0 -14 10t14 14q33 9 86.5 18.5t73.5 9.5q38 0 38 -49q0 -6 -2 -82t-2 -150v-43q0 -122 6 -164q4 -29 6 -39.5t9.5 -24t20.5 -17.5
t36 -4q19 0 19 -13q0 -12 -15 -12h-17q-39 0 -58.5 -21.5t-19.5 -55.5q0 -32 20 -49t52 -17q35 0 61 17q4 -9 4 -21q0 -35 -24 -56t-71 -21q-49 0 -82 28.5t-33 85.5zM88 752q0 30 21.5 51.5t50.5 21.5q30 0 51.5 -21.5t21.5 -51.5q0 -29 -21.5 -50.5t-51.5 -21.5
q-29 0 -50.5 21.5t-21.5 50.5z" />
    <glyph glyph-name="Idotaccent" unicode="&#x130;" horiz-adv-x="418" 
d="M268 415v-69q0 -194 6 -236q6 -47 26 -65t73 -18q19 0 19 -15q0 -12 -15 -12h-335q-15 0 -15 12q0 15 19 15q56 0 75 18t23 65q6 84 6 237v66q0 162 -6 246q-4 46 -21.5 62.5t-71.5 16.5q-18 0 -18 14q0 13 15 13h315q15 0 15 -13q0 -14 -19 -14q-53 0 -65.5 -14.5
t-19.5 -64.5q-6 -42 -6 -244zM141 879q0 28 20 48.5t48 20.5t48.5 -20.5t20.5 -48.5t-20 -48t-49 -20q-28 0 -48 20t-20 48z" />
    <glyph glyph-name="dotlessi" unicode="&#x131;" horiz-adv-x="322" 
d="M223 549q0 -6 -2 -82t-2 -150v-43q0 -122 6 -164q4 -29 6 -39.5t9.5 -24t20.5 -17.5t36 -4q19 0 19 -13q0 -12 -15 -12h-275q-15 0 -15 12q0 13 18 13q43 0 58 19t19 66q6 84 6 164v69q0 110 -10.5 156.5t-50.5 46.5h-26q-14 0 -14 10t14 14q33 9 86.5 18.5t73.5 9.5
q38 0 38 -49z" />
    <glyph glyph-name="IJ" unicode="&#x132;" horiz-adv-x="852" 
d="M268 415v-69q0 -194 6 -236q6 -47 26 -65t73 -18q19 0 19 -15q0 -12 -15 -12h-335q-15 0 -15 12q0 15 19 15q56 0 75 18t23 65q6 84 6 237v66q0 162 -6 246q-4 46 -21.5 62.5t-71.5 16.5q-18 0 -18 14q0 13 15 13h315q15 0 15 -13q0 -14 -19 -14q-53 0 -65.5 -14.5
t-19.5 -64.5q-6 -42 -6 -244zM709 415q0 -53 6 -164t6 -117q0 -79 -51.5 -155.5t-129.5 -124.5q-58 -35 -71 -35q-19 0 -19 20q0 17 25 27l39 16q50 20 63.5 86.5t13.5 194.5v250q0 162 -6 246q-4 46 -21 62.5t-71 16.5q-19 0 -19 15q0 12 15 12h315q15 0 15 -13
q0 -14 -18 -14q-28 0 -44 -3t-24.5 -15t-11 -23t-6.5 -38q-6 -56 -6 -244z" />
    <glyph glyph-name="ij" unicode="&#x133;" horiz-adv-x="599" 
d="M223 549q0 -6 -2 -82t-2 -150v-43q0 -122 6 -164q4 -29 6 -39.5t9.5 -24t20.5 -17.5t36 -4q19 0 19 -13q0 -12 -15 -12h-275q-15 0 -15 12q0 13 18 13q43 0 58 19t19 66q6 84 6 164v69q0 110 -10.5 156.5t-50.5 46.5h-26q-14 0 -14 10t14 14q33 9 86.5 18.5t73.5 9.5
q38 0 38 -49zM88 752q0 30 21.5 51.5t50.5 21.5q30 0 51.5 -21.5t21.5 -51.5q0 -29 -21.5 -50.5t-51.5 -21.5q-29 0 -50.5 21.5t-21.5 50.5zM413 -71v414q0 110 -10.5 156.5t-50.5 46.5h-26q-15 0 -15 10t15 14q33 9 86.5 18.5t73.5 9.5q38 0 38 -49q0 -6 -2 -82t-2 -150
v-111q0 -34 5 -113.5t5 -112.5q0 -92 -60 -141.5t-158 -49.5q-20 0 -20 16q0 14 19 14q60 0 81 25.5t21 84.5zM389 752q0 30 21 51.5t51 21.5t51.5 -21.5t21.5 -51.5q0 -29 -21.5 -50.5t-51.5 -21.5t-51 21.5t-21 50.5z" />
    <glyph glyph-name="Jcircumflex" unicode="&#x134;" horiz-adv-x="434" 
d="M291 415q0 -53 6 -164t6 -117q0 -79 -51.5 -155.5t-129.5 -124.5q-58 -35 -71 -35q-19 0 -19 20q0 17 25 27l39 16q50 20 63.5 86.5t13.5 194.5v250q0 162 -6 246q-4 46 -21 62.5t-71 16.5q-19 0 -19 15q0 12 15 12h315q15 0 15 -13q0 -14 -18 -14q-28 0 -44 -3
t-24.5 -15t-11 -23t-6.5 -38q-6 -56 -6 -244zM352 816l-125 49l-128 -48q-13 -5 -23 -5q-20 0 -29 16l180 125l181 -125q-14 -17 -33 -17q-10 0 -23 5z" />
    <glyph glyph-name="jcircumflex" unicode="&#x135;" horiz-adv-x="277" 
d="M91 -71v414q0 110 -10.5 156.5t-50.5 46.5h-26q-15 0 -15 10t15 14q33 9 86.5 18.5t73.5 9.5q38 0 38 -49q0 -6 -2 -82t-2 -150v-111q0 -34 5 -113.5t5 -112.5q0 -92 -60 -141.5t-158 -49.5q-20 0 -20 16q0 14 19 14q60 0 81 25.5t21 84.5zM242 643l-107 69l-109 -68
q-8 -5 -18 -5q-18 0 -27 15l154 154l155 -154q-14 -17 -30 -17q-9 0 -18 6z" />
    <glyph glyph-name="Kcommaaccent" unicode="&#x136;" horiz-adv-x="783" 
d="M593 670l-201 -238q99 -173 179.5 -270.5t121.5 -120.5q17 -10 40.5 -12.5t36.5 -4.5t13 -10q0 -12 -58 -18.5t-120 -6.5q-47 0 -115 81t-189 283q-7 12 -7 17t13 22l216 259q31 38 31 51q0 16 -23 26t-59 10q-17 0 -17 14q0 13 20 13h248q22 0 22 -14q0 -13 -17 -13
q-77 0 -135 -68zM268 415v-69q0 -194 6 -236q6 -47 26 -65t73 -18q19 0 19 -15q0 -12 -15 -12h-335q-15 0 -15 12q0 15 19 15q56 0 75 18t23 65q6 84 6 237v66q0 162 -6 246q-4 46 -21.5 62.5t-71.5 16.5q-18 0 -18 14q0 13 15 13h315q15 0 15 -13q0 -14 -19 -14
q-53 0 -65.5 -14.5t-19.5 -64.5q-6 -42 -6 -244zM481 -119q0 -46 -40 -79t-74 -33q-14 0 -14 13q0 11 11 15q30 10 30 45q0 4 -2 14l-46 45q0 22 18.5 40t47.5 18q28 0 48.5 -19.5t20.5 -58.5z" />
    <glyph glyph-name="kcommaaccent" unicode="&#x137;" horiz-adv-x="622" 
d="M367 598h241q16 0 16 -11q0 -13 -17 -13q-41 0 -63 -11t-54 -42l-162 -158q180 -284 253 -327q17 -10 34.5 -12.5t24.5 -3t7 -6.5q0 -11 -44.5 -20.5t-94.5 -9.5q-34 0 -61 20.5t-71 83.5t-128 203q-6 11 -6 18q0 10 13 23l174 187q8 8 8 18q0 15 -19.5 26t-54.5 11
q-6 0 -10 4t-4 9q0 11 18 11zM217 770v-496q0 -136 5 -171q6 -48 18.5 -62.5t54.5 -14.5q18 0 18 -14q0 -12 -15 -12h-277q-15 0 -15 12q0 14 18 14q42 0 57.5 16t19.5 61q6 84 6 171v353q0 81 -11.5 105.5t-53.5 24.5h-25q-16 0 -16 9t16 13q9 2 50.5 14t70 19t41.5 7
q38 0 38 -49zM399 -119q0 -46 -40 -79t-74 -33q-14 0 -14 13q0 11 11 15q30 10 30 45q0 4 -2 14l-46 45q0 22 18.5 40t47.5 18q28 0 48.5 -19.5t20.5 -58.5z" />
    <glyph glyph-name="kgreenlandic" unicode="&#x138;" horiz-adv-x="622" 
d="M367 598h241q16 0 16 -11q0 -13 -17 -13q-41 0 -63 -11t-54 -42l-162 -158q180 -284 253 -327q17 -10 34.5 -12.5t24.5 -3t7 -6.5q0 -11 -44.5 -20.5t-94.5 -9.5q-34 0 -61 20.5t-71 83.5t-128 203q-6 11 -6 18q0 10 13 23l174 187q8 8 8 18q0 15 -19.5 26t-54.5 11
q-6 0 -10 4t-4 9q0 11 18 11zM223 549q0 -6 -2 -82t-2 -150v-43q0 -122 6 -164q4 -29 6 -39.5t9.5 -24t20.5 -17.5t36 -4q19 0 19 -13q0 -12 -15 -12h-275q-15 0 -15 12q0 13 18 13q43 0 58 19t19 66q6 84 6 164v69q0 110 -10.5 156.5t-50.5 46.5h-26q-14 0 -14 10t14 14
q33 9 86.5 18.5t73.5 9.5q38 0 38 -49z" />
    <glyph glyph-name="Lacute" unicode="&#x139;" horiz-adv-x="607" 
d="M150 347v66q0 162 -6 246q-4 46 -21.5 62.5t-71.5 16.5q-18 0 -18 14q0 13 15 13h315q15 0 15 -13q0 -14 -19 -14q-53 0 -65.5 -14.5t-19.5 -64.5q-6 -42 -6 -244v-137q0 -139 6 -181q9 -67 95 -67q74 0 130 47.5t80 129.5q4 16 16 16t12 -13q0 -12 -20 -92t-26 -100
q-5 -18 -24 -18h-495q-15 0 -15 12q0 15 19 15q56 0 75 18t23 65q6 84 6 237zM145 794q-22 0 -22 22q55 36 89 72t55 89q3 8 10 8q11 0 42.5 -19t31.5 -31q0 -8 -7 -15q-38 -41 -105.5 -83.5t-93.5 -42.5z" />
    <glyph glyph-name="lacute" unicode="&#x13a;" horiz-adv-x="324" 
d="M217 770v-496q0 -136 5 -171q6 -48 18.5 -62.5t54.5 -14.5q18 0 18 -14q0 -12 -15 -12h-277q-15 0 -15 12q0 14 18 14q42 0 57.5 16t19.5 61q6 84 6 171v353q0 81 -11.5 105.5t-53.5 24.5h-25q-16 0 -16 9t16 13q9 2 50.5 14t70 19t41.5 7q38 0 38 -49zM63 811
q-22 0 -22 22q55 36 89 72t55 89q3 8 10 8q11 0 42.5 -19t31.5 -31q0 -8 -7 -15q-38 -41 -105.5 -83.5t-93.5 -42.5z" />
    <glyph glyph-name="Lcommaaccent" unicode="&#x13b;" horiz-adv-x="607" 
d="M150 347v66q0 162 -6 246q-4 46 -21.5 62.5t-71.5 16.5q-18 0 -18 14q0 13 15 13h315q15 0 15 -13q0 -14 -19 -14q-53 0 -65.5 -14.5t-19.5 -64.5q-6 -42 -6 -244v-137q0 -139 6 -181q9 -67 95 -67q74 0 130 47.5t80 129.5q4 16 16 16t12 -13q0 -12 -20 -92t-26 -100
q-5 -18 -24 -18h-495q-15 0 -15 12q0 15 19 15q56 0 75 18t23 65q6 84 6 237zM403 -119q0 -46 -40 -79t-74 -33q-14 0 -14 13q0 11 11 15q30 10 30 45q0 4 -2 14l-46 45q0 22 18.5 40t47.5 18q28 0 48.5 -19.5t20.5 -58.5z" />
    <glyph glyph-name="lcommaaccent" unicode="&#x13c;" horiz-adv-x="324" 
d="M217 770v-496q0 -136 5 -171q6 -48 18.5 -62.5t54.5 -14.5q18 0 18 -14q0 -12 -15 -12h-277q-15 0 -15 12q0 14 18 14q42 0 57.5 16t19.5 61q6 84 6 171v353q0 81 -11.5 105.5t-53.5 24.5h-25q-16 0 -16 9t16 13q9 2 50.5 14t70 19t41.5 7q38 0 38 -49zM226 -119
q0 -46 -40 -79t-74 -33q-14 0 -14 13q0 11 11 15q30 10 30 45q0 4 -2 14l-46 45q0 22 18.5 40t47.5 18q28 0 48.5 -19.5t20.5 -58.5z" />
    <glyph glyph-name="Lcaron" unicode="&#x13d;" horiz-adv-x="607" 
d="M150 347v66q0 162 -6 246q-4 46 -21.5 62.5t-71.5 16.5q-18 0 -18 14q0 13 15 13h315q15 0 15 -13q0 -14 -19 -14q-53 0 -65.5 -14.5t-19.5 -64.5q-6 -42 -6 -244v-137q0 -139 6 -181q9 -67 95 -67q74 0 130 47.5t80 129.5q4 16 16 16t12 -13q0 -12 -20 -92t-26 -100
q-5 -18 -24 -18h-495q-15 0 -15 12q0 15 19 15q56 0 75 18t23 65q6 84 6 237zM552 753q0 -53 -29.5 -132.5t-58.5 -79.5q-9 0 -16 8q21 62 21 117q0 29 -3.5 58t-3.5 34q0 15 13 15h60q17 0 17 -20z" />
    <glyph glyph-name="lcaron" unicode="&#x13e;" horiz-adv-x="324" 
d="M217 770v-496q0 -136 5 -171q6 -48 18.5 -62.5t54.5 -14.5q18 0 18 -14q0 -12 -15 -12h-277q-15 0 -15 12q0 14 18 14q42 0 57.5 16t19.5 61q6 84 6 171v353q0 81 -11.5 105.5t-53.5 24.5h-25q-16 0 -16 9t16 13q9 2 50.5 14t70 19t41.5 7q38 0 38 -49zM362 790
q0 -53 -29.5 -132.5t-58.5 -79.5q-9 0 -16 8q21 62 21 117q0 29 -3.5 58t-3.5 34q0 15 13 15h60q17 0 17 -20z" />
    <glyph glyph-name="Ldot" unicode="&#x13f;" horiz-adv-x="607" 
d="M150 347v66q0 162 -6 246q-4 46 -21.5 62.5t-71.5 16.5q-18 0 -18 14q0 13 15 13h315q15 0 15 -13q0 -14 -19 -14q-53 0 -65.5 -14.5t-19.5 -64.5q-6 -42 -6 -244v-137q0 -139 6 -181q9 -67 95 -67q74 0 130 47.5t80 129.5q4 16 16 16t12 -13q0 -12 -20 -92t-26 -100
q-5 -18 -24 -18h-495q-15 0 -15 12q0 15 19 15q56 0 75 18t23 65q6 84 6 237zM439 406q0 30 20.5 51t49.5 21q30 0 51 -21t21 -51q0 -29 -21 -49.5t-51 -20.5q-29 0 -49.5 20.5t-20.5 49.5z" />
    <glyph glyph-name="ldot" unicode="&#x140;" horiz-adv-x="384" 
d="M217 770v-496q0 -136 5 -171q6 -48 18.5 -62.5t54.5 -14.5q18 0 18 -14q0 -12 -15 -12h-277q-15 0 -15 12q0 14 18 14q42 0 57.5 16t19.5 61q6 84 6 171v353q0 81 -11.5 105.5t-53.5 24.5h-25q-16 0 -16 9t16 13q9 2 50.5 14t70 19t41.5 7q38 0 38 -49zM283 349
q0 30 20.5 51t49.5 21q30 0 51 -21t21 -51q0 -29 -21 -49.5t-51 -20.5q-29 0 -49.5 20.5t-20.5 49.5z" />
    <glyph glyph-name="Lslash" unicode="&#x141;" horiz-adv-x="607" 
d="M431 461l-163 -79v-104q0 -139 6 -181q9 -67 95 -67q74 0 130 47.5t80 129.5q4 16 16 16t12 -13q0 -12 -20 -92t-26 -100q-5 -18 -24 -18h-495q-15 0 -15 12q0 15 19 15q56 0 75 18t23 65q6 75 6 215l-95 -45q-10 -5 -16 -5q-16 0 -16 17q0 12 13 18l114 55v48
q0 162 -6 246q-4 46 -21.5 62.5t-71.5 16.5q-18 0 -18 14q0 13 15 13h315q15 0 15 -13q0 -14 -19 -14q-53 0 -65.5 -14.5t-19.5 -64.5q-6 -42 -6 -224v-13l141 68q8 4 14 4q7 0 12 -5.5t5 -12.5q0 -11 -9 -15z" />
    <glyph glyph-name="lslash" unicode="&#x142;" horiz-adv-x="332" 
d="M325 557l-108 -86v-197q0 -136 5 -171q6 -48 18.5 -62.5t54.5 -14.5q18 0 18 -14q0 -12 -15 -12h-277q-15 0 -15 12q0 14 18 14q42 0 57.5 16t19.5 61q6 84 6 171v110l-66 -52q-4 -4 -10 -4q-7 0 -12.5 6t-5.5 13t6 12l88 69v199q0 81 -11.5 105.5t-53.5 24.5h-25
q-16 0 -16 9t16 13q9 2 50.5 14t70 19t41.5 7q38 0 38 -49v-256l86 68q6 5 13 5t11.5 -5t4.5 -11q0 -8 -7 -14z" />
    <glyph glyph-name="Nacute" unicode="&#x143;" horiz-adv-x="860" 
d="M44 765h166q10 0 15 -6l452 -551v245q0 137 -6 209q-3 41 -23 58.5t-71 17.5q-16 0 -16 14q0 13 13 13h247q13 0 13 -12q0 -15 -17 -15q-46 0 -63 -16.5t-23 -59.5q-7 -42 -7 -207v-450q0 -20 -17 -20q-9 0 -16 9l-496 607v-294q0 -163 4 -198q6 -42 30 -62.5t76 -20.5
q17 0 17 -14q0 -12 -14 -12h-268q-13 0 -13 12q0 14 17 14q52 0 73 17.5t25 58.5q5 60 5 200v356l-29 40q-30 40 -75 40q-13 0 -13 14q0 13 14 13zM392 794q-22 0 -22 22q55 36 89 72t55 89q3 8 10 8q11 0 42.5 -19t31.5 -31q0 -8 -7 -15q-38 -41 -105.5 -83.5t-93.5 -42.5z
" />
    <glyph glyph-name="nacute" unicode="&#x144;" horiz-adv-x="674" 
d="M227 489l30 25q40 33 63 50t57 31.5t68 14.5q61 0 96.5 -42t35.5 -108v-357q0 -44 16 -60.5t57 -16.5q18 0 18 -14q0 -12 -15 -12h-271q-15 0 -15 12q0 14 18 14q32 0 47 19t22.5 76.5t7.5 175.5q0 101 -10.5 156t-26.5 71t-44 16q-9 0 -18.5 -1.5t-20.5 -7.5t-18.5 -9.5
t-22 -14.5l-21.5 -16.5l-27 -21.5l-28 -22q-1 -33 -1 -130v-43q0 -124 6 -166q4 -28 6 -39t9.5 -23.5t20.5 -16t36 -3.5q19 0 19 -14q0 -12 -15 -12h-275q-15 0 -15 12q0 14 18 14q52 1 68 37q15 34 15 173v38v48q0 39 -0.5 60.5t-2 52t-6 46.5t-11.5 33t-18 24t-27 7h-28
q-13 0 -13 10q0 13 72.5 28t106.5 15q38 0 38 -49q0 -39 -1 -60zM292 658q0 25 46.5 88.5t90.5 105.5q7 7 15 7q12 0 31 -31.5t19 -42.5q0 -7 -8 -10q-89 -35 -172 -139q-22 0 -22 22z" />
    <glyph glyph-name="Ncommaaccent" unicode="&#x145;" horiz-adv-x="860" 
d="M44 765h166q10 0 15 -6l452 -551v245q0 137 -6 209q-3 41 -23 58.5t-71 17.5q-16 0 -16 14q0 13 13 13h247q13 0 13 -12q0 -15 -17 -15q-46 0 -63 -16.5t-23 -59.5q-7 -42 -7 -207v-450q0 -20 -17 -20q-9 0 -16 9l-496 607v-294q0 -163 4 -198q6 -42 30 -62.5t76 -20.5
q17 0 17 -14q0 -12 -14 -12h-268q-13 0 -13 12q0 14 17 14q52 0 73 17.5t25 58.5q5 60 5 200v356l-29 40q-30 40 -75 40q-13 0 -13 14q0 13 14 13zM486 -119q0 -46 -40 -79t-74 -33q-14 0 -14 13q0 11 11 15q30 10 30 45q0 4 -2 14l-46 45q0 22 18.5 40t47.5 18
q28 0 48.5 -19.5t20.5 -58.5z" />
    <glyph glyph-name="ncommaaccent" unicode="&#x146;" horiz-adv-x="674" 
d="M227 489l30 25q40 33 63 50t57 31.5t68 14.5q61 0 96.5 -42t35.5 -108v-357q0 -44 16 -60.5t57 -16.5q18 0 18 -14q0 -12 -15 -12h-271q-15 0 -15 12q0 14 18 14q32 0 47 19t22.5 76.5t7.5 175.5q0 101 -10.5 156t-26.5 71t-44 16q-9 0 -18.5 -1.5t-20.5 -7.5t-18.5 -9.5
t-22 -14.5l-21.5 -16.5l-27 -21.5l-28 -22q-1 -33 -1 -130v-43q0 -124 6 -166q4 -28 6 -39t9.5 -23.5t20.5 -16t36 -3.5q19 0 19 -14q0 -12 -15 -12h-275q-15 0 -15 12q0 14 18 14q52 1 68 37q15 34 15 173v38v48q0 39 -0.5 60.5t-2 52t-6 46.5t-11.5 33t-18 24t-27 7h-28
q-13 0 -13 10q0 13 72.5 28t106.5 15q38 0 38 -49q0 -39 -1 -60zM415 -119q0 -46 -40 -79t-74 -33q-14 0 -14 13q0 11 11 15q30 10 30 45q0 4 -2 14l-46 45q0 22 18.5 40t47.5 18q28 0 48.5 -19.5t20.5 -58.5z" />
    <glyph glyph-name="Ncaron" unicode="&#x147;" horiz-adv-x="860" 
d="M44 765h166q10 0 15 -6l452 -551v245q0 137 -6 209q-3 41 -23 58.5t-71 17.5q-16 0 -16 14q0 13 13 13h247q13 0 13 -12q0 -15 -17 -15q-46 0 -63 -16.5t-23 -59.5q-7 -42 -7 -207v-450q0 -20 -17 -20q-9 0 -16 9l-496 607v-294q0 -163 4 -198q6 -42 30 -62.5t76 -20.5
q17 0 17 -14q0 -12 -14 -12h-268q-13 0 -13 12q0 14 17 14q52 0 73 17.5t25 58.5q5 60 5 200v356l-29 40q-30 40 -75 40q-13 0 -13 14q0 13 14 13zM306 948l125 -49l128 48q13 5 23 5q20 0 29 -16l-180 -125l-181 125q14 17 33 17q10 0 23 -5z" />
    <glyph glyph-name="ncaron" unicode="&#x148;" horiz-adv-x="674" 
d="M227 489l30 25q40 33 63 50t57 31.5t68 14.5q61 0 96.5 -42t35.5 -108v-357q0 -44 16 -60.5t57 -16.5q18 0 18 -14q0 -12 -15 -12h-271q-15 0 -15 12q0 14 18 14q32 0 47 19t22.5 76.5t7.5 175.5q0 101 -10.5 156t-26.5 71t-44 16q-9 0 -18.5 -1.5t-20.5 -7.5t-18.5 -9.5
t-22 -14.5l-21.5 -16.5l-27 -21.5l-28 -22q-1 -33 -1 -130v-43q0 -124 6 -166q4 -28 6 -39t9.5 -23.5t20.5 -16t36 -3.5q19 0 19 -14q0 -12 -15 -12h-275q-15 0 -15 12q0 14 18 14q52 1 68 37q15 34 15 173v38v48q0 39 -0.5 60.5t-2 52t-6 46.5t-11.5 33t-18 24t-27 7h-28
q-13 0 -13 10q0 13 72.5 28t106.5 15q38 0 38 -49q0 -39 -1 -60zM337 740l107 69q9 6 18 6q16 0 30 -17l-155 -154l-154 154q9 15 27 15q10 0 18 -5z" />
    <glyph glyph-name="Eng" unicode="&#x14a;" horiz-adv-x="867" 
d="M724 455v-436q0 -230 -185 -230q-68 0 -109.5 24t-41.5 72t32.5 69t68.5 21q0 -29 1.5 -47.5t8 -45t23 -40.5t42.5 -14q51 0 82 46t31 137l-482 590v-294q0 -163 4 -198q6 -42 30 -62.5t76 -20.5q17 0 17 -14q0 -12 -14 -12h-268q-13 0 -13 12q0 14 17 14q52 0 73 17.5
t25 58.5q5 60 5 200v356l-29 40q-30 40 -75 40q-13 0 -13 14q0 13 14 13h166q10 0 15 -6l452 -551v245q0 137 -6 209q-3 41 -23 58.5t-71 17.5q-16 0 -16 14q0 13 13 13h247q13 0 13 -12q0 -15 -17 -15q-46 0 -63 -16.5t-23 -59.5q-7 -42 -7 -207z" />
    <glyph glyph-name="eng" unicode="&#x14b;" horiz-adv-x="644" 
d="M569 460v-254q0 -34 5 -113.5t5 -112.5q0 -92 -60 -141.5t-158 -49.5q-20 0 -20 16q0 14 19 14q60 0 81 25.5t21 84.5v368q0 101 -10.5 156t-26.5 71t-44 16q-9 0 -18.5 -1.5t-20.5 -7.5t-18.5 -9.5t-22 -14.5l-21.5 -16.5l-27 -21.5l-28 -22q-1 -33 -1 -130v-43
q0 -124 6 -166q4 -28 6 -39t9.5 -23.5t20.5 -16t36 -3.5q19 0 19 -14q0 -12 -15 -12h-275q-15 0 -15 12q0 14 18 14q52 1 68 37q15 34 15 173v38v48q0 39 -0.5 60.5t-2 52t-6 46.5t-11.5 33t-18 24t-27 7h-28q-13 0 -13 10q0 13 72.5 28t106.5 15q38 0 38 -49q0 -39 -1 -60
l30 25q40 33 63 50t57 31.5t68 14.5q60 0 92 -41.5t32 -108.5z" />
    <glyph glyph-name="Omacron" unicode="&#x14c;" horiz-adv-x="847" 
d="M55 384q0 185 98.5 290t268.5 105t268 -104t98 -291t-98 -290.5t-268 -103.5t-268.5 103.5t-98.5 290.5zM417 741q-62 0 -107.5 -29t-70 -80.5t-36 -110.5t-11.5 -129q0 -74 11.5 -136t36.5 -115t71 -83t108 -30q63 0 109 28.5t71.5 79t37 110t11.5 130.5
q0 76 -11.5 138.5t-37.5 115t-72 82t-110 29.5zM573 833h-304q-25 0 -25 22q0 10 7 17t20 7h300q13 0 20.5 -7t7.5 -17q0 -9 -7 -15.5t-19 -6.5z" />
    <glyph glyph-name="omacron" unicode="&#x14d;" horiz-adv-x="615" 
d="M290 -10q-119 0 -184.5 74.5t-65.5 211.5q0 166 77.5 250t206.5 84q118 0 184.5 -77.5t66.5 -214.5q0 -165 -77.5 -246.5t-207.5 -81.5zM317 25q74 0 104.5 67.5t30.5 190.5q0 132 -36.5 212.5t-112.5 80.5q-73 0 -107 -71.5t-34 -192.5q0 -130 38.5 -208.5t116.5 -78.5z
M460 670h-304q-25 0 -25 22q0 10 7 17t20 7h300q13 0 20.5 -7t7.5 -17q0 -9 -7 -15.5t-19 -6.5z" />
    <glyph glyph-name="Obreve" unicode="&#x14e;" horiz-adv-x="847" 
d="M55 384q0 185 98.5 290t268.5 105t268 -104t98 -291t-98 -290.5t-268 -103.5t-268.5 103.5t-98.5 290.5zM417 741q-62 0 -107.5 -29t-70 -80.5t-36 -110.5t-11.5 -129q0 -74 11.5 -136t36.5 -115t71 -83t108 -30q63 0 109 28.5t71.5 79t37 110t11.5 130.5
q0 76 -11.5 138.5t-37.5 115t-72 82t-110 29.5zM424 820q-72 0 -116 36.5t-44 95.5q0 20 9 20q7 0 13 -12q24 -41 56.5 -57t80.5 -16q49 0 81 16t56 57q6 12 13 12q9 0 9 -20q0 -59 -43.5 -95.5t-114.5 -36.5z" />
    <glyph glyph-name="obreve" unicode="&#x14f;" horiz-adv-x="615" 
d="M290 -10q-119 0 -184.5 74.5t-65.5 211.5q0 166 77.5 250t206.5 84q118 0 184.5 -77.5t66.5 -214.5q0 -165 -77.5 -246.5t-207.5 -81.5zM317 25q74 0 104.5 67.5t30.5 190.5q0 132 -36.5 212.5t-112.5 80.5q-73 0 -107 -71.5t-34 -192.5q0 -130 38.5 -208.5t116.5 -78.5z
M310 646q-65 0 -113 40t-48 101q0 17 10 17q7 0 15 -13q20 -39 57.5 -60.5t78.5 -21.5q44 0 81 21.5t54 60.5q5 13 14 13q10 0 10 -16q0 -62 -47 -102t-112 -40z" />
    <glyph glyph-name="Ohungarumlaut" unicode="&#x150;" horiz-adv-x="847" 
d="M55 384q0 185 98.5 290t268.5 105t268 -104t98 -291t-98 -290.5t-268 -103.5t-268.5 103.5t-98.5 290.5zM417 741q-62 0 -107.5 -29t-70 -80.5t-36 -110.5t-11.5 -129q0 -74 11.5 -136t36.5 -115t71 -83t108 -30q63 0 109 28.5t71.5 79t37 110t11.5 130.5
q0 76 -11.5 138.5t-37.5 115t-72 82t-110 29.5zM314 801q-22 0 -22 22q55 36 89 72t55 89q3 8 10 8q11 0 42.5 -19t31.5 -31q0 -8 -7 -15q-38 -41 -105.5 -83.5t-93.5 -42.5zM464 801q-22 0 -22 22q55 36 89 72t55 89q3 8 10 8q11 0 42.5 -19t31.5 -31q0 -8 -7 -15
q-38 -41 -105.5 -83.5t-93.5 -42.5z" />
    <glyph glyph-name="ohungarumlaut" unicode="&#x151;" horiz-adv-x="615" 
d="M290 -10q-119 0 -184.5 74.5t-65.5 211.5q0 166 77.5 250t206.5 84q118 0 184.5 -77.5t66.5 -214.5q0 -165 -77.5 -246.5t-207.5 -81.5zM317 25q74 0 104.5 67.5t30.5 190.5q0 132 -36.5 212.5t-112.5 80.5q-73 0 -107 -71.5t-34 -192.5q0 -130 38.5 -208.5t116.5 -78.5z
M201 665q-22 0 -22 22q55 36 89 72t55 89q3 8 10 8q11 0 42.5 -19t31.5 -31q0 -8 -7 -15q-38 -41 -105.5 -83.5t-93.5 -42.5zM351 665q-22 0 -22 22q55 36 89 72t55 89q3 8 10 8q11 0 42.5 -19t31.5 -31q0 -8 -7 -15q-38 -41 -105.5 -83.5t-93.5 -42.5z" />
    <glyph glyph-name="OE" unicode="&#x152;" horiz-adv-x="1155" 
d="M55 384q0 185 98.5 290t268.5 105q59 0 113 -14h529q8 0 11.5 -3t3.5 -13v-167q0 -12 -12 -12q-15 0 -15 13q0 55 -37 103t-106 48h-178q-65 0 -89 -18q135 -94 145 -299h80q96 0 110 97q3 18 14 18q9 0 9 -15q0 -14 -3.5 -50.5t-3.5 -69.5q0 -39 3.5 -71t3.5 -39
q0 -15 -9 -15q-11 0 -14 18q-14 93 -110 93h-79q0 -202 -117 -308q13 -45 96 -45h141q64 0 117.5 48t77.5 129q4 16 16 16t12 -13q0 -12 -20 -92t-26 -100q-5 -18 -24 -18h-542q-52 -10 -97 -10q-170 0 -268.5 103.5t-98.5 290.5zM417 741q-62 0 -107.5 -29t-70 -80.5
t-36 -110.5t-11.5 -129q0 -74 11.5 -136t36.5 -115t71 -83t108 -30q63 0 109 28.5t71.5 79t37 110t11.5 130.5q0 76 -11.5 138.5t-37.5 115t-72 82t-110 29.5z" />
    <glyph glyph-name="oe" unicode="&#x153;" horiz-adv-x="955" 
d="M922 161q0 -58 -55 -114.5t-158 -56.5q-135 0 -202 95q-73 -95 -217 -95q-119 0 -184.5 74.5t-65.5 211.5q0 166 77.5 250t206.5 84q133 0 197 -97q74 97 209 97q34 0 65.5 -10t61 -31t47.5 -61t18 -93q0 -27 -14 -38t-47 -11h-296q0 -151 50 -225t136 -74
q54 0 89.5 21.5t62.5 76.5q4 8 11 8q8 0 8 -12zM317 25q74 0 104.5 67.5t30.5 190.5q0 132 -36.5 212.5t-112.5 80.5q-73 0 -107 -71.5t-34 -192.5q0 -130 38.5 -208.5t116.5 -78.5zM710 578q-59 0 -96 -53t-47 -133l191 13q23 1 31 10t8 27q0 136 -87 136z" />
    <glyph glyph-name="Racute" unicode="&#x154;" horiz-adv-x="765" 
d="M323 337q-28 0 -28 14q0 12 15 12q83 0 134.5 49.5t51.5 132.5q0 78 -40.5 128.5t-127.5 50.5q-34 0 -60 -13v-271q0 -284 6 -330q6 -47 26 -65t73 -18q19 0 19 -15q0 -12 -15 -12h-335q-15 0 -15 12q0 15 19 15q55 0 74.5 19t23.5 66q6 84 6 232v64q0 156 -6 243
q-4 48 -20 65.5t-73 17.5q-18 0 -18 17q0 14 15 14h315q123 0 190.5 -53.5t67.5 -159.5q0 -60 -28.5 -104t-65.5 -65t-85 -33q163 -260 251 -309q17 -10 40.5 -12.5t36.5 -4.5t13 -10q0 -12 -58 -18.5t-120 -6.5q-45 0 -98 66.5t-184 281.5zM255 794q-22 0 -22 22
q55 36 89 72t55 89q3 8 10 8q11 0 42.5 -19t31.5 -31q0 -8 -7 -15q-38 -41 -105.5 -83.5t-93.5 -42.5z" />
    <glyph glyph-name="racute" unicode="&#x155;" horiz-adv-x="455" 
d="M221 440q39 170 148 170q40 0 63 -20t23 -61q0 -40 -29 -57t-61 -17q0 64 -44 64q-42 0 -72.5 -64.5t-30.5 -152.5q0 -136 6 -192q6 -46 30 -65t84 -19q18 0 18 -14q0 -12 -15 -12h-312q-15 0 -15 12q0 14 18 14q38 0 55.5 19.5t21.5 64.5q6 84 6 164v43q0 44 -1 72.5
t-6.5 61t-14.5 51t-26 31t-41 12.5h-24q-15 0 -15 11q0 10 15 14q28 8 94 18t80 10q45 0 45 -158zM183 658q0 25 46.5 88.5t90.5 105.5q7 7 15 7q12 0 31 -31.5t19 -42.5q0 -7 -8 -10q-89 -35 -172 -139q-22 0 -22 22z" />
    <glyph glyph-name="Rcommaaccent" unicode="&#x156;" horiz-adv-x="765" 
d="M323 337q-28 0 -28 14q0 12 15 12q83 0 134.5 49.5t51.5 132.5q0 78 -40.5 128.5t-127.5 50.5q-34 0 -60 -13v-271q0 -284 6 -330q6 -47 26 -65t73 -18q19 0 19 -15q0 -12 -15 -12h-335q-15 0 -15 12q0 15 19 15q55 0 74.5 19t23.5 66q6 84 6 232v64q0 156 -6 243
q-4 48 -20 65.5t-73 17.5q-18 0 -18 17q0 14 15 14h315q123 0 190.5 -53.5t67.5 -159.5q0 -60 -28.5 -104t-65.5 -65t-85 -33q163 -260 251 -309q17 -10 40.5 -12.5t36.5 -4.5t13 -10q0 -12 -58 -18.5t-120 -6.5q-45 0 -98 66.5t-184 281.5zM471 -119q0 -46 -40 -79t-74 -33
q-14 0 -14 13q0 11 11 15q30 10 30 45q0 4 -2 14l-46 45q0 22 18.5 40t47.5 18q28 0 48.5 -19.5t20.5 -58.5z" />
    <glyph glyph-name="rcommaaccent" unicode="&#x157;" horiz-adv-x="455" 
d="M221 440q39 170 148 170q40 0 63 -20t23 -61q0 -40 -29 -57t-61 -17q0 64 -44 64q-42 0 -72.5 -64.5t-30.5 -152.5q0 -136 6 -192q6 -46 30 -65t84 -19q18 0 18 -14q0 -12 -15 -12h-312q-15 0 -15 12q0 14 18 14q38 0 55.5 19.5t21.5 64.5q6 84 6 164v43q0 44 -1 72.5
t-6.5 61t-14.5 51t-26 31t-41 12.5h-24q-15 0 -15 11q0 10 15 14q28 8 94 18t80 10q45 0 45 -158zM241 -116q0 -46 -40 -79t-74 -33q-14 0 -14 13q0 11 11 15q30 10 30 45q0 4 -2 14l-46 45q0 22 18.5 40t47.5 18q28 0 48.5 -19.5t20.5 -58.5z" />
    <glyph glyph-name="Rcaron" unicode="&#x158;" horiz-adv-x="765" 
d="M323 337q-28 0 -28 14q0 12 15 12q83 0 134.5 49.5t51.5 132.5q0 78 -40.5 128.5t-127.5 50.5q-34 0 -60 -13v-271q0 -284 6 -330q6 -47 26 -65t73 -18q19 0 19 -15q0 -12 -15 -12h-335q-15 0 -15 12q0 15 19 15q55 0 74.5 19t23.5 66q6 84 6 232v64q0 156 -6 243
q-4 48 -20 65.5t-73 17.5q-18 0 -18 17q0 14 15 14h315q123 0 190.5 -53.5t67.5 -159.5q0 -60 -28.5 -104t-65.5 -65t-85 -33q163 -260 251 -309q17 -10 40.5 -12.5t36.5 -4.5t13 -10q0 -12 -58 -18.5t-120 -6.5q-45 0 -98 66.5t-184 281.5zM209 948l125 -49l128 48
q13 5 23 5q20 0 29 -16l-180 -125l-181 125q14 17 33 17q10 0 23 -5z" />
    <glyph glyph-name="rcaron" unicode="&#x159;" horiz-adv-x="455" 
d="M221 440q39 170 148 170q40 0 63 -20t23 -61q0 -40 -29 -57t-61 -17q0 64 -44 64q-42 0 -72.5 -64.5t-30.5 -152.5q0 -136 6 -192q6 -46 30 -65t84 -19q18 0 18 -14q0 -12 -15 -12h-312q-15 0 -15 12q0 14 18 14q38 0 55.5 19.5t21.5 64.5q6 84 6 164v43q0 44 -1 72.5
t-6.5 61t-14.5 51t-26 31t-41 12.5h-24q-15 0 -15 11q0 10 15 14q28 8 94 18t80 10q45 0 45 -158zM228 740l107 69q9 6 18 6q16 0 30 -17l-155 -154l-154 154q9 15 27 15q11 0 18 -5z" />
    <glyph glyph-name="Sacute" unicode="&#x15a;" horiz-adv-x="516" 
d="M59 221q32 -100 72.5 -146t103.5 -46q36 0 68.5 11t58.5 43.5t26 81.5q0 34 -25.5 66t-63.5 57.5l-83 57t-83 62.5t-63.5 76t-25.5 96q0 71 36 117.5t88 64.5t117 18q89 0 165 -32q11 -6 11 -20v-163q0 -16 -15 -16q-16 0 -16 18q-1 73 -48 123.5t-112 50.5
q-118 0 -118 -123q0 -47 34.5 -88t83.5 -72.5l98 -64t83.5 -78.5t34.5 -101q0 -116 -71.5 -170t-179.5 -54q-92 0 -179 35q-11 5 -13 30q-1 11 -4 51.5l-5.5 74t-2.5 37.5q0 15 13 15q11 0 15 -12zM228 794q-22 0 -22 22q55 36 89 72t55 89q3 8 10 8q11 0 42.5 -19t31.5 -31
q0 -8 -7 -15q-38 -41 -105.5 -83.5t-93.5 -42.5z" />
    <glyph glyph-name="sacute" unicode="&#x15b;" horiz-adv-x="440" 
d="M233 610q40 0 73.5 -5.5t62.5 -25t29 -51.5q0 -39 -26.5 -57.5t-69.5 -18.5q0 17 -2.5 33.5t-10 40.5t-28 39t-50.5 15q-37 0 -59 -24t-22 -57q0 -39 21 -64.5t88 -67.5l45.5 -28.5l38 -25.5t35.5 -27l25 -26t21.5 -31t10.5 -33.5t5 -41.5q0 -56 -37 -94.5t-88 -54
t-109 -15.5q-81 0 -131 28t-50 79q0 78 109 78q-7 -28 -7 -59q0 -96 92 -96q51 0 85.5 26.5t34.5 76.5q0 37 -29 71t-109 80q-38 22 -58.5 35.5t-46 36.5t-36.5 50.5t-11 62.5q0 53 33 89t77 49t94 13zM165 658q0 25 46.5 88.5t90.5 105.5q7 7 15 7q12 0 31 -31.5t19 -42.5
q0 -7 -8 -10q-89 -35 -172 -139q-22 0 -22 22z" />
    <glyph glyph-name="Scircumflex" unicode="&#x15c;" horiz-adv-x="516" 
d="M59 221q32 -100 72.5 -146t103.5 -46q36 0 68.5 11t58.5 43.5t26 81.5q0 34 -25.5 66t-63.5 57.5l-83 57t-83 62.5t-63.5 76t-25.5 96q0 71 36 117.5t88 64.5t117 18q89 0 165 -32q11 -6 11 -20v-163q0 -16 -15 -16q-16 0 -16 18q-1 73 -48 123.5t-112 50.5
q-118 0 -118 -123q0 -47 34.5 -88t83.5 -72.5l98 -64t83.5 -78.5t34.5 -101q0 -116 -71.5 -170t-179.5 -54q-92 0 -179 35q-11 5 -13 30q-1 11 -4 51.5l-5.5 74t-2.5 37.5q0 15 13 15q11 0 15 -12zM391 816l-125 49l-128 -48q-13 -5 -23 -5q-20 0 -29 16l180 125l181 -125
q-14 -17 -33 -17q-10 0 -23 5z" />
    <glyph glyph-name="scircumflex" unicode="&#x15d;" horiz-adv-x="440" 
d="M233 610q40 0 73.5 -5.5t62.5 -25t29 -51.5q0 -39 -26.5 -57.5t-69.5 -18.5q0 17 -2.5 33.5t-10 40.5t-28 39t-50.5 15q-37 0 -59 -24t-22 -57q0 -39 21 -64.5t88 -67.5l45.5 -28.5l38 -25.5t35.5 -27l25 -26t21.5 -31t10.5 -33.5t5 -41.5q0 -56 -37 -94.5t-88 -54
t-109 -15.5q-81 0 -131 28t-50 79q0 78 109 78q-7 -28 -7 -59q0 -96 92 -96q51 0 85.5 26.5t34.5 76.5q0 37 -29 71t-109 80q-38 22 -58.5 35.5t-46 36.5t-36.5 50.5t-11 62.5q0 53 33 89t77 49t94 13zM327 643l-107 69l-109 -68q-7 -5 -18 -5q-18 0 -27 15l154 154
l155 -154q-14 -17 -30 -17q-9 0 -18 6z" />
    <glyph glyph-name="Scedilla" unicode="&#x15e;" horiz-adv-x="516" 
d="M59 221q32 -100 72.5 -146t103.5 -46q36 0 68.5 11t58.5 43.5t26 81.5q0 34 -25.5 66t-63.5 57.5l-83 57t-83 62.5t-63.5 76t-25.5 96q0 71 36 117.5t88 64.5t117 18q89 0 165 -32q11 -6 11 -20v-163q0 -16 -15 -16q-16 0 -16 18q-1 73 -48 123.5t-112 50.5
q-118 0 -118 -123q0 -47 34.5 -88t83.5 -72.5l98 -64t83.5 -78.5t34.5 -101q0 -116 -71.5 -170t-179.5 -54q-92 0 -179 35q-11 5 -13 30q-1 11 -4 51.5l-5.5 74t-2.5 37.5q0 15 13 15q11 0 15 -12zM354 -128q0 -51 -34 -77.5t-85 -26.5q-40 0 -67.5 14.5t-27.5 43.5
q0 21 14 36q35 -21 78 -21q56 0 56 39q0 27 -25 42t-67 15q-4 7 -4 13q0 23 49 23q51 0 82 -29.5t31 -71.5z" />
    <glyph glyph-name="scedilla" unicode="&#x15f;" horiz-adv-x="440" 
d="M233 610q40 0 73.5 -5.5t62.5 -25t29 -51.5q0 -39 -26.5 -57.5t-69.5 -18.5q0 17 -2.5 33.5t-10 40.5t-28 39t-50.5 15q-37 0 -59 -24t-22 -57q0 -39 21 -64.5t88 -67.5l45.5 -28.5l38 -25.5t35.5 -27l25 -26t21.5 -31t10.5 -33.5t5 -41.5q0 -56 -37 -94.5t-88 -54
t-109 -15.5q-81 0 -131 28t-50 79q0 78 109 78q-7 -28 -7 -59q0 -96 92 -96q51 0 85.5 26.5t34.5 76.5q0 37 -29 71t-109 80q-38 22 -58.5 35.5t-46 36.5t-36.5 50.5t-11 62.5q0 53 33 89t77 49t94 13zM313 -128q0 -51 -34 -77.5t-85 -26.5q-40 0 -67.5 14.5t-27.5 43.5
q0 21 14 36q35 -21 78 -21q56 0 56 39q0 27 -25 42t-67 15q-4 7 -4 13q0 23 49 23q51 0 82 -29.5t31 -71.5z" />
    <glyph glyph-name="Scaron" unicode="&#x160;" horiz-adv-x="516" 
d="M59 221q32 -100 72.5 -146t103.5 -46q36 0 68.5 11t58.5 43.5t26 81.5q0 34 -25.5 66t-63.5 57.5l-83 57t-83 62.5t-63.5 76t-25.5 96q0 71 36 117.5t88 64.5t117 18q89 0 165 -32q11 -6 11 -20v-163q0 -16 -15 -16q-16 0 -16 18q-1 73 -48 123.5t-112 50.5
q-118 0 -118 -123q0 -47 34.5 -88t83.5 -72.5l98 -64t83.5 -78.5t34.5 -101q0 -116 -71.5 -170t-179.5 -54q-92 0 -179 35q-11 5 -13 30q-1 11 -4 51.5l-5.5 74t-2.5 37.5q0 15 13 15q11 0 15 -12zM142 948l125 -49l128 48q13 5 23 5q20 0 29 -16l-180 -125l-181 125
q14 17 33 17q10 0 23 -5z" />
    <glyph glyph-name="scaron" unicode="&#x161;" horiz-adv-x="440" 
d="M233 610q40 0 73.5 -5.5t62.5 -25t29 -51.5q0 -39 -26.5 -57.5t-69.5 -18.5q0 17 -2.5 33.5t-10 40.5t-28 39t-50.5 15q-37 0 -59 -24t-22 -57q0 -39 21 -64.5t88 -67.5l45.5 -28.5l38 -25.5t35.5 -27l25 -26t21.5 -31t10.5 -33.5t5 -41.5q0 -56 -37 -94.5t-88 -54
t-109 -15.5q-81 0 -131 28t-50 79q0 78 109 78q-7 -28 -7 -59q0 -96 92 -96q51 0 85.5 26.5t34.5 76.5q0 37 -29 71t-109 80q-38 22 -58.5 35.5t-46 36.5t-36.5 50.5t-11 62.5q0 53 33 89t77 49t94 13zM220 740l107 69q9 6 18 6q16 0 30 -17l-155 -154l-154 154q9 15 27 15
q11 0 18 -5z" />
    <glyph glyph-name="Tcedilla" unicode="&#x162;" horiz-adv-x="679" 
d="M36 765h612q9 0 12 -3t3 -13v-169q0 -12 -12 -12q-15 0 -15 13q0 52 -39.5 98t-102.5 46h-93v-379q0 -180 6 -236q5 -45 30.5 -64t80.5 -19q19 0 19 -15q0 -12 -15 -12h-358q-15 0 -15 12q0 15 18 15q58 0 82 19t28 64q6 84 6 237v378h-92q-63 0 -103 -46t-40 -98
q0 -13 -15 -13q-12 0 -12 12v169q0 10 3.5 13t11.5 3zM451 -128q0 -51 -34 -77.5t-85 -26.5q-40 0 -67.5 14.5t-27.5 43.5q0 21 14 36q35 -21 78 -21q56 0 56 39q0 27 -25 42t-67 15q-4 7 -4 13q0 23 49 23q51 0 82 -29.5t31 -71.5z" />
    <glyph glyph-name="tcedilla" unicode="&#x163;" horiz-adv-x="363" 
d="M192 700v-108q22 0 70.5 4t63.5 4q12 0 19.5 -6.5t7.5 -15.5q0 -22 -33 -22h-128v-422q0 -84 56 -84q29 0 49.5 20.5t25.5 53.5q3 17 13 17q12 0 12 -19q0 -64 -38 -98.5t-94 -34.5q-142 0 -142 139q0 52 3.5 216t3.5 211h-49q-12 0 -12 9q0 7 11 18l127 125q15 13 21 13
q13 0 13 -20zM294 -128q0 -51 -34 -77.5t-85 -26.5q-40 0 -67.5 14.5t-27.5 43.5q0 21 14 36q35 -21 78 -21q56 0 56 39q0 27 -25 42t-67 15q-4 7 -4 13q0 23 49 23q51 0 82 -29.5t31 -71.5z" />
    <glyph glyph-name="Tcaron" unicode="&#x164;" horiz-adv-x="679" 
d="M36 765h612q9 0 12 -3t3 -13v-169q0 -12 -12 -12q-15 0 -15 13q0 52 -39.5 98t-102.5 46h-93v-379q0 -180 6 -236q5 -45 30.5 -64t80.5 -19q19 0 19 -15q0 -12 -15 -12h-358q-15 0 -15 12q0 15 18 15q58 0 82 19t28 64q6 84 6 237v378h-92q-63 0 -103 -46t-40 -98
q0 -13 -15 -13q-12 0 -12 12v169q0 10 3.5 13t11.5 3zM218 948l125 -49l128 48q13 5 23 5q20 0 29 -16l-180 -125l-181 125q14 17 33 17q10 0 23 -5z" />
    <glyph glyph-name="tcaron" unicode="&#x165;" horiz-adv-x="363" 
d="M192 700v-108q22 0 70.5 4t63.5 4q12 0 19.5 -6.5t7.5 -15.5q0 -22 -33 -22h-128v-422q0 -84 56 -84q29 0 49.5 20.5t25.5 53.5q3 17 13 17q12 0 12 -19q0 -64 -38 -98.5t-94 -34.5q-142 0 -142 139q0 52 3.5 216t3.5 211h-49q-12 0 -12 9q0 7 11 18l127 125q15 13 21 13
q13 0 13 -20zM337 790q0 -50 -30.5 -105.5t-56.5 -55.5q-9 0 -16 8q20 38 20 88q0 12 -3.5 37.5t-3.5 32.5q0 15 13 15h60q17 0 17 -20z" />
    <glyph glyph-name="Tbar" unicode="&#x166;" horiz-adv-x="679" 
d="M180 443h103v282h-92q-63 0 -103 -46t-40 -98q0 -13 -15 -13q-12 0 -12 12v169q0 10 3.5 13t11.5 3h612q9 0 12 -3t3 -13v-169q0 -12 -12 -12q-15 0 -15 13q0 52 -39.5 98t-102.5 46h-93v-282h113q26 0 26 -20q0 -17 -21 -17h-118v-60q0 -180 6 -236q5 -45 30.5 -64
t80.5 -19q19 0 19 -15q0 -12 -15 -12h-358q-15 0 -15 12q0 15 18 15q58 0 82 19t28 64q6 84 6 237v59h-104q-22 0 -22 18q0 19 23 19z" />
    <glyph glyph-name="tbar" unicode="&#x167;" horiz-adv-x="367" 
d="M42 403h37v152h-47q-12 0 -12 9q0 7 11 18l127 125q15 13 21 13q13 0 13 -20v-108q22 0 70.5 4t63.5 4q12 0 19.5 -6.5t7.5 -15.5q0 -22 -33 -22h-128v-153h124q26 0 26 -20q0 -17 -21 -17h-129v-232q0 -84 56 -84q29 0 49.5 20.5t25.5 53.5q3 17 13 17q12 0 12 -19
q0 -64 -38 -98.5t-94 -34.5q-142 0 -142 139q0 16 5 238h-38q-22 0 -22 18q0 19 23 19z" />
    <glyph glyph-name="Utilde" unicode="&#x168;" horiz-adv-x="815" 
d="M119 282v131q0 162 -6 246q-4 46 -21 62.5t-71 16.5q-18 0 -18 15q0 12 15 12h314q15 0 15 -13q0 -14 -18 -14q-50 0 -65 -15.5t-21 -63.5q-5 -35 -5 -244v-127q0 -117 48.5 -179.5t147.5 -62.5q112 0 168 60.5t56 167.5v134q0 158 -6 242q-4 50 -20.5 69t-72.5 19
q-18 0 -18 14q0 13 15 13h242q15 0 15 -12q0 -15 -19 -15q-51 0 -65 -18t-20 -70q-6 -56 -6 -240v-130q0 -142 -70 -216t-221 -74q-293 0 -293 292zM445 818l-80 35q-26 11 -43 11q-47 0 -50 -63l-16 3q-6 16 -6 34q0 39 27 66.5t72 27.5q27 0 60 -12l80 -31q26 -10 46 -10
q48 0 51 60l16 -4q6 -17 6 -34q0 -40 -27 -69.5t-71 -29.5q-30 0 -65 16z" />
    <glyph glyph-name="utilde" unicode="&#x169;" horiz-adv-x="630" 
d="M417 59q-95 -69 -188 -69q-66 0 -106 38t-40 107v208q0 109 -11 156t-50 47h-27q-14 0 -14 10t14 14q33 9 86.5 18.5t73.5 9.5q39 0 39 -49q0 -6 -2.5 -82t-2.5 -150v-136q0 -129 97 -129q52 0 127 37q4 56 4 192v62q0 110 -10.5 156.5t-49.5 46.5h-27q-14 0 -14 10
t14 14q33 9 86.5 18.5t73.5 9.5q39 0 39 -49q0 -6 -2.5 -82t-2.5 -150v-152q0 -35 0.5 -50.5t4.5 -32.5t12 -22.5t23 -5.5q16 0 26 12t15.5 24t10.5 12q9 0 9 -16q0 -39 -26.5 -67.5t-77.5 -28.5q-76 0 -104 69zM308 691l-80 35q-26 11 -43 11q-47 0 -50 -63l-16 3
q-6 17 -6 34q0 39 27 66.5t72 27.5q27 0 60 -12l80 -31q26 -10 46 -10q48 0 51 60l16 -4q6 -17 6 -34q0 -40 -27 -69.5t-71 -29.5q-30 0 -65 16z" />
    <glyph glyph-name="Umacron" unicode="&#x16a;" horiz-adv-x="815" 
d="M119 282v131q0 162 -6 246q-4 46 -21 62.5t-71 16.5q-18 0 -18 15q0 12 15 12h314q15 0 15 -13q0 -14 -18 -14q-50 0 -65 -15.5t-21 -63.5q-5 -35 -5 -244v-127q0 -117 48.5 -179.5t147.5 -62.5q112 0 168 60.5t56 167.5v134q0 158 -6 242q-4 50 -20.5 69t-72.5 19
q-18 0 -18 14q0 13 15 13h242q15 0 15 -12q0 -15 -19 -15q-51 0 -65 -18t-20 -70q-6 -56 -6 -240v-130q0 -142 -70 -216t-221 -74q-293 0 -293 292zM579 833h-304q-25 0 -25 22q0 10 7 17t20 7h300q13 0 20.5 -7t7.5 -17q0 -9 -7 -15.5t-19 -6.5z" />
    <glyph glyph-name="umacron" unicode="&#x16b;" horiz-adv-x="630" 
d="M417 59q-95 -69 -188 -69q-66 0 -106 38t-40 107v208q0 109 -11 156t-50 47h-27q-14 0 -14 10t14 14q33 9 86.5 18.5t73.5 9.5q39 0 39 -49q0 -6 -2.5 -82t-2.5 -150v-136q0 -129 97 -129q52 0 127 37q4 56 4 192v62q0 110 -10.5 156.5t-49.5 46.5h-27q-14 0 -14 10
t14 14q33 9 86.5 18.5t73.5 9.5q39 0 39 -49q0 -6 -2.5 -82t-2.5 -150v-152q0 -35 0.5 -50.5t4.5 -32.5t12 -22.5t23 -5.5q16 0 26 12t15.5 24t10.5 12q9 0 9 -16q0 -39 -26.5 -67.5t-77.5 -28.5q-76 0 -104 69zM442 670h-304q-25 0 -25 22q0 10 7 17t20 7h300q13 0 20.5 -7
t7.5 -17q0 -9 -7 -15.5t-19 -6.5z" />
    <glyph glyph-name="Ubreve" unicode="&#x16c;" horiz-adv-x="815" 
d="M119 282v131q0 162 -6 246q-4 46 -21 62.5t-71 16.5q-18 0 -18 15q0 12 15 12h314q15 0 15 -13q0 -14 -18 -14q-50 0 -65 -15.5t-21 -63.5q-5 -35 -5 -244v-127q0 -117 48.5 -179.5t147.5 -62.5q112 0 168 60.5t56 167.5v134q0 158 -6 242q-4 50 -20.5 69t-72.5 19
q-18 0 -18 14q0 13 15 13h242q15 0 15 -12q0 -15 -19 -15q-51 0 -65 -18t-20 -70q-6 -56 -6 -240v-130q0 -142 -70 -216t-221 -74q-293 0 -293 292zM430 820q-72 0 -116 36.5t-44 95.5q0 20 9 20q7 0 13 -12q24 -41 56.5 -57t80.5 -16q49 0 81 16t56 57q6 12 13 12
q9 0 9 -20q0 -59 -43.5 -95.5t-114.5 -36.5z" />
    <glyph glyph-name="ubreve" unicode="&#x16d;" horiz-adv-x="630" 
d="M417 59q-95 -69 -188 -69q-66 0 -106 38t-40 107v208q0 109 -11 156t-50 47h-27q-14 0 -14 10t14 14q33 9 86.5 18.5t73.5 9.5q39 0 39 -49q0 -6 -2.5 -82t-2.5 -150v-136q0 -129 97 -129q52 0 127 37q4 56 4 192v62q0 110 -10.5 156.5t-49.5 46.5h-27q-14 0 -14 10
t14 14q33 9 86.5 18.5t73.5 9.5q39 0 39 -49q0 -6 -2.5 -82t-2.5 -150v-152q0 -35 0.5 -50.5t4.5 -32.5t12 -22.5t23 -5.5q16 0 26 12t15.5 24t10.5 12q9 0 9 -16q0 -39 -26.5 -67.5t-77.5 -28.5q-76 0 -104 69zM292 646q-65 0 -113 40t-48 101q0 17 10 17q7 0 15 -13
q20 -39 57.5 -60.5t78.5 -21.5q44 0 81 21.5t54 60.5q5 13 14 13q10 0 10 -16q0 -62 -47 -102t-112 -40z" />
    <glyph glyph-name="Uring" unicode="&#x16e;" horiz-adv-x="815" 
d="M119 282v131q0 162 -6 246q-4 46 -21 62.5t-71 16.5q-18 0 -18 15q0 12 15 12h314q15 0 15 -13q0 -14 -18 -14q-50 0 -65 -15.5t-21 -63.5q-5 -35 -5 -244v-127q0 -117 48.5 -179.5t147.5 -62.5q112 0 168 60.5t56 167.5v134q0 158 -6 242q-4 50 -20.5 69t-72.5 19
q-18 0 -18 14q0 13 15 13h242q15 0 15 -12q0 -15 -19 -15q-51 0 -65 -18t-20 -70q-6 -56 -6 -240v-130q0 -142 -70 -216t-221 -74q-293 0 -293 292zM317 906q0 45 31.5 76t82.5 31q49 0 80 -31.5t31 -75.5q0 -46 -31 -77.5t-80 -31.5q-53 0 -83.5 31t-30.5 78zM365 903
q0 -29 18.5 -46.5t48.5 -17.5q28 0 46 18t18 46q0 29 -18 47t-46 18q-30 0 -48.5 -18t-18.5 -47z" />
    <glyph glyph-name="uring" unicode="&#x16f;" horiz-adv-x="630" 
d="M417 59q-95 -69 -188 -69q-66 0 -106 38t-40 107v208q0 109 -11 156t-50 47h-27q-14 0 -14 10t14 14q33 9 86.5 18.5t73.5 9.5q39 0 39 -49q0 -6 -2.5 -82t-2.5 -150v-136q0 -129 97 -129q52 0 127 37q4 56 4 192v62q0 110 -10.5 156.5t-49.5 46.5h-27q-14 0 -14 10
t14 14q33 9 86.5 18.5t73.5 9.5q39 0 39 -49q0 -6 -2.5 -82t-2.5 -150v-152q0 -35 0.5 -50.5t4.5 -32.5t12 -22.5t23 -5.5q16 0 26 12t15.5 24t10.5 12q9 0 9 -16q0 -39 -26.5 -67.5t-77.5 -28.5q-76 0 -104 69zM180 770q0 45 31.5 76t82.5 31q48 0 79.5 -31.5t31.5 -75.5
q0 -46 -31 -77.5t-80 -31.5q-53 0 -83.5 31t-30.5 78zM228 767q0 -29 18.5 -46.5t48.5 -17.5q28 0 46 18t18 46q0 29 -18 47t-46 18q-30 0 -48.5 -18t-18.5 -47z" />
    <glyph glyph-name="Uhungarumlaut" unicode="&#x170;" horiz-adv-x="815" 
d="M119 282v131q0 162 -6 246q-4 46 -21 62.5t-71 16.5q-18 0 -18 15q0 12 15 12h314q15 0 15 -13q0 -14 -18 -14q-50 0 -65 -15.5t-21 -63.5q-5 -35 -5 -244v-127q0 -117 48.5 -179.5t147.5 -62.5q112 0 168 60.5t56 167.5v134q0 158 -6 242q-4 50 -20.5 69t-72.5 19
q-18 0 -18 14q0 13 15 13h242q15 0 15 -12q0 -15 -19 -15q-51 0 -65 -18t-20 -70q-6 -56 -6 -240v-130q0 -142 -70 -216t-221 -74q-293 0 -293 292zM330 801q-22 0 -22 22q55 36 89 72t55 89q3 8 10 8q11 0 42.5 -19t31.5 -31q0 -8 -7 -15q-38 -41 -105.5 -83.5t-93.5 -42.5
zM480 801q-22 0 -22 22q55 36 89 72t55 89q3 8 10 8q11 0 42.5 -19t31.5 -31q0 -8 -7 -15q-38 -41 -105.5 -83.5t-93.5 -42.5z" />
    <glyph glyph-name="uhungarumlaut" unicode="&#x171;" horiz-adv-x="630" 
d="M417 59q-95 -69 -188 -69q-66 0 -106 38t-40 107v208q0 109 -11 156t-50 47h-27q-14 0 -14 10t14 14q33 9 86.5 18.5t73.5 9.5q39 0 39 -49q0 -6 -2.5 -82t-2.5 -150v-136q0 -129 97 -129q52 0 127 37q4 56 4 192v62q0 110 -10.5 156.5t-49.5 46.5h-27q-14 0 -14 10
t14 14q33 9 86.5 18.5t73.5 9.5q39 0 39 -49q0 -6 -2.5 -82t-2.5 -150v-152q0 -35 0.5 -50.5t4.5 -32.5t12 -22.5t23 -5.5q16 0 26 12t15.5 24t10.5 12q9 0 9 -16q0 -39 -26.5 -67.5t-77.5 -28.5q-76 0 -104 69zM183 665q-22 0 -22 22q55 36 89 72t55 89q3 8 10 8
q11 0 42.5 -19t31.5 -31q0 -8 -7 -15q-38 -41 -105.5 -83.5t-93.5 -42.5zM333 665q-22 0 -22 22q55 36 89 72t55 89q3 8 10 8q11 0 42.5 -19t31.5 -31q0 -8 -7 -15q-38 -41 -105.5 -83.5t-93.5 -42.5z" />
    <glyph glyph-name="Uogonek" unicode="&#x172;" horiz-adv-x="815" 
d="M342 -110q0 59 39 101q-262 15 -262 291v131q0 162 -6 246q-4 46 -21 62.5t-71 16.5q-18 0 -18 15q0 12 15 12h314q15 0 15 -13q0 -14 -18 -14q-50 0 -65 -15.5t-21 -63.5q-5 -35 -5 -244v-127q0 -117 48.5 -179.5t147.5 -62.5q112 0 168 60.5t56 167.5v134q0 158 -6 242
q-4 50 -20.5 69t-72.5 19q-18 0 -18 14q0 13 15 13h242q15 0 15 -12q0 -15 -19 -15q-51 0 -65 -18t-20 -70q-6 -56 -6 -240v-130q0 -259 -227 -285q-61 -7 -61 -72q0 -32 20 -49t52 -17q35 0 61 17q4 -9 4 -21q0 -35 -24 -56t-71 -21q-49 0 -82 28.5t-33 85.5z" />
    <glyph glyph-name="uogonek" unicode="&#x173;" horiz-adv-x="630" 
d="M564 54q16 0 26 12t15.5 24t10.5 12q9 0 9 -16q0 -75 -84 -93q-23 -5 -42 -28t-19 -55q0 -53 72 -53q35 0 61 17q4 -9 4 -21q0 -35 -24 -56t-71 -21q-49 0 -82 28t-33 84q0 36 21.5 66t50.5 43q-50 15 -62 62q-95 -69 -188 -69q-66 0 -106 38t-40 107v208q0 109 -11 156
t-50 47h-27q-14 0 -14 10t14 14q33 9 86.5 18.5t73.5 9.5q39 0 39 -49q0 -6 -2.5 -82t-2.5 -150v-136q0 -129 97 -129q52 0 127 37q4 56 4 192v62q0 110 -10.5 156.5t-49.5 46.5h-27q-14 0 -14 10t14 14q33 9 86.5 18.5t73.5 9.5q39 0 39 -49q0 -6 -2.5 -82t-2.5 -150v-152
q0 -35 0.5 -50.5t4.5 -32.5t12 -22.5t23 -5.5z" />
    <glyph glyph-name="Wcircumflex" unicode="&#x174;" horiz-adv-x="1093" 
d="M686 16l-138 416l-148 -411q-12 -34 -27 -34q-13 0 -23 29l-206 573q-32 90 -54.5 120t-70.5 30q-19 0 -19 14q0 12 15 12h667q15 0 15 -12q0 -14 -18 -14q-47 0 -64.5 -7.5t-17.5 -29.5t23 -99l126 -440l155 504q4 12 4 26q0 45 -88 45q-22 0 -22 14q0 13 20 13h256
q21 0 21 -14q0 -13 -17 -13q-48 -1 -76.5 -25t-58.5 -110l-204 -582q-12 -34 -26 -34q-15 0 -24 29zM411 163l114 333l-59 178q-11 33 -35 49t-72 16h-56q-32 0 -44.5 -6.5t-12.5 -24.5q0 -17 27 -105zM671 816l-125 49l-128 -48q-13 -5 -23 -5q-20 0 -29 16l180 125
l181 -125q-14 -17 -33 -17q-10 0 -23 5z" />
    <glyph glyph-name="wcircumflex" unicode="&#x175;" horiz-adv-x="875" 
d="M626 141l103 364q4 13 4 27q0 43 -66 43q-17 0 -17 12q0 11 20 11h193q22 0 22 -12q0 -11 -17 -11q-11 0 -20.5 -3t-17.5 -11t-13 -13.5t-12 -21t-10 -23t-10.5 -28.5l-10.5 -29l-166 -441q-7 -18 -21 -18t-21 22l-126 355l-139 -359q-7 -18 -21 -18t-22 22l-174 472
q-21 59 -35 74.5t-47 15.5q-12 0 -12 12q0 15 13 15h254q15 0 15 -11q0 -10 -16 -11q-63 -7 -63 -38q0 -8 3 -17l120 -378l103 281l-21 57q-22 61 -33 75.5t-40 14.5q-12 0 -12 12q0 15 13 15h244q15 0 15 -11q0 -10 -16 -11q-63 -7 -63 -38q0 -8 3 -17zM554 643l-107 69
l-109 -68q-8 -5 -18 -5q-18 0 -27 15l154 154l155 -154q-14 -17 -30 -17q-9 0 -18 6z" />
    <glyph glyph-name="Ycircumflex" unicode="&#x176;" horiz-adv-x="766" 
d="M613 603l-170 -303q0 -134 6 -190q6 -47 26 -65t74 -18q18 0 18 -14q0 -13 -15 -13h-334q-15 0 -15 13q0 14 18 14q56 0 74.5 18t23.5 65q6 68 6 191l-165 299q-46 83 -72 111t-69 28q-19 0 -19 14q0 12 15 12h310q15 0 15 -12q0 -14 -18 -14q-45 0 -62.5 -6t-17.5 -23
q0 -21 39 -96l144 -278l170 331q8 16 8 27q0 21 -30 32.5t-81 11.5q-17 0 -17 14q0 13 20 13h249q22 0 22 -14q0 -13 -17 -13q-41 0 -63.5 -23.5t-72.5 -111.5zM532 816l-125 49l-128 -48q-13 -5 -23 -5q-20 0 -29 16l180 125l181 -125q-14 -17 -33 -17q-10 0 -23 5z" />
    <glyph glyph-name="ycircumflex" unicode="&#x177;" horiz-adv-x="601" 
d="M482 444l-198 -563q-34 -96 -112 -96q-44 0 -66 23t-22 53q0 38 30 48q22 -37 65 -37q30 0 44.5 12.5t26.5 41.5l33 78l-185 425q-41 95 -57 118.5t-46 23.5q-14 0 -14 12q0 15 18 15h249q10 0 10 -9q0 -12 -18 -12q-62 0 -62 -37q0 -8 5 -20l153 -378l105 363q4 18 4 24
q0 45 -74 45q-7 0 -12 4t-5 9q0 11 19 11h216q22 0 22 -13q0 -11 -17 -11q-67 0 -112 -130zM424 643l-107 69l-109 -68q-7 -5 -18 -5q-18 0 -27 15l154 154l155 -154q-14 -17 -30 -17q-9 0 -18 6z" />
    <glyph glyph-name="Ydieresis" unicode="&#x178;" horiz-adv-x="766" 
d="M613 603l-170 -303q0 -134 6 -190q6 -47 26 -65t74 -18q18 0 18 -14q0 -13 -15 -13h-334q-15 0 -15 13q0 14 18 14q56 0 74.5 18t23.5 65q6 68 6 191l-165 299q-46 83 -72 111t-69 28q-19 0 -19 14q0 12 15 12h310q15 0 15 -12q0 -14 -18 -14q-45 0 -62.5 -6t-17.5 -23
q0 -21 39 -96l144 -278l170 331q8 16 8 27q0 21 -30 32.5t-81 11.5q-17 0 -17 14q0 13 20 13h249q22 0 22 -14q0 -13 -17 -13q-41 0 -63.5 -23.5t-72.5 -111.5zM226 874q0 28 20.5 48t47.5 20q28 0 48.5 -20t20.5 -48t-20.5 -48.5t-48.5 -20.5q-27 0 -47.5 20.5t-20.5 48.5z
M452 874q0 28 20.5 48t48.5 20t48 -20t20 -48t-20 -48.5t-48 -20.5t-48.5 20.5t-20.5 48.5z" />
    <glyph glyph-name="Zacute" unicode="&#x179;" horiz-adv-x="638" 
d="M168 36h218q73 0 122 53.5t76 142.5q4 14 15 14q13 0 13 -15q0 -9 -10.5 -54.5l-24 -100.5t-14.5 -58q-5 -18 -24 -18h-496q-18 0 -18 13q0 10 7 21l408 693h-208q-59 0 -101 -53.5t-42 -130.5q0 -18 -15 -18q-12 0 -12 12v212q0 10 3.5 13t11.5 3h490q23 0 23 -11
q0 -7 -6 -16zM269 794q-22 0 -22 22q55 36 89 72t55 89q3 8 10 8q11 0 42.5 -19t31.5 -31q0 -8 -7 -15q-38 -41 -105.5 -83.5t-93.5 -42.5z" />
    <glyph glyph-name="zacute" unicode="&#x17a;" horiz-adv-x="474" 
d="M472 163q0 -173 -136 -173q-47 0 -132 12.5t-113 12.5t-48.5 -10.5t-25.5 -10.5q-17 0 -17 13q0 9 10 20q105 113 200 240.5t154 226.5q-64 -13 -105 -13q-26 0 -62.5 3.5t-54.5 3.5q-37 0 -57 -13.5t-29 -52.5q-2 -11 -15 -11q-10 0 -10 13q0 47 24.5 108.5t55.5 61.5
q11 0 70.5 -5.5t123.5 -5.5q58 0 92 5.5t48 11t23 5.5t9 -8q0 -5 -6 -16q-41 -83 -165 -249.5t-192 -234.5q32 12 71 12q29 0 81 -5t70 -5q23 0 35.5 0.5t28.5 4t24 10.5t15.5 20t10.5 32q1 14 11 14q11 0 11 -17zM215 658q0 25 46.5 88.5t90.5 105.5q7 7 15 7
q12 0 31 -31.5t19 -42.5q0 -7 -8 -10q-89 -35 -172 -139q-22 0 -22 22z" />
    <glyph glyph-name="Zdotaccent" unicode="&#x17b;" horiz-adv-x="638" 
d="M168 36h218q73 0 122 53.5t76 142.5q4 14 15 14q13 0 13 -15q0 -9 -10.5 -54.5l-24 -100.5t-14.5 -58q-5 -18 -24 -18h-496q-18 0 -18 13q0 10 7 21l408 693h-208q-59 0 -101 -53.5t-42 -130.5q0 -18 -15 -18q-12 0 -12 12v212q0 10 3.5 13t11.5 3h490q23 0 23 -11
q0 -7 -6 -16zM269 879q0 28 20 48.5t48 20.5t48.5 -20.5t20.5 -48.5t-20 -48t-49 -20q-28 0 -48 20t-20 48z" />
    <glyph glyph-name="zdotaccent" unicode="&#x17c;" horiz-adv-x="474" 
d="M472 163q0 -173 -136 -173q-47 0 -132 12.5t-113 12.5t-48.5 -10.5t-25.5 -10.5q-17 0 -17 13q0 9 10 20q105 113 200 240.5t154 226.5q-64 -13 -105 -13q-26 0 -62.5 3.5t-54.5 3.5q-37 0 -57 -13.5t-29 -52.5q-2 -11 -15 -11q-10 0 -10 13q0 47 24.5 108.5t55.5 61.5
q11 0 70.5 -5.5t123.5 -5.5q58 0 92 5.5t48 11t23 5.5t9 -8q0 -5 -6 -16q-41 -83 -165 -249.5t-192 -234.5q32 12 71 12q29 0 81 -5t70 -5q23 0 35.5 0.5t28.5 4t24 10.5t15.5 20t10.5 32q1 14 11 14q11 0 11 -17zM203 745q0 28 20 48.5t48 20.5t48.5 -20.5t20.5 -48.5
t-20 -48t-49 -20q-28 0 -48 20t-20 48z" />
    <glyph glyph-name="Zcaron" unicode="&#x17d;" horiz-adv-x="638" 
d="M168 36h218q73 0 122 53.5t76 142.5q4 14 15 14q13 0 13 -15q0 -9 -10.5 -54.5l-24 -100.5t-14.5 -58q-5 -18 -24 -18h-496q-18 0 -18 13q0 10 7 21l408 693h-208q-59 0 -101 -53.5t-42 -130.5q0 -18 -15 -18q-12 0 -12 12v212q0 10 3.5 13t11.5 3h490q23 0 23 -11
q0 -7 -6 -16zM213 948l125 -49l128 48q13 5 23 5q20 0 29 -16l-180 -125l-181 125q14 17 33 17q10 0 23 -5z" />
    <glyph glyph-name="zcaron" unicode="&#x17e;" horiz-adv-x="474" 
d="M472 163q0 -173 -136 -173q-47 0 -132 12.5t-113 12.5t-48.5 -10.5t-25.5 -10.5q-17 0 -17 13q0 9 10 20q105 113 200 240.5t154 226.5q-64 -13 -105 -13q-26 0 -62.5 3.5t-54.5 3.5q-37 0 -57 -13.5t-29 -52.5q-2 -11 -15 -11q-10 0 -10 13q0 47 24.5 108.5t55.5 61.5
q11 0 70.5 -5.5t123.5 -5.5q58 0 92 5.5t48 11t23 5.5t9 -8q0 -5 -6 -16q-41 -83 -165 -249.5t-192 -234.5q32 12 71 12q29 0 81 -5t70 -5q23 0 35.5 0.5t28.5 4t24 10.5t15.5 20t10.5 32q1 14 11 14q11 0 11 -17zM270 740l107 69q9 6 18 6q16 0 30 -17l-155 -154l-154 154
q9 15 27 15q11 0 18 -5z" />
    <glyph glyph-name="Schwa" unicode="&#x18f;" horiz-adv-x="701" 
d="M50 556q0 90 76 156.5t189 66.5q144 0 235.5 -97.5t91.5 -287.5q0 -84 -20.5 -156t-60.5 -128t-105.5 -88t-150.5 -32q-43 0 -85 12.5t-82 39.5t-65 79t-25 121q0 36 17 52t60 16h396q0 193 -66 291t-179 98q-145 0 -201 -151q-5 -12 -14 -12q-11 0 -11 20zM319 30
q78 0 136.5 74t63.5 174l-291 -16q-29 -1 -39 -13t-10 -35q0 -87 38 -135.5t102 -48.5z" />
    <glyph glyph-name="florin" unicode="&#x192;" horiz-adv-x="507" 
d="M128 300h-95q-23 0 -23 17q0 19 18 19h102l4 42q6 66 28.5 113.5t55 72t65.5 35.5t69 11q63 0 104 -22t41 -66q0 -45 -26 -60.5t-72 -15.5q0 28 -2 48t-7.5 42.5t-18.5 34.5t-33 12q-76 0 -89 -153l-7 -93h124q20 0 20 -18t-23 -18h-125l-21 -289q-4 -49 -17 -90
t-30 -65.5t-33 -38t-27 -13.5q-15 0 -15 22t15.5 239t17.5 234z" />
    <glyph glyph-name="Khook" unicode="&#x198;" horiz-adv-x="783" 
d="M301 353q-9 14 -9 17q0 2 11 23q114 222 183 304t159 82q108 0 108 -88q0 -39 -25.5 -62.5t-65.5 -23.5q0 88 -61 88q-54 0 -117 -72.5t-102 -171.5q100 -174 185.5 -280t125.5 -128q17 -10 40.5 -12.5t36.5 -4.5t13 -10q0 -12 -58 -18.5t-120 -6.5q-47 0 -115 81
t-189 283zM268 415v-69q0 -194 6 -236q6 -47 26 -65t73 -18q19 0 19 -15q0 -12 -15 -12h-335q-15 0 -15 12q0 15 19 15q56 0 75 18t23 65q6 84 6 237v66q0 162 -6 246q-4 46 -21.5 62.5t-71.5 16.5q-18 0 -18 14q0 13 15 13h315q15 0 15 -13q0 -14 -19 -14
q-53 0 -65.5 -14.5t-19.5 -64.5q-6 -42 -6 -244z" />
    <glyph glyph-name="khook" unicode="&#x199;" horiz-adv-x="622" 
d="M217 676v-402q0 -136 5 -171q6 -48 18.5 -62.5t54.5 -14.5q18 0 18 -14q0 -12 -15 -12h-277q-15 0 -15 12q0 14 18 14q42 0 57.5 16t19.5 61q6 84 6 171v300q0 76 16 128.5t45.5 78t61.5 36t74 10.5q147 0 147 -83q0 -35 -23.5 -52.5t-62.5 -17.5q0 22 -1.5 37t-7.5 39
t-22 37t-42 13q-31 0 -53 -28t-22 -96zM367 598h241q16 0 16 -11q0 -13 -17 -13q-41 0 -63 -11t-54 -42l-162 -158q180 -284 253 -327q17 -10 34.5 -12.5t24.5 -3t7 -6.5q0 -11 -44.5 -20.5t-94.5 -9.5q-34 0 -61 20.5t-71 83.5t-128 203q-6 11 -6 18q0 10 13 23l174 187
q8 8 8 18q0 15 -19.5 26t-54.5 11q-6 0 -10 4t-4 9q0 11 18 11z" />
    <glyph glyph-name="Ezh" unicode="&#x1b7;" horiz-adv-x="638" 
d="M584 738l-276 -433q126 -6 201.5 -65t75.5 -178q0 -109 -86.5 -189.5t-236.5 -80.5q-230 0 -230 112q0 49 30.5 77t75.5 28q13 0 27 -2q-12 -40 -12 -77q0 -106 109 -106q82 0 138.5 62t56.5 165q0 122 -60.5 174t-169.5 52h-33q-18 0 -18 13q0 9 14 32l256 405h-214
q-61 0 -101 -49.5t-42 -139.5q0 -13 -15 -13q-12 0 -12 12v212q0 10 3.5 13t11.5 3h494q18 0 18 -11q0 -7 -5 -16z" />
    <glyph glyph-name="Acaron" unicode="&#x1cd;" horiz-adv-x="792" 
d="M247 765h164q14 0 19.5 -3.5t9.5 -15.5l188 -530q40 -113 68 -151t77 -38q19 0 19 -15q0 -12 -15 -12h-324q-15 0 -15 12q0 15 18 15q50 0 70.5 9.5t20.5 36.5q0 26 -24 95l-47 130h-230l-75 -199q-5 -13 -5 -24q0 -48 101 -48q7 0 11.5 -4.5t4.5 -9.5q0 -13 -20 -13
h-241q-22 0 -22 14q0 13 18 13q42 0 65.5 25.5t52.5 94.5l210 507l-22 52q-9 20 -27.5 26t-50.5 6q-13 0 -13 14q0 13 14 13zM365 610l-104 -273h201zM249 948l125 -49l128 48q13 5 23 5q20 0 29 -16l-180 -125l-181 125q14 17 33 17q10 0 23 -5z" />
    <glyph glyph-name="acaron" unicode="&#x1ce;" horiz-adv-x="548" 
d="M333 307v66q0 101 -24.5 154t-83.5 53q-44 0 -62.5 -32.5t-18.5 -76.5q0 -25 5 -45q-17 -4 -34 -4q-35 0 -54 19t-19 51q0 53 57 85.5t151 32.5q195 0 195 -166q0 -4 -3 -97t-3 -182q0 -35 0.5 -50.5t4.5 -32.5t12 -22.5t23 -5.5q16 0 26 12t15.5 24t10.5 12q9 0 9 -16
q0 -39 -26.5 -67.5t-77.5 -28.5q-76 0 -104 69q-64 -69 -157 -69q-68 0 -111.5 36.5t-43.5 99.5q0 54 24 91.5t65 56.5t84.5 27t93.5 8q16 0 46 -2zM137 146q0 -44 26 -67t71 -23q52 0 94 30q5 33 5 192h-22q-80 0 -127 -33t-47 -99zM247 740l107 69q9 6 18 6q16 0 30 -17
l-155 -154l-154 154q9 15 27 15q10 0 18 -5z" />
    <glyph glyph-name="Icaron" unicode="&#x1cf;" horiz-adv-x="418" 
d="M268 415v-69q0 -194 6 -236q6 -47 26 -65t73 -18q19 0 19 -15q0 -12 -15 -12h-335q-15 0 -15 12q0 15 19 15q56 0 75 18t23 65q6 84 6 237v66q0 162 -6 246q-4 46 -21.5 62.5t-71.5 16.5q-18 0 -18 14q0 13 15 13h315q15 0 15 -13q0 -14 -19 -14q-53 0 -65.5 -14.5
t-19.5 -64.5q-6 -42 -6 -244zM85 948l125 -49l128 48q13 5 23 5q20 0 29 -16l-180 -125l-181 125q14 17 33 17q10 0 23 -5z" />
    <glyph glyph-name="icaron" unicode="&#x1d0;" horiz-adv-x="322" 
d="M223 549q0 -6 -2 -82t-2 -150v-43q0 -122 6 -164q4 -29 6 -39.5t9.5 -24t20.5 -17.5t36 -4q19 0 19 -13q0 -12 -15 -12h-275q-15 0 -15 12q0 13 18 13q43 0 58 19t19 66q6 84 6 164v69q0 110 -10.5 156.5t-50.5 46.5h-26q-14 0 -14 10t14 14q33 9 86.5 18.5t73.5 9.5
q38 0 38 -49zM158 740l107 69q9 6 18 6q16 0 30 -17l-155 -154l-154 154q9 15 27 15q11 0 18 -5z" />
    <glyph glyph-name="Ocaron" unicode="&#x1d1;" horiz-adv-x="847" 
d="M55 384q0 185 98.5 290t268.5 105t268 -104t98 -291t-98 -290.5t-268 -103.5t-268.5 103.5t-98.5 290.5zM417 741q-62 0 -107.5 -29t-70 -80.5t-36 -110.5t-11.5 -129q0 -74 11.5 -136t36.5 -115t71 -83t108 -30q63 0 109 28.5t71.5 79t37 110t11.5 130.5
q0 76 -11.5 138.5t-37.5 115t-72 82t-110 29.5zM299 948l125 -49l128 48q13 5 23 5q20 0 29 -16l-180 -125l-181 125q14 17 33 17q10 0 23 -5z" />
    <glyph glyph-name="ocaron" unicode="&#x1d2;" horiz-adv-x="615" 
d="M290 -10q-119 0 -184.5 74.5t-65.5 211.5q0 166 77.5 250t206.5 84q118 0 184.5 -77.5t66.5 -214.5q0 -165 -77.5 -246.5t-207.5 -81.5zM317 25q74 0 104.5 67.5t30.5 190.5q0 132 -36.5 212.5t-112.5 80.5q-73 0 -107 -71.5t-34 -192.5q0 -130 38.5 -208.5t116.5 -78.5z
M308 740l107 69q9 6 18 6q16 0 30 -17l-155 -154l-154 154q9 15 27 15q11 0 18 -5z" />
    <glyph glyph-name="Ucaron" unicode="&#x1d3;" horiz-adv-x="815" 
d="M119 282v131q0 162 -6 246q-4 46 -21 62.5t-71 16.5q-18 0 -18 15q0 12 15 12h314q15 0 15 -13q0 -14 -18 -14q-50 0 -65 -15.5t-21 -63.5q-5 -35 -5 -244v-127q0 -117 48.5 -179.5t147.5 -62.5q112 0 168 60.5t56 167.5v134q0 158 -6 242q-4 50 -20.5 69t-72.5 19
q-18 0 -18 14q0 13 15 13h242q15 0 15 -12q0 -15 -19 -15q-51 0 -65 -18t-20 -70q-6 -56 -6 -240v-130q0 -142 -70 -216t-221 -74q-293 0 -293 292zM305 948l125 -49l128 48q13 5 23 5q20 0 29 -16l-180 -125l-181 125q14 17 33 17q10 0 23 -5z" />
    <glyph glyph-name="ucaron" unicode="&#x1d4;" horiz-adv-x="630" 
d="M417 59q-95 -69 -188 -69q-66 0 -106 38t-40 107v208q0 109 -11 156t-50 47h-27q-14 0 -14 10t14 14q33 9 86.5 18.5t73.5 9.5q39 0 39 -49q0 -6 -2.5 -82t-2.5 -150v-136q0 -129 97 -129q52 0 127 37q4 56 4 192v62q0 110 -10.5 156.5t-49.5 46.5h-27q-14 0 -14 10
t14 14q33 9 86.5 18.5t73.5 9.5q39 0 39 -49q0 -6 -2.5 -82t-2.5 -150v-152q0 -35 0.5 -50.5t4.5 -32.5t12 -22.5t23 -5.5q16 0 26 12t15.5 24t10.5 12q9 0 9 -16q0 -39 -26.5 -67.5t-77.5 -28.5q-76 0 -104 69zM290 740l107 69q9 6 18 6q16 0 30 -17l-155 -154l-154 154
q9 15 27 15q11 0 18 -5z" />
    <glyph glyph-name="Adieresismacron" unicode="&#x1de;" horiz-adv-x="792" 
d="M247 765h164q14 0 19.5 -3.5t9.5 -15.5l188 -530q40 -113 68 -151t77 -38q19 0 19 -15q0 -12 -15 -12h-324q-15 0 -15 12q0 15 18 15q50 0 70.5 9.5t20.5 36.5q0 26 -24 95l-47 130h-230l-75 -199q-5 -13 -5 -24q0 -48 101 -48q7 0 11.5 -4.5t4.5 -9.5q0 -13 -20 -13
h-241q-22 0 -22 14q0 13 18 13q42 0 65.5 25.5t52.5 94.5l210 507l-22 52q-9 20 -27.5 26t-50.5 6q-13 0 -13 14q0 13 14 13zM365 610l-104 -273h201zM192 861q0 28 20.5 48t47.5 20q28 0 48.5 -20t20.5 -48t-20.5 -48.5t-48.5 -20.5q-27 0 -47.5 20.5t-20.5 48.5zM418 861
q0 28 20.5 48t48.5 20t48 -20t20 -48t-20 -48.5t-48 -20.5t-48.5 20.5t-20.5 48.5zM523 955h-304q-25 0 -25 22q0 10 7 17t20 7h300q13 0 20.5 -7t7.5 -17q0 -9 -7 -15.5t-19 -6.5z" />
    <glyph glyph-name="adieresismacron" unicode="&#x1df;" horiz-adv-x="548" 
d="M333 307v66q0 101 -24.5 154t-83.5 53q-44 0 -62.5 -32.5t-18.5 -76.5q0 -25 5 -45q-17 -4 -34 -4q-35 0 -54 19t-19 51q0 53 57 85.5t151 32.5q195 0 195 -166q0 -4 -3 -97t-3 -182q0 -35 0.5 -50.5t4.5 -32.5t12 -22.5t23 -5.5q16 0 26 12t15.5 24t10.5 12q9 0 9 -16
q0 -39 -26.5 -67.5t-77.5 -28.5q-76 0 -104 69q-64 -69 -157 -69q-68 0 -111.5 36.5t-43.5 99.5q0 54 24 91.5t65 56.5t84.5 27t93.5 8q16 0 46 -2zM137 146q0 -44 26 -67t71 -23q52 0 94 30q5 33 5 192h-22q-80 0 -127 -33t-47 -99zM68 714q0 28 20.5 48t47.5 20
q28 0 48.5 -20t20.5 -48t-20.5 -48.5t-48.5 -20.5q-27 0 -47.5 20.5t-20.5 48.5zM294 714q0 28 20.5 48t48.5 20t48 -20t20 -48t-20 -48.5t-48 -20.5t-48.5 20.5t-20.5 48.5zM399 812h-304q-25 0 -25 22q0 10 7 17t20 7h300q13 0 20.5 -7t7.5 -17q0 -9 -7 -15.5t-19 -6.5z
" />
    <glyph glyph-name="AEmacron" unicode="&#x1e2;" horiz-adv-x="1071" 
d="M431 765h549q8 0 11.5 -3t3.5 -13v-167q0 -12 -12 -12q-15 0 -15 13q0 55 -37 103t-106 48h-45q-74 0 -94 -23v-294h97q96 0 110 97q3 18 14 18q9 0 9 -15q0 -14 -3.5 -50.5t-3.5 -69.5q0 -39 3.5 -71t3.5 -39q0 -15 -9 -15q-11 0 -14 18q-14 93 -110 93h-97v-105
q0 -125 6 -181q4 -36 30 -51.5t102 -15.5q64 0 117.5 48t77.5 129q4 16 16 16t12 -13q0 -12 -20 -92t-26 -100q-5 -18 -24 -18h-517q-15 0 -15 12q0 15 19 15q56 0 75 18t23 65q6 84 6 237v36h-226l-180 -284q-8 -13 -8 -25q0 -47 104 -47q16 0 16 -14q0 -13 -20 -13h-239
q-15 0 -15 12q0 15 18 15q27 0 48 19t46 58l387 593q8 13 8 20q0 21 -33 21h-44q-13 0 -13 14q0 13 14 13zM568 730l-209 -313h209v313zM850 833h-304q-25 0 -25 22q0 10 7 17t20 7h300q13 0 20.5 -7t7.5 -17q0 -9 -7 -15.5t-19 -6.5z" />
    <glyph glyph-name="aemacron" unicode="&#x1e3;" horiz-adv-x="812" 
d="M718 366l-288 -49q8 -119 55 -184.5t123 -65.5q54 0 89.5 21.5t62.5 76.5q4 8 11 8q8 0 8 -12q0 -58 -55 -114.5t-158 -56.5q-124 0 -191 82q-88 -82 -200 -82q-68 0 -111.5 36.5t-43.5 99.5q0 42 20 76t48 54.5t72 37.5t77 24.5t77 15.5q5 46 18 86q-11 160 -107 160
q-44 0 -62.5 -32.5t-18.5 -76.5q0 -25 5 -45q-17 -4 -34 -4q-35 0 -54 19t-19 51q0 53 57 85.5t151 32.5q115 0 158 -72q64 72 175 72q35 0 67.5 -10t62.5 -31t48 -60.5t18 -93.5q0 -25 -12.5 -33.5t-48.5 -15.5zM429 353l195 32q23 4 31 12t8 25q0 156 -96 156
q-60 0 -99 -68.5t-39 -156.5zM312 282v15q-175 -32 -175 -151q0 -44 26 -67t71 -23q58 0 124 39q-46 72 -46 187zM557 670h-304q-25 0 -25 22q0 10 7 17t20 7h300q13 0 20.5 -7t7.5 -17q0 -9 -7 -15.5t-19 -6.5z" />
    <glyph glyph-name="Gstroke" unicode="&#x1e4;" horiz-adv-x="822" 
d="M801 192h-89q-1 -21 -1 -100q0 -22 5 -38t5 -17q0 -11 -26 -17q-126 -30 -244 -30q-191 0 -293.5 99t-102.5 289q0 183 109.5 292t311.5 109q102 0 199 -23q15 -5 16 -21v-192q0 -16 -11 -16t-14 18q-32 197 -207 197q-47 0 -91.5 -21t-84 -62t-64 -114t-24.5 -167
q0 -163 67 -254.5t185 -91.5q100 0 153 33q0 13 -3 127h-98q-16 0 -16 14q0 15 17 15h96q0 6 -0.5 15t-0.5 11q-4 46 -22 63t-71 17q-19 0 -19 15q0 12 15 12h308q15 0 15 -12q0 -15 -19 -15q-54 0 -67 -14.5t-20 -65.5l-2 -26h87q18 0 18 -15q0 -14 -17 -14z" />
    <glyph glyph-name="gstroke" unicode="&#x1e5;" horiz-adv-x="536" 
d="M-28 -49h29q9 35 40 55t71 20q27 0 48 -11q-39 -30 -43 -64h313q-12 71 -108 81l-137 15q-59 7 -87.5 30.5t-28.5 68.5q0 39 26.5 74.5t63.5 52.5q-65 17 -102 57t-37 97q0 87 66.5 135t160.5 48q73 0 121 -17q-8 26 -8 52q0 40 19.5 66.5t61.5 26.5q27 0 44.5 -16
t17.5 -40q0 -27 -21 -51q-16 15 -34 15q-20 0 -35 -19t-16 -46q89 -44 89 -154q0 -84 -64.5 -126t-160.5 -42q-37 0 -75 6q-37 -25 -37 -61q0 -19 12.5 -32.5t36.5 -16.5l151 -18q168 -20 168 -186h18q26 0 26 -20q0 -17 -21 -17h-30q-37 -128 -256 -128q-116 0 -183 32
t-72 96h-28q-22 0 -22 18q0 19 23 19zM139 427q0 -130 107 -130q62 0 91 37.5t29 102.5t-28 102.5t-86 37.5q-59 0 -86 -41.5t-27 -108.5zM270 -183q74 0 116 26t46 71h-314q8 -42 45.5 -69.5t106.5 -27.5z" />
    <glyph glyph-name="Gcaron" unicode="&#x1e6;" horiz-adv-x="822" 
d="M600 65q0 98 -6 182q-4 47 -21.5 63.5t-70.5 16.5q-19 0 -19 15q0 12 15 12h308q15 0 15 -12q0 -15 -19 -15q-53 0 -65.5 -14.5t-19.5 -65.5q-6 -42 -6 -155q0 -22 5 -38t5 -17q0 -11 -26 -17q-126 -30 -244 -30q-191 0 -293.5 99t-102.5 289q0 183 109.5 292t311.5 109
q102 0 199 -23q15 -5 16 -21v-192q0 -16 -11 -16t-14 18q-32 197 -207 197q-47 0 -91.5 -21t-84 -62t-64 -114t-24.5 -167q0 -163 67 -254.5t185 -91.5q100 0 153 33zM314 948l125 -49l128 48q13 5 23 5q20 0 29 -16l-180 -125l-181 125q14 17 33 17q10 0 23 -5z" />
    <glyph glyph-name="gcaron" unicode="&#x1e7;" horiz-adv-x="536" 
d="M247 610q73 0 121 -17q-8 26 -8 52q0 40 19.5 66.5t61.5 26.5q27 0 44.5 -16t17.5 -40q0 -27 -21 -51q-16 15 -34 15q-20 0 -35 -19t-16 -46q89 -44 89 -154q0 -84 -64.5 -126t-160.5 -42q-37 0 -75 6q-37 -25 -37 -61q0 -19 12.5 -32.5t36.5 -16.5l151 -18
q78 -9 123 -54t45 -117q0 -86 -65 -133t-198 -47q-121 0 -188.5 35t-67.5 105q0 45 33.5 72.5t80.5 27.5q27 0 48 -11q-44 -34 -44 -80q0 -49 38 -83.5t116 -34.5t120.5 28t42.5 78q0 97 -111 109l-137 15q-59 7 -87.5 30.5t-28.5 68.5q0 39 26.5 74.5t63.5 52.5
q-65 17 -102 57t-37 97q0 87 66.5 135t160.5 48zM139 427q0 -130 107 -130q62 0 91 37.5t29 102.5t-28 102.5t-86 37.5q-59 0 -86 -41.5t-27 -108.5zM254 740l107 69q9 6 18 6q16 0 30 -17l-155 -154l-154 154q9 15 27 15q11 0 18 -5z" />
    <glyph glyph-name="Kcaron" unicode="&#x1e8;" horiz-adv-x="783" 
d="M593 670l-201 -238q99 -173 179.5 -270.5t121.5 -120.5q17 -10 40.5 -12.5t36.5 -4.5t13 -10q0 -12 -58 -18.5t-120 -6.5q-47 0 -115 81t-189 283q-7 12 -7 17t13 22l216 259q31 38 31 51q0 16 -23 26t-59 10q-17 0 -17 14q0 13 20 13h248q22 0 22 -14q0 -13 -17 -13
q-77 0 -135 -68zM268 415v-69q0 -194 6 -236q6 -47 26 -65t73 -18q19 0 19 -15q0 -12 -15 -12h-335q-15 0 -15 12q0 15 19 15q56 0 75 18t23 65q6 84 6 237v66q0 162 -6 246q-4 46 -21.5 62.5t-71.5 16.5q-18 0 -18 14q0 13 15 13h315q15 0 15 -13q0 -14 -19 -14
q-53 0 -65.5 -14.5t-19.5 -64.5q-6 -42 -6 -244zM281 948l125 -49l128 48q13 5 23 5q20 0 29 -16l-180 -125l-181 125q14 17 33 17q10 0 23 -5z" />
    <glyph glyph-name="kcaron" unicode="&#x1e9;" horiz-adv-x="622" 
d="M367 598h241q16 0 16 -11q0 -13 -17 -13q-41 0 -63 -11t-54 -42l-162 -158q180 -284 253 -327q17 -10 34.5 -12.5t24.5 -3t7 -6.5q0 -11 -44.5 -20.5t-94.5 -9.5q-34 0 -61 20.5t-71 83.5t-128 203q-6 11 -6 18q0 10 13 23l174 187q8 8 8 18q0 15 -19.5 26t-54.5 11
q-6 0 -10 4t-4 9q0 11 18 11zM217 770v-496q0 -136 5 -171q6 -48 18.5 -62.5t54.5 -14.5q18 0 18 -14q0 -12 -15 -12h-277q-15 0 -15 12q0 14 18 14q42 0 57.5 16t19.5 61q6 84 6 171v353q0 81 -11.5 105.5t-53.5 24.5h-25q-16 0 -16 9t16 13q9 2 50.5 14t70 19t41.5 7
q38 0 38 -49zM27 965l125 -49l128 48q13 5 23 5q20 0 29 -16l-180 -125l-181 125q14 17 33 17q10 0 23 -5z" />
    <glyph glyph-name="Oogonek" unicode="&#x1ea;" horiz-adv-x="847" 
d="M343 -110q0 62 44 101q-155 11 -243.5 113.5t-88.5 279.5q0 185 98.5 290t268.5 105t268 -104t98 -291q0 -174 -83.5 -274.5t-229.5 -116.5q-23 -2 -41 -22t-18 -48q0 -32 20 -49t52 -17q35 0 61 17q4 -9 4 -21q0 -35 -24 -56t-71 -21q-49 0 -82 28.5t-33 85.5zM417 741
q-62 0 -107.5 -29t-70 -80.5t-36 -110.5t-11.5 -129q0 -74 11.5 -136t36.5 -115t71 -83t108 -30q63 0 109 28.5t71.5 79t37 110t11.5 130.5q0 76 -11.5 138.5t-37.5 115t-72 82t-110 29.5z" />
    <glyph glyph-name="oogonek" unicode="&#x1eb;" horiz-adv-x="615" 
d="M251 -110q0 59 39 100q-119 0 -184.5 74.5t-65.5 211.5q0 166 77.5 250t206.5 84q118 0 184.5 -77.5t66.5 -214.5q0 -131 -49.5 -209t-136.5 -105q-65 -22 -65 -81q0 -32 20 -49t52 -17q35 0 61 17q4 -9 4 -21q0 -35 -24 -56t-71 -21q-49 0 -82 28.5t-33 85.5zM317 25
q74 0 104.5 67.5t30.5 190.5q0 132 -36.5 212.5t-112.5 80.5q-73 0 -107 -71.5t-34 -192.5q0 -130 38.5 -208.5t116.5 -78.5z" />
    <glyph glyph-name="uni01EC" unicode="&#x1ec;" horiz-adv-x="847" 
d="M573 833h-304q-25 0 -25 22q0 10 7 17t20 7h300q13 0 20.5 -7t7.5 -17q0 -9 -7 -15.5t-19 -6.5zM343 -110q0 62 44 101q-155 11 -243.5 113.5t-88.5 279.5q0 185 98.5 290t268.5 105t268 -104t98 -291q0 -174 -83.5 -274.5t-229.5 -116.5q-23 -2 -41 -22t-18 -48
q0 -32 20 -49t52 -17q35 0 61 17q4 -9 4 -21q0 -35 -24 -56t-71 -21q-49 0 -82 28.5t-33 85.5zM417 741q-62 0 -107.5 -29t-70 -80.5t-36 -110.5t-11.5 -129q0 -74 11.5 -136t36.5 -115t71 -83t108 -30q63 0 109 28.5t71.5 79t37 110t11.5 130.5q0 76 -11.5 138.5t-37.5 115
t-72 82t-110 29.5z" />
    <glyph glyph-name="uni01ED" unicode="&#x1ed;" horiz-adv-x="615" 
d="M460 670h-304q-25 0 -25 22q0 10 7 17t20 7h300q13 0 20.5 -7t7.5 -17q0 -9 -7 -15.5t-19 -6.5zM251 -110q0 59 39 100q-119 0 -184.5 74.5t-65.5 211.5q0 166 77.5 250t206.5 84q118 0 184.5 -77.5t66.5 -214.5q0 -131 -49.5 -209t-136.5 -105q-65 -22 -65 -81
q0 -32 20 -49t52 -17q35 0 61 17q4 -9 4 -21q0 -35 -24 -56t-71 -21q-49 0 -82 28.5t-33 85.5zM317 25q74 0 104.5 67.5t30.5 190.5q0 132 -36.5 212.5t-112.5 80.5q-73 0 -107 -71.5t-34 -192.5q0 -130 38.5 -208.5t116.5 -78.5z" />
    <glyph glyph-name="Ezhcaron" unicode="&#x1ee;" horiz-adv-x="638" 
d="M584 738l-276 -433q126 -6 201.5 -65t75.5 -178q0 -109 -86.5 -189.5t-236.5 -80.5q-230 0 -230 112q0 49 30.5 77t75.5 28q13 0 27 -2q-12 -40 -12 -77q0 -106 109 -106q82 0 138.5 62t56.5 165q0 122 -60.5 174t-169.5 52h-33q-18 0 -18 13q0 9 14 32l256 405h-214
q-61 0 -101 -49.5t-42 -139.5q0 -13 -15 -13q-12 0 -12 12v212q0 10 3.5 13t11.5 3h494q18 0 18 -11q0 -7 -5 -16zM193 948l125 -49l128 48q13 5 23 5q20 0 29 -16l-180 -125l-181 125q14 17 33 17q10 0 23 -5z" />
    <glyph glyph-name="ezhcaron" unicode="&#x1ef;" horiz-adv-x="503" 
d="M364 494q-64 -13 -105 -13q-26 0 -62.5 3.5t-54.5 3.5q-37 0 -57 -13.5t-29 -52.5q-2 -11 -15 -11q-10 0 -10 13q0 47 24.5 108.5t55.5 61.5q11 0 70.5 -5.5t123.5 -5.5q58 0 92 5.5t48 11t23 5.5t9 -8q0 -5 -6 -16q-145 -260 -249 -366q69 0 121 -19.5t80.5 -52
t42.5 -69.5t14 -78q0 -93 -69 -152t-199 -59q-35 0 -67.5 5t-64 17t-50.5 35t-19 55q0 45 33.5 73.5t64.5 28.5q0 -30 1 -48t7 -47t17.5 -45.5t35.5 -29.5t57 -13q136 0 136 185q0 84 -43.5 133.5t-124.5 49.5q-15 -12 -23 -12q-15 0 -15 13q0 10 12 23q100 107 195 286z
M259 740l107 69q9 6 18 6q16 0 30 -17l-155 -154l-154 154q9 15 27 15q10 0 18 -5z" />
    <glyph glyph-name="jcaron" unicode="&#x1f0;" horiz-adv-x="277" 
d="M91 -71v414q0 110 -10.5 156.5t-50.5 46.5h-26q-15 0 -15 10t15 14q33 9 86.5 18.5t73.5 9.5q38 0 38 -49q0 -6 -2 -82t-2 -150v-111q0 -34 5 -113.5t5 -112.5q0 -92 -60 -141.5t-158 -49.5q-20 0 -20 16q0 14 19 14q60 0 81 25.5t21 84.5zM135 740l107 69q9 6 18 6
q16 0 30 -17l-155 -154l-154 154q9 15 27 15q10 0 18 -5z" />
    </font>
</defs>
</svg>
